<?xml version="1.0" standalone="no"?>
<!DOCTYPE svg PUBLIC "-//W3C//DTD SVG 20010904//EN"
 "http://www.w3.org/TR/2001/REC-SVG-20010904/DTD/svg10.dtd">
<svg version="1.0" xmlns="http://www.w3.org/2000/svg"
 width="720.000000pt" height="720.000000pt" viewBox="0 0 720.000000 720.000000"
 preserveAspectRatio="xMidYMid meet">
<metadata>
Created by potrace 1.11, written by Peter Selinger 2001-2013
</metadata>
<g transform="translate(0.000000,720.000000) scale(0.100000,-0.100000)"
fill="#000000" stroke="none">
<path d="M1135 7189 c-107 -20 -136 -29 -218 -70 -144 -71 -246 -193 -287
-343 -48 -171 -8 -396 99 -561 26 -40 101 -145 111 -155 3 -3 18 -23 35 -45
16 -21 36 -47 45 -56 238 -253 239 -258 69 -469 -165 -206 -319 -455 -410
-665 -66 -153 -133 -336 -144 -395 -2 -12 -11 -46 -19 -74 -21 -77 -50 -218
-62 -301 -23 -171 -28 -253 -28 -480 0 -201 4 -304 19 -420 4 -33 18 -127 20
-135 1 -3 5 -25 9 -50 4 -25 15 -72 23 -105 8 -33 17 -71 19 -85 3 -14 21 -77
41 -140 20 -63 37 -117 38 -120 6 -20 19 -49 31 -72 8 -16 13 -28 10 -28 -11
0 166 -368 182 -380 4 -3 19 -26 32 -52 14 -27 28 -48 32 -48 5 0 8 -7 8 -15
0 -8 4 -15 9 -15 5 0 11 -8 15 -17 6 -18 27 -54 36 -63 3 -3 17 -21 30 -40 12
-19 28 -39 34 -45 6 -5 23 -28 38 -50 16 -22 42 -56 59 -75 101 -112 109 -174
34 -258 -13 -15 -32 -36 -42 -48 -10 -12 -44 -50 -76 -86 -248 -280 -321 -417
-331 -628 -1 -30 1 -73 7 -95 5 -22 10 -48 12 -58 2 -10 16 -43 30 -74 121
-265 451 -400 755 -309 90 27 154 69 250 166 87 86 217 227 266 289 10 13 32
38 47 55 16 17 44 50 63 73 41 48 72 70 108 77 26 5 102 -13 161 -39 17 -6 44
-18 60 -25 128 -54 469 -147 640 -174 17 -3 41 -7 55 -10 14 -2 50 -7 80 -11
30 -4 62 -8 70 -10 124 -22 604 -23 750 0 19 3 53 7 75 10 82 10 116 15 157
24 24 6 57 12 73 15 28 6 68 14 90 20 6 1 26 6 45 10 40 9 162 44 265 76 39
12 128 44 199 72 71 27 146 50 167 50 48 0 91 -26 149 -93 25 -28 56 -63 70
-78 14 -15 57 -63 95 -106 72 -81 196 -207 279 -283 114 -105 200 -137 361
-137 144 1 244 29 355 100 158 101 262 272 263 430 1 119 -63 309 -129 386 -8
8 -14 19 -14 24 0 16 -254 346 -289 375 -4 3 -30 33 -60 67 -34 40 -50 66 -45
75 8 13 104 139 114 148 3 3 25 32 50 65 25 33 48 61 53 63 4 2 7 10 7 17 0 8
6 18 13 22 13 9 37 44 128 190 66 106 184 342 229 458 17 44 35 89 40 100 16
35 98 320 109 381 16 84 20 103 25 122 3 9 7 37 10 62 3 25 8 54 10 65 28 142
28 685 0 817 -2 13 -7 41 -10 63 -4 31 -30 163 -48 250 -6 27 -30 110 -57 200
-78 252 -215 543 -361 763 -26 40 -48 76 -48 81 0 5 -3 11 -8 13 -4 2 -40 46
-79 98 -39 52 -85 111 -102 130 -31 36 -48 73 -46 100 1 8 3 24 3 36 2 18 29
54 170 223 20 24 62 78 94 120 31 42 63 84 72 94 9 9 16 20 16 23 0 3 12 24
28 47 44 68 52 81 58 97 3 8 10 24 15 35 51 114 62 311 22 405 -3 8 -7 17 -7
20 -5 26 -37 86 -72 136 -37 52 -62 79 -133 136 -21 17 -104 58 -118 58 -7 0
-13 3 -13 8 0 7 -94 39 -140 46 -14 3 -25 5 -25 7 0 1 -43 3 -96 4 -115 4
-179 -9 -289 -58 -139 -61 -336 -250 -529 -505 -83 -110 -131 -142 -209 -137
-31 2 -100 18 -152 35 -107 36 -247 80 -270 85 -8 2 -55 13 -104 25 -266 64
-515 94 -796 93 -169 0 -300 -4 -313 -11 -5 -2 -32 -5 -60 -7 -199 -11 -509
-82 -797 -182 -85 -30 -171 -56 -191 -58 -50 -4 -96 26 -159 105 -195 248
-334 400 -425 466 -22 16 -42 31 -45 34 -15 17 -165 81 -224 95 -76 18 -199
25 -261 14z m2652 -1648 c126 -18 136 -20 161 -25 13 -3 33 -8 44 -12 11 -3
30 -8 41 -9 26 -5 61 -13 65 -15 1 -2 5 -3 10 -4 67 -15 113 -30 118 -37 3 -5
13 -9 23 -9 28 0 228 -91 326 -148 77 -44 111 -67 118 -79 4 -7 13 -13 18 -13
24 0 251 -211 325 -303 44 -53 114 -156 114 -166 0 -6 5 -11 10 -11 6 0 10 -7
10 -15 0 -8 3 -15 8 -15 4 0 12 -10 18 -23 6 -12 29 -58 51 -102 37 -74 53
-107 88 -190 31 -72 92 -266 101 -320 11 -68 15 -93 20 -115 3 -14 8 -41 10
-60 2 -19 6 -44 8 -55 12 -51 20 -147 19 -220 -2 -106 -18 -290 -30 -335 -3
-14 -6 -28 -5 -32 2 -6 -5 -42 -33 -168 -7 -36 -39 -141 -61 -205 -27 -78 -31
-87 -68 -167 -14 -31 -26 -59 -26 -62 0 -9 -103 -182 -136 -229 -19 -26 -34
-49 -34 -52 0 -3 -8 -13 -17 -23 -10 -11 -34 -38 -53 -62 -45 -57 -187 -198
-229 -230 -19 -14 -43 -33 -54 -42 -11 -10 -43 -32 -71 -50 -28 -18 -53 -35
-56 -39 -3 -3 -17 -12 -32 -20 -101 -52 -175 -89 -188 -93 -8 -3 -22 -10 -30
-15 -19 -12 -145 -60 -168 -64 -9 -2 -42 -11 -73 -21 -31 -9 -66 -19 -78 -21
-11 -3 -29 -7 -40 -9 -10 -2 -34 -7 -52 -10 -19 -3 -45 -8 -59 -11 -86 -18
-364 -24 -475 -12 -33 4 -73 9 -90 11 -166 19 -389 89 -578 182 -84 41 -282
165 -341 215 -68 56 -265 259 -306 314 -25 33 -48 62 -52 63 -5 2 -8 10 -8 18
0 8 -4 14 -8 14 -5 0 -14 10 -21 23 -6 12 -17 31 -24 42 -42 69 -99 179 -122
235 -14 36 -30 74 -35 85 -16 33 -68 202 -76 245 -5 31 -14 76 -20 100 -7 28
-11 54 -18 118 -3 23 -7 46 -9 50 -17 28 -25 408 -12 522 3 30 8 73 10 95 4
33 26 142 50 239 26 106 138 366 195 451 11 17 23 37 27 45 35 75 263 334 394
446 103 88 268 194 400 257 82 39 212 88 236 89 5 0 15 4 24 9 9 4 29 11 45
14 16 2 40 7 54 10 76 17 118 24 190 31 36 4 66 7 68 9 8 7 321 -4 389 -14z"/>
<path d="M2386 3573 c-2 -2 -3 -21 -1 -41 2 -20 7 -66 10 -101 3 -35 7 -73 10
-85 3 -11 7 -32 9 -46 27 -172 132 -409 236 -535 32 -38 167 -174 200 -200
106 -84 259 -165 385 -205 69 -21 85 -25 135 -35 14 -3 36 -8 50 -11 41 -10
302 -13 350 -4 25 4 61 11 80 14 115 19 265 75 390 147 71 40 195 141 239 193
9 10 23 26 32 35 123 122 252 404 284 621 3 19 8 45 10 57 3 13 8 62 10 111
l5 89 -1215 0 c-668 0 -1216 -2 -1219 -4z"/>
</g>
</svg>
