<?xml version="1.0" encoding="UTF-8"?>
<svg width="39px" height="39px" viewBox="0 0 39 39" version="1.1" xmlns="http://www.w3.org/2000/svg" xmlns:xlink="http://www.w3.org/1999/xlink">
    <!-- Generator: Sketch 48.2 (47327) - http://www.bohemiancoding.com/sketch -->
    <title>Facebook</title>
    <desc>Created with Sketch.</desc>
    <defs></defs>
    <g id="dev-sample" stroke="none" stroke-width="1" fill="none" fill-rule="evenodd" transform="translate(-639.000000, -2862.000000)">
        <g id="Footer" transform="translate(0.000000, 2784.000000)">
            <g id="social-icons" transform="translate(590.000000, 79.000000)">
                <g id="Facebook" transform="translate(50.000000, 0.000000)">
                    <path d="M0,18.5 C0,8.28273162 8.28273162,0 18.5,0 C28.7172684,0 37,8.28273162 37,18.5 C37,28.7172684 28.7172684,37 18.5,37 C8.28273162,37 0,28.7172684 0,18.5 Z" id="back" stroke="#E1E1E1" stroke-width="1"></path>
                    <path d="M20.3470644,29.5382524 L20.3470644,19.2012493 L23.2005294,19.2012493 L23.5786751,15.6390608 L20.3470644,15.6390608 L20.3519125,13.8561511 C20.3519125,12.9270775 20.4401869,12.4292586 21.7746049,12.4292586 L23.558475,12.4292586 L23.558475,8.86666667 L20.7046061,8.86666667 C17.2766505,8.86666667 16.070099,10.5947113 16.070099,13.5007391 L16.070099,15.6394642 L13.9333333,15.6394642 L13.9333333,19.2016527 L16.070099,19.2016527 L16.070099,29.5382524 L20.3470644,29.5382524 Z" id="Shape" fill="#737373" fill-rule="evenodd"></path>
                </g>
            </g>
        </g>
    </g>
</svg>