<?xml version="1.0" encoding="UTF-8"?>
<svg width="315px" height="342px" viewBox="0 0 315 342" version="1.1" xmlns="http://www.w3.org/2000/svg" xmlns:xlink="http://www.w3.org/1999/xlink">
    <!-- Generator: Sketch 48.2 (47327) - http://www.bohemiancoding.com/sketch -->
    <title>icon-group</title>
    <desc>Created with Sketch.</desc>
    <defs></defs>
    <g id="dev-sample" stroke="none" stroke-width="1" fill="none" fill-rule="evenodd" transform="translate(-145.000000, -1088.000000)">
        <g id="PARTIAL---02" transform="translate(145.000000, 1087.000000)">
            <g id="icon-group">
                <g transform="translate(0.000000, 0.994118)">
                    <ellipse id="Yellow" fill="#FDCD2F" cx="68.9323607" cy="228.35534" rx="68.9323607" ry="69.135103"></ellipse>
                    <g id="users4" transform="translate(35.092838, 196.092292)" fill="#FFFFFF" fill-rule="nonzero">
                        <path d="M42.9022912,51.7928116 C41.7354111,51.441718 40.7759764,51.1036278 39.7387497,50.4274475 C37.9365682,49.3481597 38.1051175,47.3066153 38.2477362,45.4991333 C38.2866322,45.0310085 38.3255282,44.601894 38.3125629,44.3028143 C38.3125629,43.9387172 38.4551816,43.600627 38.7015229,43.3535611 C39.635027,42.4303149 40.023987,40.8829023 40.3999817,39.4395174 L40.5814964,38.7633371 C40.6852191,38.373233 40.9574911,38.0741533 41.2945898,37.9181117 L42.1891978,36.8518273 C42.3966432,36.2926782 42.4225739,35.6295013 42.2540245,35.0573488 C42.1891978,34.8232864 42.1891978,34.5892239 42.2410592,34.3811685 C42.7726379,32.1965859 42.8504299,30.33709 42.5133312,28.7766739 C41.6705845,24.8626301 38.5718696,23.0291412 34.7341306,22.7950788 C32.5948505,22.6650441 30.559293,23.0681516 29.5739276,24.0694186 C29.3405515,24.2904776 29.0682795,24.4205122 28.7700768,24.4465192 C28.5496661,24.4725261 28.3422208,24.5115365 28.1477408,24.5635504 C26.488178,24.9666579 25.5417086,25.9679249 25.0619912,27.2422647 C24.5174472,28.6726462 24.5174472,30.4801282 24.7767539,32.2746067 C24.8804765,32.9897974 25.0230952,33.7049881 25.1786792,34.3811685 C25.2435059,34.6282343 25.2305406,34.8753002 25.1527486,35.1093626 C24.9971645,35.6685118 25.0360606,36.3056817 25.2435059,36.8518273 C25.4120552,37.3199521 25.7232233,37.7230596 26.1640446,37.9441186 C26.5141087,38.1131637 26.7474847,38.4252469 26.838242,38.7633371 C26.877138,38.9063752 26.9030687,39.0104029 27.0067914,39.3875035 C27.3957514,40.8698988 27.7976768,42.4433184 28.7182155,43.3535611 C28.9775222,43.600627 29.1071755,43.9387172 29.1071755,44.2768073 C29.1071755,44.5888906 29.1331062,44.9529876 29.1590369,45.3300882 C29.3016555,47.1895841 29.4831702,49.4001736 27.6161621,50.4794614 C26.410386,51.2206591 25.5417086,51.4807284 24.5174472,51.7928116 C24.0895911,51.9228463 23.6228391,52.052881 23.1042257,52.247933 C23.0264337,52.2739399 22.9356764,52.3129503 22.8578844,52.3389573 C22.0021723,52.6510405 20.9519802,53.0411445 20.4204015,53.5612832 C19.7073081,54.250467 19.1497988,55.1347028 18.7738041,56.083956 C18.3589134,57.1242334 18.151468,58.2425316 18.151468,59.3218194 C18.151468,59.9979997 19.6165508,60.6221662 21.6521083,61.1553083 C25.3472286,62.1175649 30.598189,62.4166447 33.7098692,62.4166447 C36.8215494,62.4166447 42.0725098,62.1175649 45.7676301,61.1553083 C47.8031876,60.6221662 49.2682704,59.9979997 49.2682704,59.3218194 C49.2682704,58.2425316 49.060825,57.1242334 48.6459343,56.0969594 C48.2699396,55.1347028 47.7124303,54.250467 46.9993369,53.5612832 C46.2343821,52.8200856 44.01731,52.1178983 42.9022912,51.7928116 Z M42.9282219,40.0246734 C42.4874005,41.7021207 42.0465792,43.4185785 40.8926644,44.7839426 C40.8796991,45.0960258 40.8667337,45.3951055 40.8408031,45.6941853 C40.7500457,46.7474662 40.6592884,47.9307817 41.0612138,48.2038546 C42.0595445,48.7500002 42.5522272,48.9710592 43.6413153,49.2961458 C44.2377207,49.4781944 44.8081954,49.6732464 45.3786701,49.8813019 C46.4936888,50.2844094 47.8680143,50.7915446 48.8015183,51.7017874 C49.7868837,52.6510405 50.5388731,53.8473595 51.0445212,55.1347028 C51.5890652,56.4870635 51.8613372,57.9434518 51.8613372,59.3218194 C51.8613372,61.480395 49.5794384,62.8327557 46.4158968,63.6649776 C42.4614699,64.6922515 36.9512028,65.0173382 33.7098692,65.0173382 C30.4685356,65.0173382 24.9582685,64.6922515 21.0038416,63.6649776 C17.8403,62.8327557 15.5584012,61.480395 15.5584012,59.3218194 C15.5584012,57.9434518 15.8306732,56.4870635 16.3752172,55.1347028 C16.8808653,53.8473595 17.6328547,52.6510405 18.6182201,51.7017874 C19.5387588,50.8045481 20.8741882,50.2974129 21.9632763,49.9073088 C22.5207857,49.6602429 23.1949831,49.4781944 23.7784231,49.2961458 C24.6211699,49.04908 25.3472286,48.828021 26.2418366,48.2688719 C26.2677673,48.2558684 26.293698,48.2298615 26.3196286,48.216858 C26.7734153,47.9697921 26.6696927,46.630435 26.5789353,45.5251402 C26.56597,45.2650709 26.5400393,45.0310085 26.527074,44.796946 C25.3861246,43.4315819 24.9323379,41.6891173 24.4915165,39.985663 C23.7006311,39.400507 23.1431217,38.6333024 22.8189884,37.7750735 C22.455959,36.7998134 22.378167,35.6945187 22.5985777,34.6932517 C22.4429937,34.0170714 22.3133403,33.3278876 22.2096177,32.6517073 C21.8984496,30.4671247 21.9243803,28.2175248 22.6374737,26.3190185 C23.4153938,24.2774741 24.9193725,22.691051 27.5383701,22.0408777 C27.7069194,22.0018673 27.8884341,21.9628569 28.0569834,21.9238464 C29.6517196,20.5974927 32.2577518,20.0383436 34.8767493,20.2073887 C39.907299,20.5194719 43.9524833,23.1591759 45.0415714,28.2305283 C45.4564621,30.0900241 45.3916354,32.2225928 44.8211607,34.6802482 C45.0415714,35.6945187 44.9767447,36.7998134 44.60075,37.7750735 C44.2766167,38.6333024 43.7320726,39.400507 42.9282219,40.0246734 Z M26.7085887,12.3142839 C26.6178313,12.5093359 26.56597,12.7043879 26.527074,12.9254468 C25.8528766,12.1192318 25.0490259,11.4170446 24.1673832,10.8578955 C24.1544178,10.64984 24.1544178,10.4287811 24.1544178,10.2207256 C24.1544178,8.30921583 24.6989619,6.09862633 25.8917726,4.22612698 C27.1234794,2.30161377 29.0164182,0.728194188 31.7002424,0.195052015 C32.3225784,0.0650173382 32.9967758,0 33.7098692,0 C34.4229626,0 35.09716,0.0650173382 35.719496,0.195052015 C38.4033202,0.728194188 40.296259,2.30161377 41.5279658,4.22612698 C42.7207765,6.09862633 43.2653206,8.30921583 43.2653206,10.2207256 C43.2653206,10.4807949 43.2653206,10.7538677 43.2393899,11.0009336 C42.9930486,11.1569752 42.7467072,11.3130169 42.5262965,11.4820619 C41.9298912,11.9111764 41.3853471,12.4053081 40.8926644,12.9384503 C40.8408031,12.5743532 40.7111497,12.3923047 40.6074271,12.0802214 C40.5944617,12.0152041 40.5685311,11.4170446 40.5685311,11.4170446 C40.6463231,11.0529475 40.6722537,10.64984 40.6722537,10.2207256 C40.6722537,8.75133373 40.257363,7.06088293 39.3497896,5.63050149 C38.4681469,4.25213392 37.1197521,3.12083223 35.213848,2.74373167 C34.7470959,2.6527074 34.2544132,2.60069353 33.7098692,2.60069353 C33.1653252,2.60069353 32.6726425,2.6527074 32.2058904,2.74373167 C30.2999863,3.12083223 28.9515915,4.25213392 28.0699488,5.63050149 C27.1623754,7.06088293 26.7474847,8.75133373 26.7474847,10.2207256 C26.7474847,10.64984 26.7734153,11.0529475 26.8512074,11.4170446 C26.916034,11.7421313 26.8512074,12.0542145 26.7085887,12.3142839 Z M12.3300329,37.8791013 C11.9670036,38.39924 11.5002515,38.7763405 10.8908808,39.1274341 C9.81475807,39.790611 9.03683801,40.0246734 8.11629928,40.2977462 C7.63658191,40.4407844 7.18279521,40.6228329 6.70307784,40.7658711 C5.95108845,41.0389439 5.00461904,41.3900375 4.55083234,41.8191519 C3.94146163,42.4303149 3.46174426,43.184516 3.1376109,44.016738 C2.77458154,44.9139772 2.59306686,45.8892373 2.59306686,46.8124835 C2.59306686,47.3326222 3.85070429,47.8397575 5.57509375,48.2948788 C8.82939266,49.1401042 13.458017,49.4001736 16.2066679,49.4001736 C16.5437666,49.4001736 16.9197613,49.4001736 17.3216866,49.3871701 C17.1531373,49.5302083 16.9845879,49.6862499 16.8160386,49.8422915 C16.1548065,50.4794614 15.5713665,51.2076556 15.0786838,51.9878636 C12.1744489,51.9228463 8.02554194,51.6107631 4.92682704,50.8045481 C2.07445349,50.050347 0,48.8150175 0,46.8124835 C0,45.5771541 0.246341352,44.2768073 0.726058721,43.0544814 C1.19281076,41.8971728 1.86700814,40.8308884 2.74865087,39.9726595 C3.60436294,39.1404376 4.8360697,38.6853162 5.8214351,38.3212192 C6.34004848,38.1261671 6.85866185,37.9701255 7.37727522,37.8140839 C8.07740327,37.593025 8.67380865,37.4239799 9.39986737,36.981862 C7.39024056,36.8258204 5.2898564,36.2406643 3.95442696,34.2251268 L3.44877893,33.4709257 L3.99332297,32.7297281 C4.73234702,31.7414645 5.22502973,29.9599895 5.54916308,28.0224728 C6.06777646,24.9016405 6.09370713,21.520739 5.97701912,20.1683783 C5.8214351,18.5039345 6.34004848,16.7614698 7.29948322,15.3310884 C8.842358,13.0164711 11.2668755,11.7941452 14.0414571,12.0802214 C14.7675158,12.1582422 15.4935745,12.3532943 16.2066679,12.652374 C16.9197613,12.3532943 17.64582,12.1582422 18.3718787,12.0802214 C21.1464603,11.7941452 23.5580124,13.0164711 25.1138526,15.3310884 C25.9695646,16.6184317 26.4752127,18.1398374 26.4622473,19.6482396 C25.4639166,19.9343159 24.5822738,20.3374234 23.8173191,20.8185517 C23.8302845,20.4804615 23.8432498,20.1813818 23.8691805,19.9343159 C23.9599378,18.881035 23.6098738,17.7367299 22.9616071,16.7744733 C21.9632763,15.266071 20.4592975,14.4728595 18.6571161,14.6679115 C18.0218147,14.7329288 17.3865133,14.9279809 16.7901079,15.2270606 L16.2066679,15.5131369 L15.6232278,15.2270606 C15.0138571,14.9149774 14.3915211,14.7329288 13.7562197,14.6679115 C11.9540382,14.4728595 10.4500595,15.266071 9.45172871,16.7744733 C8.803462,17.7367299 8.45339797,18.881035 8.54415531,19.9343159 C8.68677399,21.4297147 8.66084332,25.109696 8.10333394,28.4515872 C7.80513125,30.2850761 7.32541388,32.0405443 6.62528583,33.3799014 C7.89588859,34.4461858 10.0610994,34.4461858 11.7336275,34.4461858 L13.185745,34.4461858 C13.0560916,35.6164979 13.030161,36.8778342 12.3300329,37.8791013 Z M57.825391,36.8648308 C58.6292417,37.3329556 59.1608205,37.5540146 60.0424632,37.8140839 C60.5740419,37.9701255 61.0796899,38.1391706 61.5983033,38.3342226 C62.5836687,38.6983197 63.8153755,39.1404376 64.6710875,39.9726595 C65.5527303,40.8308884 66.2269277,41.9101762 66.6936797,43.0674848 C67.1733971,44.2898108 67.4197384,45.5901576 67.4197384,46.825487 C67.4197384,48.8150175 65.3452849,50.0633504 62.4929114,50.8045481 C59.4071618,51.6107631 55.2582548,51.9358498 52.3410546,52.0008671 C51.8483719,51.2206591 51.2649319,50.4794614 50.6036998,49.8422915 C50.4481158,49.6862499 50.2795665,49.5432117 50.1110171,49.4001736 C50.4999771,49.4131771 50.8759718,49.4131771 51.2130705,49.4131771 C53.9617214,49.4131771 58.5903457,49.1531077 61.8446447,48.2948788 C63.5690341,47.8527609 64.8266715,47.3456257 64.8266715,46.825487 C64.8266715,45.8892373 64.6451569,44.9139772 64.2821275,44.016738 C63.9579941,43.1975195 63.4782768,42.4303149 62.8689061,41.8321554 C62.4151194,41.3900375 61.46865,41.0519474 60.7166606,40.7658711 C60.2499085,40.596826 59.7831565,40.4537878 59.3034391,40.3107497 C58.3829004,40.0246734 57.6049803,39.790611 56.5288576,39.1274341 C55.4786655,38.5292746 54.9470868,37.4499868 54.6748148,36.2926782 C54.4544041,35.3434251 54.4155081,34.3161511 54.3895774,33.5489465 C54.3895774,33.171846 54.5321961,32.8337558 54.7785375,32.5866899 C55.2063935,32.170579 55.6342495,31.4943986 56.0232095,30.727194 C56.5288576,29.725927 56.930783,28.6596427 57.1382283,27.8534277 C57.241951,27.4633237 57.514223,27.1642439 57.864287,27.0082023 C58.1884204,26.8261538 58.4347617,26.5140705 58.5644151,26.1499734 C58.7459298,25.6818486 58.7718604,25.135703 58.6292417,24.6545747 C58.5773804,24.498533 58.5644151,24.3554949 58.5773804,24.2124568 L58.8755831,19.5832223 C58.9144791,18.8940385 58.8107564,18.3869033 58.5125537,17.7627368 C58.175455,17.09956 57.669807,16.488397 57.0604363,16.0202721 C56.4899616,15.5781542 55.8287295,15.2790745 55.1804628,15.2140571 C54.7266761,15.1750467 54.2599241,15.2400641 53.8320681,15.461123 C53.404212,15.6691785 52.9244946,15.6171646 52.5614653,15.3831022 C52.1854706,15.1490398 51.8872679,14.9669913 51.6020305,14.8369566 C51.3297585,14.7199254 51.0315558,14.6289011 50.6296305,14.5638838 C50.2017744,14.4988664 49.7739184,14.459856 49.3460624,14.4728595 C47.9587716,14.4988664 46.6103768,14.9279809 45.5601848,15.6951854 C44.561854,16.4233796 43.82283,17.463657 43.6153846,18.7510003 C43.5764886,19.0370766 43.5505579,19.3231529 43.5505579,19.6222327 L43.6283499,20.8445586 C42.8633952,20.1683783 41.9687872,19.5832223 40.9834218,19.1150974 C40.9963871,18.8550281 41.0223178,18.5949587 41.0612138,18.3348894 C41.3983124,16.3063484 42.5133312,14.6939184 44.0432406,13.5886237 C45.5212888,12.5093359 47.3882969,11.9241798 49.3071664,11.8851694 C49.8906064,11.872166 50.4740465,11.9111764 51.0445212,12.0022006 C51.6927879,12.1062284 52.1854706,12.26227 52.6392573,12.457322 C52.898564,12.5743532 53.1449053,12.7043879 53.3912467,12.847426 C54.0654441,12.6393706 54.7396415,12.5743532 55.4138388,12.6393706 C56.5807189,12.7433983 57.6957377,13.2375301 58.6422071,13.9527208 C59.5497805,14.654908 60.3277005,15.5911577 60.8203832,16.6314351 C61.3001006,17.5936917 61.546442,18.6469726 61.4556846,19.713257 L61.1704473,24.1734464 C61.390858,25.109696 61.3389966,26.1499734 60.9889326,27.0732196 C60.6907299,27.8404242 60.1980472,28.5426115 59.4979191,29.0367433 C59.2256471,29.9079756 58.8107564,30.948253 58.3310391,31.9105096 C57.942079,32.6777142 57.4882923,33.4059084 56.9956096,34.0040679 C57.0215403,34.5372101 57.0734016,35.148373 57.203055,35.7075222 C57.319743,36.2406643 57.514223,36.6957857 57.825391,36.8648308 Z" id="curve28"></path>
                    </g>
                    <ellipse id="Orange" fill="#F2801B" cx="249.409814" cy="289.529431" rx="51.3859416" ry="51.5370768"></ellipse>
                    <g id="briefcase" transform="translate(225.596817, 263.970393)" fill="#FFFFFF" fill-rule="nonzero">
                        <path d="M14.1346154,6.07550905 L14.1346154,1.01258484 C14.1346154,0.455663179 14.5889423,0 15.1442308,0 L33.3173077,0 C33.8725962,0 34.3269231,0.455663179 34.3269231,1.01258484 L34.3269231,6.07550905 L32.3076923,6.07550905 L32.3076923,2.02516968 L16.1538462,2.02516968 L16.1538462,6.07550905 L14.1346154,6.07550905 Z M33.3173077,24.3020362 L39.375,24.3020362 C39.9302885,24.3020362 40.3846154,24.7576994 40.3846154,25.314621 L40.3846154,33.4152998 C40.3846154,33.9722214 39.9302885,34.4278846 39.375,34.4278846 L33.3173077,34.4278846 C32.7620192,34.4278846 32.3076923,33.9722214 32.3076923,33.4152998 L32.3076923,25.314621 C32.3076923,24.7576994 32.7620192,24.3020362 33.3173077,24.3020362 Z M38.3653846,26.3272059 L34.3269231,26.3272059 L34.3269231,32.4027149 L38.3653846,32.4027149 L38.3653846,26.3272059 Z M9.08653846,24.3020362 L15.1442308,24.3020362 C15.6995192,24.3020362 16.1538462,24.7576994 16.1538462,25.314621 L16.1538462,33.4152998 C16.1538462,33.9722214 15.6995192,34.4278846 15.1442308,34.4278846 L9.08653846,34.4278846 C8.53125,34.4278846 8.07692308,33.9722214 8.07692308,33.4152998 L8.07692308,25.314621 C8.07692308,24.7576994 8.53125,24.3020362 9.08653846,24.3020362 Z M14.1346154,26.3272059 L10.0961538,26.3272059 L10.0961538,32.4027149 L14.1346154,32.4027149 L14.1346154,26.3272059 Z M41.3942308,26.3272059 L43.4134615,26.3272059 C44.2514423,26.3272059 45.0086538,25.982927 45.5538462,25.4361312 C46.0990385,24.8893354 46.4423077,24.1298968 46.4423077,23.2894514 L46.4423077,11.1384333 C46.4423077,10.8549095 46.33125,10.6017633 46.1495192,10.419498 C45.9677885,10.2372327 45.7153846,10.1258484 45.4326923,10.1258484 L3.02884615,10.1258484 C2.74615385,10.1258484 2.49375,10.2372327 2.31201923,10.419498 C2.13028846,10.6017633 2.01923077,10.8549095 2.01923077,11.1384333 L2.01923077,23.2894514 C2.01923077,24.1298968 2.3625,24.8893354 2.90769231,25.4361312 C3.45288462,25.982927 4.21009615,26.3272059 5.04807692,26.3272059 L7.06730769,26.3272059 L7.06730769,28.3523756 L5.04807692,28.3523756 C3.65480769,28.3523756 2.39278846,27.7853281 1.48413462,26.8638758 C0.565384615,25.9525495 0,24.6868184 0,23.2894514 L0,11.1384333 C0,10.3081137 0.343269231,9.54867506 0.888461538,8.99175339 C1.44375,8.44495758 2.20096154,8.10067873 3.02884615,8.10067873 L45.4326923,8.10067873 C46.2605769,8.10067873 47.0177885,8.44495758 47.5730769,8.99175339 C48.1182692,9.54867506 48.4615385,10.3081137 48.4615385,11.1384333 L48.4615385,23.2894514 C48.4615385,24.6868184 47.8961538,25.9525495 46.9774038,26.8638758 C46.06875,27.7853281 44.8067308,28.3523756 43.4134615,28.3523756 L41.3942308,28.3523756 L41.3942308,26.3272059 Z M31.2980769,28.3523756 L17.1634615,28.3523756 L17.1634615,26.3272059 L31.2980769,26.3272059 L31.2980769,28.3523756 Z M48.4615385,28.2409912 L48.4615385,43.5411482 C48.4615385,44.3815936 48.1182692,45.1410322 47.5730769,45.6878281 C47.0278846,46.2346239 46.2706731,46.5789027 45.4326923,46.5789027 L3.02884615,46.5789027 C2.20096154,46.5789027 1.44375,46.2346239 0.888461538,45.6878281 L0.888461538,45.6777022 C0.333173077,45.1309064 0,44.3714678 0,43.5411482 L0,28.2409912 L0.0504807692,28.3017463 C0.625961538,28.8687938 1.28221154,29.3447087 2.01923077,29.6889876 L2.01923077,43.5411482 C2.01923077,43.8246719 2.13028846,44.0778182 2.31201923,44.2600834 C2.49375,44.4423487 2.74615385,44.553733 3.02884615,44.553733 L45.4326923,44.553733 C45.7052885,44.553733 45.9576923,44.4423487 46.1495192,44.2600834 C46.33125,44.0676923 46.4423077,43.8145461 46.4423077,43.5411482 L46.4423077,29.6889876 C47.1793269,29.3447087 47.8355769,28.8687938 48.4110577,28.3017463 L48.4615385,28.2409912 Z" id="curve28"></path>
                    </g>
                    <ellipse id="Green" fill="#82C31F" cx="182.984085" cy="159.220237" rx="86.061008" ry="86.3141286"></ellipse>
                    <g id="shopping_cart2" transform="translate(148.726790, 119.834178)" fill="#FFFFFF" fill-rule="nonzero">
                        <path d="M52.6455909,47.1853716 L18.9442579,47.1853716 C16.9526017,47.1853716 15.0864041,46.5719618 13.5495355,45.5024267 C11.9969845,44.4171632 10.8051272,42.8600459 10.1151046,40.972631 L0.203870325,13.6523009 C-0.533199312,11.6076014 0.972304628,9.43707433 3.15214887,9.43707433 L62.0079435,9.43707433 L63.4036711,4.56125259 C64.1721054,1.84022949 66.602867,0 69.4256869,0 L79.9955791,0 L79.9955791,3.14569144 L69.4256869,3.14569144 C67.9985946,3.14569144 66.8067373,4.0422135 66.414679,5.42631774 L55.0763525,45.203586 L61.5531559,52.4229479 C65.1757747,56.4494329 62.3372725,62.9138289 56.8798207,62.9138289 L53.3356135,62.9138289 C57.6639374,62.9138289 61.1767799,66.4370033 61.1767799,70.7780575 C61.1767799,75.1191117 57.6639374,78.6422861 53.3356135,78.6422861 C49.0072897,78.6422861 45.4944472,75.1191117 45.4944472,70.7780575 C45.4944472,66.4370033 49.0072897,62.9138289 53.3356135,62.9138289 L12.5929132,62.9138289 C16.9055547,62.9295573 20.4027149,66.4527317 20.4027149,70.7780575 C20.4027149,75.1191117 16.8898723,78.6422861 12.5615485,78.6422861 C8.23322467,78.6422861 4.72038214,75.1191117 4.72038214,70.7780575 C4.72038214,66.4527317 8.21754234,62.9295573 12.5301838,62.9138289 L4.72038214,62.9138289 L4.72038214,59.7681374 L56.8798207,59.7681374 C59.6555936,59.7681374 61.0199566,56.5280752 59.2164883,54.5148327 L52.6455909,47.1853716 Z M14.1297818,12.5827658 L14.1297818,22.0198401 L23.5391814,22.0198401 L23.5391814,12.5827658 L14.1297818,12.5827658 Z M14.1297818,25.1655315 L14.1297818,34.6026059 L23.5391814,34.6026059 L23.5391814,25.1655315 L14.1297818,25.1655315 Z M14.1297818,37.7482973 L14.1297818,41.8062393 C14.4747931,42.2466361 14.8825337,42.6083906 15.3373214,42.9229597 C16.3409907,43.6464688 17.5955773,44.0396802 18.9442579,44.0396802 L23.5391814,44.0396802 L23.5391814,37.7482973 L14.1297818,37.7482973 Z M10.9933152,34.2251229 L10.9933152,25.1655315 L7.70002536,25.1655315 L10.9933152,34.2251229 Z M10.9933152,22.0198401 L10.9933152,12.5827658 L3.15208877,12.5827658 C3.13646654,12.5827658 6.19452142,20.9974904 6.5708974,22.0198401 L10.9933152,22.0198401 Z M26.6756479,12.5827658 L26.6756479,22.0198401 L36.0850476,22.0198401 L36.0850476,12.5827658 L26.6756479,12.5827658 Z M26.6756479,25.1655315 L26.6756479,34.6026059 L36.0850476,34.6026059 L36.0850476,25.1655315 L26.6756479,25.1655315 Z M26.6756479,37.7482973 L26.6756479,44.0396802 L36.0850476,44.0396802 L36.0850476,37.7482973 L26.6756479,37.7482973 Z M39.2215141,12.5827658 L39.2215141,22.0198401 L48.6309137,22.0198401 L48.6309137,12.5827658 L39.2215141,12.5827658 Z M39.2215141,25.1655315 L39.2215141,34.6026059 L48.6309137,34.6026059 L48.6309137,25.1655315 L39.2215141,25.1655315 Z M39.2215141,37.7482973 L39.2215141,44.0396802 L48.6309137,44.0396802 L48.6309137,37.7482973 L39.2215141,37.7482973 Z M51.7673803,22.0198401 L58.4323717,22.0198401 L61.1140506,12.5827658 L51.7673803,12.5827658 L51.7673803,22.0198401 Z M57.5384787,25.1655315 L51.7673803,25.1655315 L51.7673803,34.6026059 L54.7783881,34.6026059 L54.7783881,34.8228043 L57.5384787,25.1655315 Z M53.9472245,37.7482973 L51.7673803,37.7482973 L51.7673803,44.0396802 L52.1594386,44.0396802 L53.9472245,37.7482973 Z M12.5615485,66.0595203 C9.95828127,66.0595203 7.85684869,68.1671336 7.85684869,70.7780575 C7.85684869,73.3889814 9.95828127,75.4965946 12.5615485,75.4965946 C15.1648157,75.4965946 17.2662483,73.3889814 17.2662483,70.7780575 C17.2662483,68.1671336 15.1648157,66.0595203 12.5615485,66.0595203 Z M53.3356135,66.0595203 C50.7323463,66.0595203 48.6309137,68.1671336 48.6309137,70.7780575 C48.6309137,73.3889814 50.7323463,75.4965946 53.3356135,75.4965946 C55.9388808,75.4965946 58.0403133,73.3889814 58.0403133,70.7780575 C58.0403133,68.1671336 55.9388808,66.0595203 53.3356135,66.0595203 Z" id="curve29"></path>
                    </g>
                    <ellipse id="Red" fill="#FF446C" cx="277.400531" cy="42.7380637" rx="36.7639257" ry="36.8720549"></ellipse>
                    <g id="office" transform="translate(259.018568, 24.302036)" fill="#FFFFFF" fill-rule="nonzero">
                        <path d="M36.7479694,13.3370084 L28.0318052,13.3370084 L27.6393325,11.7625004 L30.5681489,11.7625004 C31.764775,11.7625004 32.7382918,10.7861203 32.7382918,9.58597476 L32.7382918,2.17652567 C32.7382918,0.976380154 31.764775,0 30.5681489,0 L20.7412934,0 C19.5446674,0 18.5711505,0.976380154 18.5711505,2.17652567 L18.5711505,9.58597476 C18.5711505,10.7861203 19.5446674,11.7625004 20.7412934,11.7625004 L22.9100833,11.7625004 L22.5176106,13.3370084 L18.3769547,13.3370084 L14.036669,13.3370084 L13.1365805,13.3370084 L13.1365805,11.0678646 C13.1365805,10.6842404 12.826481,10.3732287 12.4439817,10.3732287 L11.6590364,10.3732287 L11.6590364,8.7987208 L12.4439817,8.7987208 C12.826481,8.7987208 13.1365805,8.48770917 13.1365805,8.10408494 L13.1365805,5.14030531 C13.1365805,4.75668108 12.826481,4.44566945 12.4439817,4.44566945 L5.05626125,4.44566945 C4.67376202,4.44566945 4.36366245,4.75668108 4.36366245,5.14030531 L4.36366245,7.40944909 L3.57871715,7.40944909 C3.19621792,7.40944909 2.88611835,7.72046072 2.88611835,8.10408494 L2.88611835,11.0678646 L2.88611835,13.3370084 L0.692598797,13.3370084 C0.310099568,13.3370084 0,13.64802 0,14.0316442 L0,16.9954239 C0,17.3790481 0.310099568,17.6900597 0.692598797,17.6900597 L1.4775441,17.6900597 L1.4775441,30.6076569 C1.4775441,30.9912811 1.78764367,31.3022927 2.1701429,31.3022927 C2.55264213,31.3022927 2.86274169,30.9912811 2.86274169,30.6076569 L2.86274169,17.6900597 L34.5778265,17.6900597 L34.5778265,30.6076569 C34.5778265,30.9912811 34.8879261,31.3022927 35.2704253,31.3022927 C35.6529245,31.3022927 35.9630241,30.9912811 35.9630241,30.6076569 L35.9630241,17.6900597 L36.7479694,17.6900597 C37.1304686,17.6900597 37.4405682,17.3790481 37.4405682,16.9954239 L37.4405682,14.0316442 C37.4405682,13.64802 37.1304686,13.3370084 36.7479694,13.3370084 Z M20.0355095,2.17652567 C20.0355095,1.74242457 20.3338352,1.3892717 20.7005418,1.3892717 L30.7151448,1.3892717 C31.0818514,1.3892717 31.380177,1.74242457 31.380177,2.17652567 L31.380177,7.40944909 L20.0355095,7.40944909 L20.0355095,2.17652567 Z M20.7005418,10.3732287 C20.3338352,10.3732287 20.0355095,10.0200759 20.0355095,9.58597476 L20.0355095,8.7987208 L31.380177,8.7987208 L31.380177,9.58597476 C31.380177,10.0200759 31.0818514,10.3732287 30.7151448,10.3732287 L20.7005418,10.3732287 Z M26.7634257,13.3370084 L23.7807288,13.3370084 L24.2210519,11.7625004 L26.3231026,11.7625004 L26.7634257,13.3370084 Z M5.63681923,5.83494116 L11.9634755,5.83494116 L11.9634755,7.40944909 L11.1361435,7.40944909 L5.63681923,7.40944909 L5.63681923,5.83494116 Z M4.15927513,8.7987208 L4.9866071,8.7987208 L10.4859314,8.7987208 L10.4859314,10.3732287 L4.15927513,10.3732287 L4.15927513,8.7987208 Z M4.15927513,11.7625004 L11.1445162,11.7625004 L11.9634755,11.7625004 L11.9634755,13.3370084 L4.15927513,13.3370084 L4.15927513,11.7625004 Z M35.9788027,16.300788 L1.38519759,16.300788 L1.38519759,14.7262801 L35.9788027,14.7262801 L35.9788027,16.300788 Z" id="Shape"></path>
                    </g>
                    <ellipse id="Blue" fill="#26AFDF" cx="87.3143236" cy="85.8951279" rx="53.8925729" ry="54.0510805"></ellipse>
                    <g id="robot" transform="translate(68.514589, 58.660087)" fill="#FFFFFF" fill-rule="nonzero" stroke="#26AFDF" stroke-width="0.5">
                        <path d="M22.9774536,49.2325733 L26.1107427,49.2325733 L26.1107427,37.7100562 L22.9774536,37.7100562 L22.9774536,49.2325733 Z M15.6664456,52.375078 L15.6664456,51.3275765 C13.922248,51.3275765 12.1884947,51.3275765 10.4442971,51.3275765 L10.4442971,52.375078 L15.6664456,52.375078 Z M14.6220159,49.2325733 L14.6220159,37.7100562 L11.4887268,37.7100562 L11.4887268,49.2325733 L14.6220159,49.2325733 Z M17.755305,51.3275765 L17.755305,54.4700811 L8.35543767,54.4700811 L8.35543767,51.3275765 C8.35543767,50.5629003 8.76276525,49.8924993 9.39986737,49.5153988 L9.39986737,36.913955 C8.74187666,36.3168791 8.35543767,35.4684028 8.35543767,34.5675515 L8.35543767,23.0450343 L7.31100796,23.0450343 L7.31100796,37.7100562 L6.50679708,37.7100562 C7.00812334,38.265232 7.31100796,38.9984831 7.31100796,39.8050593 L7.31100796,41.9000624 L5.22214854,41.9000624 L5.22214854,39.8050593 C5.22214854,39.2289334 4.75215517,38.7575577 4.17771883,38.7575577 L3.13328912,38.7575577 C2.55885279,38.7575577 2.08885942,39.2289334 2.08885942,39.8050593 L2.08885942,41.9000624 L0,41.9000624 L0,39.8050593 C0,38.9984831 0.302884615,38.265232 0.804210875,37.7100562 L0,37.7100562 L0,21.9975328 C0,20.2691552 1.40998011,18.8550281 3.13328912,18.8550281 L7.31100796,18.8550281 L7.31100796,20.9500312 L8.35543767,20.9500312 L8.35543767,19.9025296 C8.35543767,18.1741521 9.76541777,16.760025 11.4887268,16.760025 L16.7108753,16.760025 L16.7108753,15.7125234 L12.5331565,15.7125234 C11.3842838,15.7125234 10.4442971,14.769772 10.4442971,13.6175203 L10.4442971,10.4750156 L8.35543767,10.4750156 L8.35543767,4.19000624 L10.4442971,4.19000624 L10.4442971,2.09500312 C10.4442971,0.942751404 11.3842838,0 12.5331565,0 L25.066313,0 C26.2151857,0 27.1551724,0.942751404 27.1551724,2.09500312 L27.1551724,4.19000624 L29.2440318,4.19000624 L29.2440318,10.4750156 L27.1551724,10.4750156 L27.1551724,13.6175203 C27.1551724,14.769772 26.2151857,15.7125234 25.066313,15.7125234 L20.8885942,15.7125234 L20.8885942,16.760025 L26.1107427,16.760025 C27.8340517,16.760025 29.2440318,18.1741521 29.2440318,19.9025296 L29.2440318,20.9500312 L30.2884615,20.9500312 L30.2884615,18.8550281 L34.4661804,18.8550281 C36.1894894,18.8550281 37.5994695,20.2691552 37.5994695,21.9975328 L37.5994695,37.7100562 L36.7952586,37.7100562 C37.2965849,38.265232 37.5994695,38.9984831 37.5994695,39.8050593 L37.5994695,41.9000624 L35.5106101,41.9000624 L35.5106101,39.8050593 C35.5106101,39.2289334 35.0406167,38.7575577 34.4661804,38.7575577 L33.4217507,38.7575577 C32.8473143,38.7575577 32.377321,39.2289334 32.377321,39.8050593 L32.377321,41.9000624 L30.2884615,41.9000624 L30.2884615,39.8050593 C30.2884615,38.9984831 30.5913462,38.265232 31.0926724,37.7100562 L30.2884615,37.7100562 L30.2884615,23.0450343 L29.2440318,23.0450343 L29.2440318,34.5675515 C29.2440318,35.4684028 28.8575928,36.3064041 28.1996021,36.90348 L28.1996021,49.5153988 C28.8367042,49.8924993 29.2440318,50.5733753 29.2440318,51.3275765 L29.2440318,54.4700811 L19.8441645,54.4700811 L19.8441645,51.3275765 C19.8441645,50.5733753 20.251492,49.8924993 20.8885942,49.5153988 L20.8885942,37.7100562 L16.7108753,37.7100562 L16.7108753,49.5153988 C17.3479775,49.8924993 17.755305,50.5733753 17.755305,51.3275765 Z M21.9330239,51.3275765 L21.9330239,52.375078 L27.1551724,52.375078 L27.1551724,51.3275765 C25.4109748,51.3275765 23.6772215,51.3275765 21.9330239,51.3275765 Z M25.066313,2.09500312 L12.5331565,2.09500312 L12.5331565,6.28500936 L10.4442971,6.28500936 L10.4442971,8.38001248 L12.5331565,8.38001248 L12.5331565,13.6175203 L25.066313,13.6175203 C25.066313,11.8681927 25.066313,10.1293401 25.066313,8.38001248 L27.1551724,8.38001248 L27.1551724,6.28500936 L25.066313,6.28500936 L25.066313,2.09500312 Z M26.1107427,18.8550281 L11.4887268,18.8550281 C10.9142905,18.8550281 10.4442971,19.3264038 10.4442971,19.9025296 L10.4442971,34.5675515 C10.4442971,35.1436773 10.9142905,35.6150531 11.4887268,35.6150531 L26.1107427,35.6150531 C26.685179,35.6150531 27.1551724,35.1436773 27.1551724,34.5675515 L27.1551724,19.9025296 C27.1551724,19.3264038 26.685179,18.8550281 26.1107427,18.8550281 Z M15.7395557,4.17953123 C16.8884284,4.17953123 17.8284151,5.11180761 17.8284151,6.27453435 C17.8284151,7.42678606 16.8884284,8.36953747 15.7395557,8.36953747 C14.5802387,8.36953747 13.6506963,7.42678606 13.6506963,6.27453435 C13.6506963,5.11180761 14.5802387,4.17953123 15.7395557,4.17953123 Z M22.006134,4.17953123 C23.1550066,4.17953123 24.0949934,5.11180761 24.0949934,6.27453435 C24.0949934,7.42678606 23.1550066,8.36953747 22.006134,8.36953747 C20.846817,8.36953747 19.9172745,7.42678606 19.9172745,6.27453435 C19.9172745,5.11180761 20.846817,4.17953123 22.006134,4.17953123 Z M5.22214854,20.9500312 L3.13328912,20.9500312 C2.55885279,20.9500312 2.08885942,21.4214069 2.08885942,21.9975328 L2.08885942,35.6150531 L5.22214854,35.6150531 L5.22214854,20.9500312 Z M34.4661804,20.9500312 L32.377321,20.9500312 L32.377321,35.6150531 L35.5106101,35.6150531 L35.5106101,21.9975328 C35.5106101,21.4214069 35.0406167,20.9500312 34.4661804,20.9500312 Z" id="curve28"></path>
                    </g>
                    <ellipse id="Oval-5" fill="#F1F1F1" cx="210.557029" cy="43.5760649" rx="12.5331565" ry="12.5700187"></ellipse>
                    <ellipse id="Oval-5-Copy" fill="#F1F1F1" cx="296.618037" cy="198.606296" rx="18.3819629" ry="18.4360275"></ellipse>
                    <ellipse id="Oval-5-Copy-2" fill="#F1F1F1" cx="13.7864721" cy="140.365209" rx="6.26657825" ry="6.28500936"></ellipse>
                    <ellipse id="Oval-5-Copy-3" fill="#F1F1F1" cx="134.940318" cy="6.28500936" rx="6.26657825" ry="6.28500936"></ellipse>
                    <ellipse id="Oval-5-Copy-4" fill="#F1F1F1" cx="138.700265" cy="307.546458" rx="11.6976127" ry="11.7320175"></ellipse>
                </g>
            </g>
        </g>
    </g>
</svg>