<?xml version="1.0" encoding="UTF-8"?>
<svg width="175px" height="152px" viewBox="0 0 175 152" version="1.1" xmlns="http://www.w3.org/2000/svg" xmlns:xlink="http://www.w3.org/1999/xlink">
    <!-- Generator: Sketch 48.2 (47327) - http://www.bohemiancoding.com/sketch -->
    <title>img-grad</title>
    <desc>Created with Sketch.</desc>
    <defs>
        <path d="M0.305520408,0.721658824 L0.305520408,54.5213647 C24.2223673,73.2877412 54.6631633,73.2877412 78.5792041,54.5213647 L78.5792041,0.721658824 L0.305520408,0.721658824 Z" id="path-1"></path>
        <path d="M1.80727273,3.08185714 C1.18521591,3.08185714 0.563965909,3.706 0.563965909,4.32933333 C0.563965909,4.95266667 1.18521591,5.57680952 1.80727273,5.57680952 L65.2280227,3.08185714 C65.5378409,3.39271429 67.7138295,3.706 67.7138295,5.57680952 L67.7138295,32.4028095 C67.7138295,33.0261429 68.3358864,33.6502857 68.9571364,33.6502857 C69.58,33.6502857 70.2020568,33.0261429 70.2020568,32.4028095 L70.2020568,5.57680952 C70.2020568,2.14604762 67.0925795,0.898571429 65.5378409,0.586095238 L1.80727273,3.08185714 Z" id="path-3"></path>
        <path d="M3.84463636,0.5056 C3.52963636,0.5056 2.89881818,0.8136 2.89881818,1.4312 L0.377181818,25.1656 C0.0605454545,28.556 1.953,31.3304 4.78963636,31.3304 C7.31127273,31.3312 9.20372727,28.556 8.88790909,25.1656 L6.36627273,1.4312 C6.36627273,0.8136 6.05045455,0.5056 5.42045455,0.5056 L3.84463636,0.5056 Z" id="path-5"></path>
        <path d="M0.331714286,3.0615 C0.331714286,4.33875 1.51371429,5.373 2.97257143,5.373 C4.43314286,5.373 5.616,4.33875 5.616,3.0615 C5.616,1.78425 4.43314286,0.74925 2.97257143,0.74925 C1.51371429,0.74925 0.331714286,1.78425 0.331714286,3.0615 Z" id="path-7"></path>
        <path d="M0.696478873,10.4116462 C39.3915493,10.4116462 93.3759507,52.5115846 93.3759507,52.5115846 C108.0425,51.569 114.59588,41.5153077 114.59588,41.5153077 L73.7166197,17.6375846 L10.0584507,0.357953846 C1.6318662,3.49963077 0.696478873,10.4116462 0.696478873,10.4116462 Z" id="path-9"></path>
        <path d="M3.02392683,13.4232593 C-1.93895122,24.4126667 0.232609756,37.2851111 7.67612195,41.9947407 C15.1196341,47.0180741 25.3536585,41.9947407 30.3157317,31.0061481 C35.2778049,20.0167407 33.1062439,7.14511111 25.6643415,2.43548148 C23.6972195,1.10814815 21.5369268,0.48237037 19.3291463,0.48237037 C13.1814878,0.483185185 6.67485366,5.33866667 3.02392683,13.4232593 Z" id="path-11"></path>
        <path d="M23.4940278,0.7888 C23.3337222,0.7888 23.1693889,0.796 23.0026389,0.8128 C17.1051667,1.4288 0.0338333333,7.5944 0.0338333333,7.5944 L22.3823611,15.3008 C31.1419722,11.4024 29.3198056,0.7888 23.4948333,0.7888 C23.4940278,0.7888 23.4948333,0.7888 23.4940278,0.7888 Z" id="path-13"></path>
        <path d="M8.87958974,24.9696512 L19.3124103,32.182907 C18.9965128,32.182907 24.6867692,36.5733721 31.9589744,32.4962791 C31.9589744,32.4962791 14.8865641,34.6915116 18.0471795,17.4422093 C18.6806154,13.3651163 21.2094359,7.0927907 27.5323077,4.89674419 L0.0270769231,0.192093023 L8.87958974,24.9696512 Z" id="path-15"></path>
        <path d="M1.31697842,10.1060952 C-2.12830216,22.5840952 4.76307194,26.9506667 4.76307194,26.9506667 C44.5447626,28.8222857 88.0855324,58.7665714 99.988741,67.5005238 C93.0973669,61.8856667 91.8446115,50.3442857 96.5434604,40.050381 C99.988741,32.2530476 106.254957,27.574 112.519547,27.2623333 C60.2078633,26.6381905 11.9690576,0.748809524 11.9690576,0.748809524 C11.9690576,0.748809524 11.4796619,0.632238095 10.7016691,0.632238095 C8.3668777,0.632238095 3.43146043,1.68380952 1.31697842,10.1060952 Z" id="path-17"></path>
        <path d="M1.40154545,25.0624 L14.9571818,31.2272 C2.66154545,14.8896 26.9967273,3.348 26.9967273,3.348 L14.805,0.0984 C-4.11054545,8.112 1.40154545,25.0624 1.40154545,25.0624 Z" id="path-19"></path>
    </defs>
    <g id="dev-sample" stroke="none" stroke-width="1" fill="none" fill-rule="evenodd" transform="translate(-983.000000, -2385.000000)">
        <g id="PARTIAL---05" transform="translate(145.000000, 2368.000000)">
            <g id="grad" transform="translate(775.000000, 17.000000)">
                <g id="img-grad" transform="translate(63.000000, 0.000000)">
                    <g>
                        <path d="M161,76 C161,117.974113 126.973484,152 85.0004048,152 C43.0265155,152 9,117.974113 9,76 C9,34.0258871 43.0265155,0 85.0004048,0 C126.973484,0 161,34.0258871 161,76" id="Fill-1" fill="#82C31F"></path>
                        <g id="Group-5" transform="translate(62.000000, 38.000000)">
                            <mask id="mask-2" fill="white">
                                <use xlink:href="#path-1"></use>
                            </mask>
                            <g id="Clip-4"></g>
                            <polygon id="Fill-3" fill="#173B66" mask="url(#mask-2)" points="-4.76176531 73.6984941 83.6456837 73.6984941 83.6456837 -4.38109412 -4.76176531 -4.38109412"></polygon>
                        </g>
                        <polygon id="Fill-6" fill="#325C88" points="32 38.7207505 104.598538 68 170 36.8526534 101.46941 11"></polygon>
                        <g id="Group-9" transform="translate(101.000000, 33.000000)">
                            <mask id="mask-4" fill="white">
                                <use xlink:href="#path-3"></use>
                            </mask>
                            <g id="Clip-8"></g>
                            <polygon id="Fill-7" fill="#173B66" mask="url(#mask-4)" points="-4.50688636 38.7381429 75.2729091 38.7381429 75.2729091 -4.5017619 -4.50688636 -4.5017619"></polygon>
                        </g>
                        <g id="Group-12" transform="translate(166.000000, 60.000000)">
                            <mask id="mask-6" fill="white">
                                <use xlink:href="#path-5"></use>
                            </mask>
                            <g id="Clip-11"></g>
                            <polygon id="Fill-10" fill="#FF446C" mask="url(#mask-6)" points="-4.79945455 36.3584 14.0653636 36.3584 14.0653636 -4.5232 -4.79945455 -4.5232"></polygon>
                        </g>
                        <g id="Group-15" transform="translate(168.000000, 52.000000)">
                            <mask id="mask-8" fill="white">
                                <use xlink:href="#path-7"></use>
                            </mask>
                            <g id="Clip-14"></g>
                            <polygon id="Fill-13" fill="#FF446C" mask="url(#mask-8)" points="-5.05628571 10.08675 11.0022857 10.08675 11.0022857 -3.9645 -5.05628571 -3.9645"></polygon>
                        </g>
                        <polygon id="Fill-16" fill="#D23859" points="43 127.084719 47.9231384 122.813143 55 128 52.5388301 113.356295 45.7702136 110"></polygon>
                        <polygon id="Fill-17" fill="#D23859" points="23 109.770214 29.6159343 111.000799 27.0949943 115 46 110.076862 38.7528086 107"></polygon>
                        <g id="Group-20" transform="translate(4.000000, 89.000000)">
                            <mask id="mask-10" fill="white">
                                <use xlink:href="#path-9"></use>
                            </mask>
                            <g id="Clip-19"></g>
                            <polygon id="Fill-18" fill="#C1C5C5" mask="url(#mask-10)" points="-4.39348592 57.6362769 119.685845 57.6362769 119.685845 -4.76673846 -4.39348592 -4.76673846"></polygon>
                        </g>
                        <g id="Group-23" transform="translate(93.000000, 93.000000)">
                            <mask id="mask-12" fill="white">
                                <use xlink:href="#path-11"></use>
                            </mask>
                            <g id="Clip-22"></g>
                            <polygon id="Fill-21" fill="#E4E9E8" mask="url(#mask-12)" points="-4.70773171 49.068963 38.0473902 49.068963 38.0473902 -4.63874074 -4.70773171 -4.63874074"></polygon>
                        </g>
                        <g id="Group-26" transform="translate(86.000000, 106.000000)">
                            <mask id="mask-14" fill="white">
                                <use xlink:href="#path-13"></use>
                            </mask>
                            <g id="Clip-25"></g>
                            <polygon id="Fill-24" fill="#888B8B" mask="url(#mask-14)" points="-5.02908333 20.3288 33.4740556 20.3288 33.4740556 -4.24 -5.02908333 -4.24"></polygon>
                        </g>
                        <g id="Group-29" transform="translate(82.000000, 102.000000)">
                            <mask id="mask-16" fill="white">
                                <use xlink:href="#path-15"></use>
                            </mask>
                            <g id="Clip-28"></g>
                            <polygon id="Fill-27" fill="#B9B9BA" mask="url(#mask-16)" points="-5.12984615 39.3465116 37.1158974 39.3465116 37.1158974 -4.92360465 -5.12984615 -4.92360465"></polygon>
                        </g>
                        <g id="Group-32" transform="translate(0.000000, 66.000000)">
                            <mask id="mask-18" fill="white">
                                <use xlink:href="#path-17"></use>
                            </mask>
                            <g id="Clip-31"></g>
                            <polygon id="Fill-30" fill="#DFDFDE" mask="url(#mask-18)" points="-4.75656835 72.588381 117.628935 72.588381 117.628935 -4.45642857 -4.75656835 -4.45642857"></polygon>
                        </g>
                        <g id="Group-35" transform="translate(41.000000, 84.000000)">
                            <mask id="mask-20" fill="white">
                                <use xlink:href="#path-19"></use>
                            </mask>
                            <g id="Clip-34"></g>
                            <polygon id="Fill-33" fill="#FF446C" mask="url(#mask-20)" points="-4.53927273 36.2552 32.0800909 36.2552 32.0800909 -4.6264 -4.53927273 -4.6264"></polygon>
                        </g>
                    </g>
                </g>
            </g>
        </g>
    </g>
</svg>