<?xml version="1.0" encoding="UTF-8"?>
<svg width="614px" height="440px" viewBox="0 0 614 440" version="1.1" xmlns="http://www.w3.org/2000/svg" xmlns:xlink="http://www.w3.org/1999/xlink">
    <!-- Generator: Sketch 48.2 (47327) - http://www.bohemiancoding.com/sketch -->
    <title>jumping-students</title>
    <desc>Created with Sketch.</desc>
    <defs>
        <polygon id="path-1" points="0.426321046 0.797232432 30.332596 0.797232432 30.332596 36.7621538 0.426321046 36.7621538 0.426321046 0.797232432"></polygon>
    </defs>
    <g id="dev-sample" stroke="none" stroke-width="1" fill="none" fill-rule="evenodd" transform="translate(-35.000000, -117.000000)">
        <g id="hero" transform="translate(0.000000, 60.000000)">
            <g id="jumping-students" transform="translate(34.000000, 57.000000)">
                <g id="Group-4">
                    <g id="Page-1">
                        <path d="M535.063195,54.4936908 C532.015787,46.8153341 512.924085,50.6901881 511.610989,60.3169124 C498.417281,62.5849341 496.916872,76.4204368 500.241923,84.9055395 C496.423392,84.6753124 493.97881,92.063507 497.432222,95.0811935 C489.614503,96.2370854 489.614503,105.203572 493.673594,108.402015 C487.195593,112.068523 489.195187,121.918815 494.607308,122.584761 C487.657696,126.081929 491.50285,136.159594 496.815134,136.202404 C494.117631,145.557994 502.884277,149.854296 506.986155,146.51981 C507.106911,149.600285 511.14223,151.611442 513.77888,151.51155 C516.989831,151.390729 520.181765,150.657237 523.481143,150.656285 C527.47938,150.655334 531.783785,151.382166 535.738284,151.115788 C540.802401,150.77235 545.623106,150.562102 550.508467,149.278729 C551.909039,148.910556 553.933354,148.239853 555.47655,148.664156 C557.376307,149.186448 558.88147,150.190123 560.952377,151.097712 C564.256508,152.543766 570.097453,149.854296 569.882566,143.382253 C574.408513,146.240112 579.48404,141.309258 576.134269,134.697366 C581.174615,135.295766 585.212787,130.048112 581.185074,123.685475 C586.711294,120.840934 585.212787,113.282448 581.855409,112.359637 C586.559162,110.754707 586.251093,104.522404 581.367633,101.953756 C583.9092,100.003485 582.348889,95.0136476 578.322127,94.5589016 C579.791158,89.139053 575.576132,86.2421881 571.915439,86.6664908 C575.576132,85.5981232 575.988792,78.3649989 570.372243,77.8141665 C575.576132,72.3629232 568.678816,63.7037232 563.795356,63.5905124 C565.777835,46.1046746 539.031006,49.4325016 535.063195,54.4936908" id="Fill-1" fill="#66310E"></path>
                        <path d="M521.118332,134.145202 C521.118332,134.145202 504.773575,160.639386 501.850726,168.535602 C501.850726,168.535602 483.37421,163.351689 474.617072,154.093137 C473.873523,153.30637 471.549696,158.308575 471.549696,158.308575 C471.549696,158.308575 484.548484,179.886175 506.060047,175.956143 C506.060047,175.956143 518.417977,157.110824 523.434552,142.172705 C525.812576,135.091797 521.118332,134.145202 521.118332,134.145202" id="Fill-3" fill="#FFD4AE"></path>
                        <path d="M461.949648,136.88909 C461.949648,136.88909 454.541736,140.449998 452.766538,140.743014 C450.99134,141.03603 452.740866,142.356506 454.749968,142.336528 C456.75812,142.316549 458.878469,140.963728 458.878469,140.963728 C458.878469,140.963728 457.118484,146.630928 456.317886,148.149284 C455.517287,149.667641 458.209085,149.191965 459.15421,147.661241 C460.098383,146.129565 461.613054,142.573414 461.613054,142.573414 C461.613054,142.573414 460.419763,151.044246 461.51702,151.216441 C462.614278,151.386733 463.248481,146.910625 463.248481,146.910625 L470.739114,145.14016 L465.255681,136.718798 L461.949648,136.88909 Z" id="Fill-5" fill="#E8B38B"></path>
                        <path d="M473.614898,143.035771 C473.614898,143.035771 468.752356,136.928095 466.81932,135.739857 C464.885333,134.551619 456.908826,133.606928 455.5035,132.681263 C454.099125,131.754646 454.43667,133.931338 456.316459,135.316506 C459.692854,137.80429 464.677102,138.268549 464.188376,137.615922 L471.747469,145.678625 L473.614898,143.035771 Z" id="Fill-7" fill="#E8B38B"></path>
                        <path d="M461.392462,144.76333 C461.392462,144.76333 465.616046,158.947027 471.786928,159.598703 C477.95686,160.250378 476.189268,147.253968 473.798883,143.374357 C471.408498,139.493795 461.392462,144.76333 461.392462,144.76333" id="Fill-9" fill="#E8B38B"></path>
                        <path d="M473.798788,143.374357 C472.453365,141.191005 468.694736,141.904519 465.664443,142.946249 C466.560124,144.399914 467.028883,146.200822 467.010817,147.9808 C466.986096,150.440995 465.934479,152.490205 465.822281,154.673557 C467.462461,157.237449 469.489629,159.356108 471.786833,159.598703 C477.956765,160.250378 476.189173,147.253968 473.798788,143.374357" id="Fill-11" fill="#FFD4AE"></path>
                        <path d="M473.798788,143.374357 C473.798788,143.374357 466.637141,140.456562 464.433119,135.527611 C462.792938,131.858249 462.139719,132.665946 462.287097,136.530335 C462.42782,140.240605 466.662814,143.508497 467.877974,146.703135 C469.094084,149.896822 473.798788,143.374357 473.798788,143.374357" id="Fill-13" fill="#FFD4AE"></path>
                        <polygon id="Fill-15" fill="#F4CD98" points="170.332854 202.483148 172.854454 236.314154 189.54246 265.864078 184.336669 273.130499 156.665633 245.68877 150.809475 199.109656"></polygon>
                        <path d="M98.7277028,327.503178 C99.8382715,327.164497 114.309894,324.906941 114.309894,324.906941 L114.793866,315.157492 L99.0376732,316.910832 L98.7277028,327.503178 Z" id="Fill-17" fill="#6D6D6D"></path>
                        <path d="M117.608701,310.119611 C115.281071,311.4496 106.329964,315.405319 106.327111,315.528995 C106.820592,320.095481 107.590763,323.36147 108.35523,327.888 C109.801442,327.733881 159.248371,324.833211 159.248371,324.833211 L165.703552,303.229924 C165.703552,303.229924 146.79631,293.434811 117.608701,310.119611" id="Fill-19" fill="#2D2928"></path>
                        <path d="M87.5651565,361.85581 C89.1872713,361.786361 94.6906716,362.797648 96.2072444,356.503507 C97.7238172,350.209366 95.8040927,335.601366 102.057697,328.636523 L101.412084,315.826577 C101.412084,315.826577 89.1264182,312.633842 83.7485275,313.267442 C83.7485275,313.267442 79.9185868,331.077691 82.8024523,343.203615 C85.6863177,355.327637 87.5651565,361.85581 87.5651565,361.85581" id="Fill-21" fill="#2D2928"></path>
                        <path d="M80.7315459,311.619131 C80.547085,312.802612 75.1834567,344.272363 86.3804231,364.463844 L89.7596706,363.416406 C89.7596706,363.416406 78.8384447,334.352623 84.8676536,312.218482 L80.7315459,311.619131 Z" id="Fill-23" fill="#D8D8D8"></path>
                        <path d="M98.6181673,341.457505 C98.6181673,341.457505 88.6905581,340.183645 89.0100367,338.486435 C89.3295154,336.788272 98.6134131,338.041202 98.6134131,338.041202 C98.6134131,338.041202 89.8534224,335.83597 90.6949063,334.291926 C91.5354395,332.747883 98.2140648,334.291926 98.2140648,334.291926 C98.2140648,334.291926 91.8254424,331.494954 93.4228357,330.79571 C95.0192782,330.097418 100.859272,333.791516 100.859272,333.791516 L98.6181673,341.457505 Z" id="Fill-25" fill="#D8D8D8"></path>
                        <path d="M53.0062179,300.374729 C54.0359661,300.913194 65.9222838,309.473453 65.9222838,309.473453 L73.1096028,302.872977 L60.6603942,293.052177 L53.0062179,300.374729 Z" id="Fill-27" fill="#6D6D6D"></path>
                        <path d="M167.58762,259.842024 C167.986968,261.034067 184.802385,317.746975 162.470256,324.271343 C140.137177,330.79571 143.4318,278.362932 143.4318,278.362932 C143.4318,278.362932 145.699528,264.704381 146.298551,264.755754 C146.897573,264.807126 167.58762,259.842024 167.58762,259.842024" id="Fill-29" fill="#3D3836"></path>
                        <polygon id="Fill-31" fill="#3D3836" points="135.57833 287.351299 145.228297 283.455516 148.721644 267.376726 137.441956 268.274802"></polygon>
                        <path d="M78.6493248,301.26291 C76.0583148,300.574132 66.9094348,297.102651 66.8210077,297.189224 C63.9675688,300.787235 62.2237478,303.653656 59.5918522,307.413397 C60.7290441,308.319083 96.9851179,339.591905 96.9851179,339.591905 L117.728411,330.146889 C117.728411,330.146889 111.140114,309.888813 78.6493248,301.26291" id="Fill-33" fill="#35312F"></path>
                        <path d="M330.65761,342.656017 C327.555054,332.504147 325.410934,332.877077 324.801452,326.776061 C324.191971,320.675996 320.192782,315.208579 315.518505,315.614806 C312.32467,315.892601 310.502881,318.087369 309.40182,320.490482 C314.310001,323.619477 316.691829,329.733812 318.567815,333.826525 C320.634918,338.334979 322.156245,342.923347 320.814625,347.922698 C319.91514,351.276212 318.0924,351.754742 315.31788,352.425444 C316.117528,356.962439 318.792211,360.868688 321.807291,361.661163 C326.448289,362.880796 333.336097,351.419866 330.65761,342.656017" id="Fill-35" fill="#E2DCDE"></path>
                        <path d="M212.424738,426.124065 C208.56342,431.268022 206.216774,434.593946 207.246522,436.653622 C209.481922,441.127827 224.534501,439.857773 227.292857,432.644627 C229.477863,426.930811 234.819622,425.366789 237.556109,422.679222 C240.455188,419.832778 238.791236,413.340757 234.552439,408.240562 C233.770857,415.938897 223.70823,431.123416 212.424738,426.124065" id="Fill-37" fill="#E2DCDE"></path>
                        <path d="M226.081215,146.03053 C226.081215,146.03053 206.361014,163.229059 198.567066,176.413838 C198.497656,181.245751 198.207653,186.065297 198.269457,190.883892 C205.208609,199.605881 216.567217,205.317795 227.778445,204.95533 C240.155391,204.556714 240.04131,141.191005 240.04131,141.191005 L226.081215,146.03053 Z" id="Fill-39" fill="#677EA0"></path>
                        <path d="M249.121712,148.753583 C246.208371,148.324523 244.21258,145.305885 244.687044,142.046556 L246.694244,128.275745 C247.168708,125.016415 249.941327,122.700826 252.855619,123.129885 C255.76896,123.558945 257.764751,126.576631 257.289336,129.836912 L255.283086,143.607723 C254.807671,146.867053 252.035053,149.182642 249.121712,148.753583" id="Fill-41" fill="#FFD4AE"></path>
                        <path d="M252.338177,137.778223 C253.712126,137.908558 254.972925,137.878115 256.144347,137.692601 L257.290097,129.836342 C257.76456,126.577012 255.76877,123.559325 252.855428,123.130266 C249.941137,122.700255 247.168518,125.015844 246.694054,128.276125 L245.62247,135.634828 C247.631572,136.716515 249.787102,137.536579 252.338177,137.778223" id="Fill-43" fill="#EFC19E"></path>
                        <path d="M230.145915,155.012143 C225.713149,151.622478 203.396233,134.090975 199.35711,121.750997 C193.812824,104.811235 210.607323,66.7039049 213.897193,58.2701751 L223.606111,54.47904 C216.140199,73.6287914 208.878715,108.481548 211.879533,117.64877 C213.923816,123.896294 228.470554,137.134348 238.147144,144.537764 L230.145915,155.012143 Z" id="Fill-45" fill="#FFD4AE"></path>
                        <path d="M338.320439,376.578543 C338.293816,376.850629 336.667898,380.017678 336.667898,380.017678 C336.667898,380.017678 318.215153,415.207213 334.065478,422.606824 C352.316647,431.126175 351.381031,405.38451 348.876546,379.959645 C344.834571,379.330802 342.347201,377.277786 338.320439,376.578543" id="Fill-47" fill="#D1D1D1"></path>
                        <path d="M345.215378,383.116324 C342.228823,382.872778 339.556993,382.025124 337.214149,380.641859 C337.199887,380.79027 337.19228,380.876843 337.19228,380.876843 C337.19228,380.876843 320.584144,412.548281 334.849437,419.207741 C351.108618,426.79667 350.408808,405.555849 348.206687,382.931762 C347.217825,383.12013 346.215651,383.198141 345.215378,383.116324" id="Fill-49" fill="#2B2928"></path>
                        <path d="M336.679688,395.937306 C335.637579,395.979165 334.392943,397.310106 336.367816,397.984614 C338.342688,398.659122 346.04916,399.366928 346.138538,397.379555 C346.227916,395.39123 336.679688,395.937306 336.679688,395.937306" id="Fill-51" fill="#E5E2E1"></path>
                        <path d="M337.341275,380.580022 C337.341275,380.580022 331.579249,392.642205 340.782326,393.877059 C349.984453,395.110962 348.567717,382.291503 348.567717,382.291503 L337.341275,380.580022 Z" id="Fill-53" fill="#E5E2E1"></path>
                        <path d="M339.538737,371.246694 C339.538737,371.246694 333.433461,390.795062 341.121868,391.826326 C348.809323,392.858543 348.646731,375.127256 348.646731,375.127256 L339.538737,371.246694 Z" id="Fill-55" fill="#5B5B5B"></path>
                        <path d="M336.338911,399.475096 C334.61791,399.445604 333.492128,400.629085 336.047006,401.392069 C338.601885,402.154102 345.618054,403.503118 345.633268,401.451053 C345.649432,399.399939 336.338911,399.475096 336.338911,399.475096" id="Fill-57" fill="#E5E2E1"></path>
                        <path d="M336.039019,402.744415 C334.328477,402.547485 333.098104,404.232329 335.560752,405.23981 C338.022449,406.247291 344.66114,407.578231 344.900749,405.542339 C345.140358,403.506448 336.039019,402.744415 336.039019,402.744415" id="Fill-59" fill="#E5E2E1"></path>
                        <path d="M469.89145,364.806521 C469.89145,364.806521 489.528928,401.213786 473.677652,408.31277 C455.427434,416.487732 456.593151,391.843926 459.096684,367.44557 C463.13866,366.842413 469.89145,364.806521 469.89145,364.806521" id="Fill-61" fill="#D1D1D1"></path>
                        <path d="M462.528988,370.418923 C465.514592,370.185842 468.186423,369.371485 470.529266,368.04435 C470.54448,368.186102 470.552086,368.269821 470.552086,368.269821 C470.552086,368.269821 487.159272,398.661691 472.893979,405.050966 C456.635748,412.334512 457.335558,391.95181 459.537679,370.241021 C460.525591,370.422729 461.528716,370.496934 462.528988,370.418923" id="Fill-63" fill="#2B2928"></path>
                        <path d="M471.064203,382.721514 C472.106312,382.762422 473.350947,384.040086 471.376075,384.686054 C469.401202,385.333924 461.69473,386.013189 461.605353,384.104778 C461.515975,382.197319 471.064203,382.721514 471.064203,382.721514" id="Fill-65" fill="#E5E2E1"></path>
                        <path d="M470.40214,367.984796 C470.40214,367.984796 476.165117,379.559888 466.96204,380.74432 C457.758963,381.928752 459.175698,369.626828 459.175698,369.626828 L470.40214,367.984796 Z" id="Fill-67" fill="#E5E2E1"></path>
                        <path d="M468.205249,359.028774 C468.205249,359.028774 474.310524,377.78752 466.622118,378.776925 C458.934663,379.767282 459.097255,362.753315 459.097255,362.753315 L468.205249,359.028774 Z" id="Fill-69" fill="#5B5B5B"></path>
                        <path d="M471.40498,386.116221 C473.125981,386.088631 474.251763,387.223594 471.696885,387.956134 C469.142006,388.687723 462.125837,389.981561 462.110623,388.013215 C462.094459,386.043918 471.40498,386.116221 471.40498,386.116221" id="Fill-71" fill="#E5E2E1"></path>
                        <path d="M471.704872,389.253682 C473.416365,389.064363 474.646738,390.681661 472.18409,391.648234 C469.721442,392.614806 463.082751,393.892471 462.844093,391.938396 C462.604484,389.985271 471.704872,389.253682 471.704872,389.253682" id="Fill-73" fill="#E5E2E1"></path>
                        <path d="M452.413495,301.785107 L431.876532,243.54528 L403.272733,243.54528 L374.668934,243.54528 L355.991793,311.134037 C341.398464,325.211183 333.401038,373.321972 333.401038,373.321972 C333.401038,373.321972 337.175831,378.099658 342.943562,380.361021 C347.249868,382.049669 353.963674,379.808285 353.963674,379.808285 C358.213881,364.679896 365.640809,351.545539 377.436798,331.950556 C386.663646,316.624285 398.400683,284.268826 404.105659,270.884264 L404.105659,269.824458 C407.908977,282.668653 420.715697,305.353626 429.941594,320.059615 C441.737583,338.863075 449.738812,352.796566 453.988068,367.313237 C453.988068,367.313237 460.598234,369.531788 464.905491,367.911637 C470.67132,365.742556 474.394768,361.009583 474.394768,361.009583 C474.394768,361.009583 467.007775,315.293345 452.413495,301.785107" id="Fill-75" fill="#33302F"></path>
                        <path d="M371.769379,318.190305 C365.920828,318.10944 359.752798,316.175343 355.04239,312.698154 C341.053788,327.778024 333.400563,373.607472 333.400563,373.607472 C333.400563,373.607472 337.176306,378.242456 342.943086,380.503818 C347.249392,382.191516 353.964149,379.879732 353.964149,379.879732 C358.214356,364.751343 365.224821,351.580835 377.019859,331.985851 C379.813396,327.34611 382.876017,321.139494 385.922474,314.372532 C381.795875,316.888856 376.901005,318.261656 371.769379,318.190305" id="Fill-77" fill="#2B2928"></path>
                        <path d="M431.876817,243.54547 L403.273018,243.54547 L374.669219,243.54547 L370.358159,259.586205 C381.359254,262.565838 391.868771,265.218205 403.273018,265.61587 C405.395269,265.690076 407.546996,265.844195 409.74151,265.772843 C419.246951,265.462703 428.705801,263.442984 437.883206,260.911438 L431.876817,243.54547 Z" id="Fill-79" fill="#2B2928"></path>
                        <path d="M452.725462,302.668627 C452.399328,303.301276 452.038013,303.924411 451.630107,304.531373 C448.074005,309.805665 441.90027,313.626292 435.723683,314.915373 C432.356796,315.618422 429.478635,314.908714 426.587163,314.217081 C427.677765,316.037968 428.914794,319.087049 429.947394,320.732886 C441.743383,339.535395 449.530676,352.796281 453.779932,367.312951 C453.779932,367.312951 460.494689,369.531503 464.800995,367.911351 C470.567775,365.74227 474.342567,361.294703 474.342567,361.294703 C474.342567,361.294703 467.091543,316.4832 452.725462,302.668627" id="Fill-81" fill="#2B2928"></path>
                        <path d="M506.431537,264.753946 C506.431537,264.753946 555.833777,265.553081 565.486596,266.60813 C575.141318,267.663178 580.48688,267.644151 580.48688,267.644151 C580.48688,267.644151 560.807565,278.028151 548.397341,281.451114 C520.420138,289.166573 507.29489,291.543049 503.770165,289.166573 C500.640035,287.056476 492.412509,274.232259 506.431537,264.753946" id="Fill-83" fill="#FFD4AE"></path>
                        <polygon id="Fill-85" fill="#F7931E" points="521.118332 134.145202 505.295581 155.338456 515.294502 162.661008"></polygon>
                        <path d="M557.730777,275.387866 C556.423386,272.316904 555.414556,268.678936 553.581357,265.927628 C535.701011,265.227434 506.431632,264.753661 506.431632,264.753661 C492.412604,274.231974 500.64013,287.057142 503.77026,289.166288 C507.294985,291.542763 520.420233,289.166288 548.397436,281.450828 C551.530418,280.587001 555.125504,279.277942 558.750066,277.80525 C558.408718,276.999455 558.073075,276.193661 557.730777,275.387866" id="Fill-87" fill="#3D1E21"></path>
                        <path d="M558.522817,267.660039 C562.545776,271.247585 569.028531,268.833055 573.943368,268.75885 C575.932503,268.728406 580.362417,269.334417 580.720879,269.394352 C588.022298,270.629206 592.166963,272.747866 593.073103,272.803996 C594.853056,272.913401 594.815974,268.848277 594.784596,267.764688 C594.714235,265.362525 593.898423,262.945142 592.237324,261.173725 C589.762316,258.535628 586.124442,257.394958 582.782277,256.311369 C578.645219,254.970915 574.368388,254.084255 570.067787,253.476342 C569.136925,253.344104 568.205113,253.225185 567.270447,253.119585 C557.483561,252.005552 557.444577,258.257834 557.203066,260.787477 C556.938736,263.566374 557.606218,265.871498 558.522817,267.660039" id="Fill-89" fill="#4B2316"></path>
                        <path d="M558.956491,257.948549 C564.305857,262.876549 572.726401,258.856138 578.861152,257.802041 C581.262947,257.388203 583.795956,257.25216 586.270965,257.510928 C585.111904,257.066646 583.930023,256.684203 582.782372,256.311274 C578.645314,254.970819 574.368484,254.08416 570.067882,253.476246 C569.13702,253.344009 568.205208,253.22509 567.270542,253.11949 C561.282219,252.437371 558.945081,254.515122 557.977136,256.80883 C558.239565,257.418646 558.587569,257.608917 558.956491,257.948549" id="Fill-91" fill="#1C1C1C"></path>
                        <path d="M559.790368,254.433972 L574.013824,245.053648 C575.176688,244.286858 576.736049,244.575118 577.549008,245.705323 C578.112849,246.489237 578.176555,247.52621 577.714452,248.373864 L573.941561,255.292091 C573.752346,255.641237 571.568291,258.676999 569.8587,259.041366 C564.902027,260.095464 562.807349,259.303939 560.949429,258.476264 C559.618268,257.884523 558.464912,255.710685 559.790368,254.433972" id="Fill-93" fill="#262626"></path>
                        <path d="M553.396326,355.390521 C555.981631,364.544424 558.690544,374.113116 561.384243,383.591429 L568.091393,376.683667 C568.091393,376.683667 568.535431,367.573526 568.104705,354.769289 L553.396326,355.390521 Z" id="Fill-95" fill="#FFD4AE"></path>
                        <polygon id="Fill-97" fill="#FFD4AE" points="570.562409 397.007576 567.964743 368.798106 557.789918 370.607576 554.820478 398.240528"></polygon>
                        <path d="M557.790203,370.607576 L553.615112,397.68589 C552.826874,402.792744 555.128832,407.984268 559.612943,410.549111 C560.701643,411.173198 561.729489,411.566106 562.53294,411.505219 C563.146225,411.459555 563.937315,411.101846 564.807324,410.565284 C569.715505,407.533328 572.27799,401.802387 571.562016,396.076203 L568.279753,369.803684 L568.452804,396.648917 L558.591752,397.476592 L557.790203,370.607576 Z" id="Fill-99" fill="#4B2316"></path>
                        <path d="M500.836096,222.950616 C500.483338,221.0384 493.701073,258.415092 496.359591,277.408822 C498.056822,289.530941 511.988373,299.366011 519.580746,274.708886 C524.289253,259.416865 530.95837,229.954465 530.95837,229.954465 C530.95837,229.954465 530.962173,243.271481 533.27459,257.374314 C535.966388,273.783222 542.857999,296.568086 543.011082,303.355027 C543.577777,328.547762 551.321331,350.083503 555.251109,362.417773 C556.315087,365.756065 568.296487,364.975005 568.485702,359.792995 C569.448892,333.356843 570.99399,301.654011 566.548863,291.411762 C562.105637,281.171416 573.295948,238.767784 563.504307,222.46067 C553.711716,206.151654 500.836096,222.950616 500.836096,222.950616" id="Fill-101" fill="#4C2426"></path>
                        <path d="M565.572361,278.703611 C560.624245,284.121557 553.606174,287.716714 546.213476,285.576173 C543.301085,284.732324 540.643517,283.054141 538.34251,280.860324 C540.730994,290.753427 542.926459,299.558184 543.011082,303.355027 C543.577777,328.547762 551.321331,350.083503 555.251109,362.417773 C556.315087,365.756065 568.296487,364.975005 568.485702,359.792995 C569.448892,333.356843 570.99399,301.654011 566.548863,291.411762 C565.44495,288.866897 565.30708,284.329903 565.572361,278.703611" id="Fill-103" fill="#000000"></path>
                        <path d="M519.123777,242.458456 C522.012397,243.180532 524.873442,243.620056 527.706914,243.818889 C529.612376,235.895083 530.957799,229.953894 530.957799,229.953894 C530.957799,229.953894 530.963504,235.854175 531.644298,243.943516 C543.995571,243.856943 555.797265,239.390348 566.985674,233.650845 C566.374291,229.289851 565.292247,225.436878 563.504688,222.460099 C553.712096,206.152035 500.836476,222.950997 500.836476,222.950997 C500.697655,222.197526 499.560463,227.552683 498.395697,235.467926 C505.055306,238.50464 512.227412,240.735559 519.123777,242.458456" id="Fill-105" fill="#000000"></path>
                        <path d="M535.991775,143.470538 C533.068926,143.324982 530.807853,140.531814 530.965691,137.262971 L531.634124,123.453155 C531.791962,120.184311 534.31261,117.628982 537.23546,117.77549 C540.157358,117.921046 542.419381,120.714214 542.261544,123.983057 L541.593111,137.792874 C541.435273,141.060765 538.913674,143.616095 535.991775,143.470538" id="Fill-110" fill="#FFD4AE"></path>
                        <path d="M541.94739,130.467088 L542.261163,123.983628 C542.419001,120.714785 540.156978,117.920666 537.235079,117.775109 C534.313181,117.629552 531.791581,120.183931 531.633744,123.452774 L531.320921,129.915304 C534.809514,130.864752 538.369419,131.021725 541.94739,130.467088" id="Fill-112" fill="#E8B38B"></path>
                        <path d="M514.104064,167.746266 C523.084647,168.637682 532.039558,169.72032 540.946927,171.087412 C542.065102,167.422806 543.51797,163.823844 544.680834,160.285769 C546.301047,155.356817 547.615093,150.318461 549.047042,145.333379 C550.056823,141.821942 551.740742,137.954698 552.330256,134.222547 C539.444617,132.847844 526.781471,133.774461 522.573101,134.162612 C521.433056,142.293812 518.034792,150.220471 514.270459,157.993012 C514.431149,161.289444 514.343673,164.53165 514.104064,167.746266" id="Fill-114" fill="#FFD4AE"></path>
                        <path d="M566.365353,181.408432 C562.423214,168.177989 554.847957,135.109016 554.847957,135.109016 L551.428775,140.345254 C551.428775,140.345254 556.253283,170.413665 558.468715,183.726876 C561.901209,184.326227 564.076707,182.555762 566.365353,181.408432" id="Fill-116" fill="#FFD4AE"></path>
                        <path d="M556.11237,135.319931 C556.11237,135.319931 557.874257,129.477682 563.259754,156.282958 L552.164526,160.92365 L549.460368,140.581855 L556.11237,135.319931 Z" id="Fill-118" fill="#F7931E"></path>
                        <path d="M568.108223,218.726711 C559.476594,194.553825 548.065691,187.70029 547.150043,180.944744 C546.235345,174.189198 556.652631,134.766149 556.652631,134.766149 C553.797291,134.33709 550.908671,134.041219 548.074249,133.841436 C545.341565,137.691555 537.614175,140.037587 532.698387,140.007144 C528.246604,139.980506 527.010526,135.769825 527.403219,133.490387 C525.417887,133.648311 521.101122,134.309501 521.101122,134.309501 C521.101122,134.309501 508.010103,152.877976 508.652864,158.024787 C509.295625,163.171598 513.70367,166.253976 513.70367,166.253976 C513.70367,166.253976 497.557636,210.320571 498.076789,225.761955 C498.595942,241.203338 574.460714,236.515079 568.108223,218.726711" id="Fill-120" fill="#F7931E"></path>
                        <path d="M568.108223,218.726711 C559.476594,194.553825 548.065691,187.699338 547.150043,180.944744 C546.575742,176.704571 550.465585,159.597371 553.442631,147.443857 C550.028203,151.529911 545.893997,154.926236 540.618796,157.030625 C532.007134,160.465955 518.698376,160.431706 508.731783,156.674819 C508.640503,157.185695 508.605323,157.645198 508.652864,158.024787 C509.295625,163.171598 513.70367,166.253976 513.70367,166.253976 C513.70367,166.253976 512.907825,168.426863 511.681256,171.95923 C513.149336,171.901198 514.619318,171.944009 516.07789,172.094322 C527.321447,173.255922 536.431343,180.561349 542.568947,189.680052 C550.236435,201.073436 555.967083,215.404592 558.808161,229.95456 C565.711182,227.213717 569.788339,223.429241 568.108223,218.726711" id="Fill-122" fill="#DB7A19"></path>
                        <path d="M377.303491,180.753522 C378.852392,202.155122 378.578554,223.842128 380.480212,245.255144 C391.06009,244.681479 401.629509,243.900419 412.192273,242.994733 C418.574239,242.447706 424.948599,241.854063 431.321057,241.229025 C429.440317,209.602301 426.636321,178.000311 425.111191,146.363122 C420.957018,144.059901 415.392764,143.753565 409.75815,143.990452 C409.176242,144.014236 408.611449,144.042776 408.067575,144.073219 C402.797128,144.364333 385.130719,144.726798 375.147961,147.922387 C375.583441,150.73363 375.780263,153.509674 375.935248,155.846192 C376.481975,164.15149 376.701616,172.442517 377.303491,180.753522" id="Fill-124" fill="#865B2F"></path>
                        <path d="M431.785823,157.419347 C430.52122,146.303758 417.169674,144.145142 408.068336,144.072839 C406.114381,151.569488 401.411579,155.994223 401.411579,155.994223 C401.411579,155.994223 385.309284,151.142331 383.420937,146.070677 C375.615579,146.554915 368.762001,149.439412 368.166782,153.110677 C368.16488,153.119239 369.741356,167.738655 369.741356,205.547261 C369.741356,226.429423 361.912227,252.086417 361.912227,252.086417 C413.668721,266.895152 444.782709,249.357942 444.782709,249.357942 C436.35646,187.060601 431.880906,158.250828 431.785823,157.419347" id="Fill-126" fill="#29ABE2"></path>
                        <path d="M434.224225,173.907788 C434.31075,175.733431 434.366849,177.559075 434.366849,179.380912 C434.365898,192.696026 430.646254,206.766512 423.020603,217.779356 C414.547762,230.013734 401.791436,238.488372 387.502372,242.540177 C379.609538,244.778707 371.741425,245.029864 364.236529,243.480112 C362.932942,248.733475 361.911751,252.086037 361.911751,252.086037 C413.669196,266.895723 444.782234,249.357561 444.782234,249.357561 C439.917791,213.392675 436.373099,188.610923 434.224225,173.907788" id="Fill-128" fill="#22A4D1"></path>
                        <path d="M403.545145,149.07923 L403.65354,131.255663 C403.907411,127.73376 401.233679,124.643771 397.713709,124.390711 L396.083987,124.272744 C392.563066,124.019684 389.475724,126.693933 389.222803,130.215836 L386.833369,147.360138 C386.806746,147.730214 386.840025,148.109803 386.898976,148.493198 C392.520279,148.562646 398.02463,148.662538 403.545145,149.07923" id="Fill-130" fill="#865B2F"></path>
                        <path d="M396.084273,124.273029 L397.713994,124.390997 C401.233964,124.644056 403.907697,127.734045 403.653825,131.255948 L403.59012,141.743645 C400.866944,142.350608 398.175146,142.677872 395.195247,142.441937 C392.202987,142.205051 390.000867,141.144294 387.90714,139.654478 L389.222137,130.216121 C389.476009,126.693267 392.563352,124.019018 396.084273,124.273029" id="Fill-132" fill="#704722"></path>
                        <path d="M386.488693,117.32141 L404.911012,113.768112 C405.999711,113.557864 406.960049,114.680458 406.727096,115.896285 C405.646003,121.542556 402.262001,125.932091 397.659987,126.819702 C393.058924,127.707312 388.416024,124.865626 385.506486,119.988999 C384.87989,118.939658 385.400944,117.531658 386.488693,117.32141" id="Fill-134" fill="#FFFFFF"></path>
                        <path d="M555.746491,402.19539 C555.746491,402.19539 556.302726,405.530828 560.46926,408.402958 C560.46926,408.402958 563.432044,409.144061 567.043294,401.455239 C567.043294,401.455239 562.691348,400.156644 555.746491,402.19539" id="Fill-136" fill="#FFFFFF"></path>
                        <path d="M427.572128,162.499468 L409.257253,143.951922 C409.436009,143.787338 426.376935,131.817436 435.002859,101.045976 C437.344752,92.69216 441.02351,82.6278141 441.035871,82.5821492 C441.035871,82.5821492 440.371241,34.6178681 440.345569,34.3296086 L451.280106,33.3088086 C451.395157,34.5436627 457.835124,83.7494573 457.835124,83.7494573 C457.835124,83.7494573 456.17973,98.1757492 453.457506,107.635987 C442.815824,144.614063 428.484924,161.673695 427.572128,162.499468" id="Fill-138" fill="#865B2F"></path>
                        <path d="M426.976908,117.878331 C419.035582,135.347996 408.203734,143.947261 408.067765,144.072839 L427.462782,165.057747 C428.161642,164.425098 441.526499,150.221423 449.268152,127.328104 C443.470945,124.844125 432.776967,120.357552 426.976908,117.878331" id="Fill-140" fill="#29ABE2"></path>
                        <path d="M223.651751,231.095706 C223.651751,231.095706 219.955877,278.791706 220.880083,313.916549 C220.880083,313.916549 222.173211,378.436246 220.880083,400.249782 C219.586956,422.064268 205.981538,431.995425 208.014412,436.062452 C210.046334,440.129479 224.206085,437.593176 226.238007,432.417825 C228.27088,427.240571 233.07447,423.912744 236.031549,422.064268 C238.986727,420.216744 237.2933,413.497349 233.967299,407.070019 C232.758794,404.734452 239.928999,385.883425 242.75106,370.146171 C245.150953,356.764463 239.74739,343.941198 240.554644,340.982495 C241.362849,338.024744 254.876987,286.001046 256.539987,267.884463 C258.202988,249.766928 254.322653,227.583317 254.322653,227.583317 L223.651751,231.095706 Z" id="Fill-142" fill="#E5A185"></path>
                        <path d="M212.424738,426.124065 C209.459102,431.069189 207.078225,434.190573 208.013841,436.061881 C210.046714,440.129859 224.206465,437.593557 226.238387,432.417254 C228.27126,427.240951 233.07485,423.913124 236.030979,422.063697 C238.808351,420.327481 237.480993,414.293059 234.552439,408.240562 C233.842169,415.238703 222.682285,430.66867 212.424738,426.124065" id="Fill-144" fill="#E14C74"></path>
                        <path d="M252.351204,226.476419 C252.351204,226.476419 233.07504,298.757241 239.356219,311.143836 C245.638348,323.529479 267.99615,327.782019 282.962204,330.185133 C297.928258,332.589198 310.122644,340.353176 312.524439,345.528528 C314.927185,350.705782 316.559759,357.939857 320.809015,360.158409 C325.058271,362.37696 331.765422,352.024355 328.993754,342.780074 C326.222086,333.537695 324.164492,333.512009 323.610158,327.966582 C323.055825,322.420203 319.360902,316.135576 315.111646,316.504701 C310.861438,316.874776 310.159726,321.170128 306.834676,322.279403 C303.508675,323.388679 290.352049,306.892246 280.190536,304.858257 C270.028072,302.824268 265.03907,302.639706 264.300276,301.53043 C263.561482,300.421155 283.651555,271.04723 286.657127,261.229284 C290.064899,250.098474 292.01505,234.052982 280.190536,220.373501 L252.351204,226.476419 Z" id="Fill-146" fill="#E5A185"></path>
                        <path d="M328.994134,342.780549 C326.222467,333.537219 324.164872,333.512484 323.610539,327.967057 C323.056205,322.420679 319.361282,316.135101 315.111075,316.505176 C312.208193,316.757284 310.960705,318.841695 309.401345,320.490387 C313.863587,323.335879 316.949028,330.528095 318.654816,334.24883 C320.534606,338.348203 321.917112,342.519879 320.697197,347.063533 C319.879484,350.111663 317.839955,351.816484 315.318356,352.425349 C316.700862,355.780765 318.297304,358.847922 320.809395,360.158884 C325.058652,362.377436 331.765802,352.02483 328.994134,342.780549" id="Fill-148" fill="#E14C74"></path>
                        <path d="M254.322938,227.582936 L223.652036,231.095325 C223.652036,231.095325 219.956163,278.792277 220.880369,313.91712 C220.880369,313.91712 222.173497,378.435866 220.880369,400.250352 C220.822368,401.223585 220.732039,402.164471 220.627448,403.091088 C225.18097,404.415369 229.612785,404.475304 234.20434,403.580082 C235.583994,396.942504 240.5207,382.579952 242.751345,370.14579 C245.151239,356.765034 239.746725,343.940817 240.55493,340.983066 C241.363134,338.024363 254.877272,286.001617 256.540273,267.885034 C258.203273,249.767498 254.322938,227.582936 254.322938,227.582936" id="Fill-150" fill="#363944"></path>
                        <path d="M301.430352,333.516956 C303.83595,329.989345 304.714517,325.889972 304.223889,321.384372 C298.961048,318.013734 288.56373,306.533777 280.190726,304.858448 C270.028262,302.824458 265.039261,302.639896 264.300466,301.530621 C263.561672,300.421345 283.651745,271.047421 286.657317,261.229475 C290.065089,250.097712 292.01524,234.053172 280.190726,220.372739 L252.351394,226.47661 C252.351394,226.47661 233.07523,298.757431 239.356409,311.143075 C245.638539,323.529669 267.995389,327.78221 282.962394,330.185323 C288.979242,331.151896 294.508315,332.994664 299.163575,335.179918 C299.973682,334.715658 300.732443,334.15341 301.430352,333.516956" id="Fill-152" fill="#474B5B"></path>
                        <path d="M304.223413,321.384372 C298.961524,318.013734 288.564205,306.533777 280.190251,304.858448 C270.028738,302.824458 265.039736,302.639896 264.300942,301.530621 C263.561196,300.421345 283.65127,271.047421 286.656841,261.229475 C290.064614,250.097712 292.015715,234.053172 280.190251,220.372739 L252.350918,226.47661 C252.350918,226.47661 251.133857,231.042145 249.410954,238.072631 C261.779342,237.596004 272.556993,247.265539 271.631836,262.256934 C270.770385,276.20755 265.873613,293.508826 254.569203,302.532394 C249.540267,306.546145 243.876176,308.307096 238.448843,308.021691 C238.653271,309.286988 238.95088,310.342988 239.356885,311.143075 C245.639014,323.529669 267.995864,327.78221 282.961918,330.185323 C288.978767,331.151896 294.50879,332.994664 299.1631,335.179918 C299.974157,334.715658 300.732919,334.15341 301.429877,333.516956 C303.835475,329.989345 304.714041,325.889972 304.223413,321.384372" id="Fill-154" fill="#000000"></path>
                        <path d="M249.873818,139.574564 C245.088294,139.525094 240.215293,140.783732 236.063972,142.818672 C232.378558,144.624337 229.759974,148.041591 228.735931,152.01824 C227.934381,155.132964 226.942666,159.383602 224.684447,164.205051 C222.58977,168.675451 221.930845,172.992683 223.087053,177.390781 C224.408706,182.424381 227.578771,184.223386 227.179423,196.366435 C226.899879,204.848683 223.313351,216.712035 223.182136,227.583126 C223.176431,228.014089 223.087053,237.913851 223.087053,237.913851 C223.087053,237.913851 233.468208,238.911818 250.111525,235.236748 C265.126071,231.920337 281.360532,221.816986 281.370991,221.814132 C281.370991,221.814132 278.322632,216.123148 278.142925,215.733094 C275.643195,210.292316 272.51972,206.717137 271.226592,200.876791 C269.381033,192.543905 270.550553,181.78317 270.935639,173.289505 C271.295052,165.378067 272.51972,157.59411 271.8085,149.732143 C271.566039,147.050283 270.793014,144.272337 268.862831,142.395321 C266.735825,140.327083 263.584777,139.713462 260.61914,139.660186 C257.039268,139.595494 253.452739,139.611667 249.873818,139.574564" id="Fill-156" fill="#FFD4AE"></path>
                        <path d="M271.226592,200.876791 C269.381033,192.543905 270.550553,181.78317 270.935639,173.289505 C271.295052,165.378067 272.51972,157.59411 271.8085,149.732143 C271.566039,147.050283 270.793014,144.272337 268.862831,142.395321 C266.658808,140.251926 263.355627,139.670651 260.29776,139.656381 L260.296809,139.656381 C258.511152,144.397916 255.221282,148.632381 250.179034,149.911948 C243.669656,151.564445 238.499997,147.889375 236.513715,142.616986 C236.509911,142.615083 236.507059,142.615083 236.503256,142.613181 C232.586789,144.356056 229.799909,147.88557 228.735931,152.01824 C227.934381,155.132964 226.942666,159.383602 224.684447,164.205051 C222.58977,168.675451 221.930845,172.992683 223.087053,177.390781 C224.408706,182.424381 227.578771,184.223386 227.179423,196.366435 C226.960732,203.020186 222.1657,224.876532 220.108105,233.990478 C219.610821,236.193808 221.227231,238.313418 223.483549,238.393332 C228.702652,238.577894 238.52662,238.230651 252.129185,234.75251 C268.597549,230.541829 277.479246,225.828835 281.740863,222.982391 C283.602587,221.738975 283.953443,219.150348 282.491068,217.455991 C278.743849,213.114975 272.145094,205.024683 271.226592,200.876791" id="Fill-158" fill="#E14C74"></path>
                        <path d="M282.490782,217.455801 C278.743564,213.115736 272.144808,205.024493 271.226307,200.876601 C269.380747,192.543715 270.550268,181.782979 270.936304,173.289315 C270.980993,172.316082 271.048502,171.345704 271.113159,170.375325 C263.109077,174.120796 254.437513,176.213769 245.761196,175.582071 C238.308595,175.03885 229.96792,172.72992 223.110539,168.586785 C222.369843,171.532169 222.311842,174.443304 223.086768,177.39059 C223.298803,178.197336 223.55933,178.921315 223.842678,179.618655 C235.003512,183.004515 245.755491,192.232623 251.317842,200.155477 C257.641808,209.16192 261.728473,220.32032 262.826681,231.621423 C272.62783,228.357336 278.517267,225.136061 281.740578,222.982201 C283.602302,221.738785 283.954109,219.150158 282.490782,217.455801" id="Fill-160" fill="#CE416C"></path>
                        <path d="M260.297189,139.656761 C247.941162,157.457496 247.168138,199.256069 257.662441,206.753669 C263.812406,211.147961 279.783486,205.75475 282.978273,203.158512 C270.500539,180.686642 272.51915,157.593539 271.80888,149.732523 C271.566419,147.050664 270.793395,144.272718 268.863211,142.395702 C266.735255,140.327464 263.585157,139.713842 260.61857,139.659615 C260.512077,139.657712 260.404633,139.657712 260.297189,139.656761" id="Fill-162" fill="#7F9BC6"></path>
                        <path d="M298.308114,171.710071 C292.843698,171.710071 286.05953,169.519109 277.998399,165.14099 C268.721157,160.101682 260.69901,153.86272 260.362416,153.600147 L268.466335,143.205682 C282.031817,153.780904 296.459702,160.152104 299.35783,158.373077 C312.927115,146.824623 313.539449,126.444774 314.421819,121.007801 L322.129242,117.952061 C322.489606,138.277682 319.716037,157.222893 309.372915,166.932385 C306.324556,169.793098 302.965276,171.710071 298.308114,171.710071" id="Fill-164" fill="#FFD4AE"></path>
                        <path d="M211.879628,117.648389 C211.414672,116.22707 211.242572,114.2768 211.310081,111.926962 C206.987611,112.727049 202.562451,114.180714 198.327457,116.102443 C198.488147,118.192562 198.816184,120.09907 199.357205,121.750616 C203.396328,134.090595 225.713244,151.622097 230.146011,155.011762 L240.041292,141.19053 C228.177794,136.841903 213.923911,123.895914 211.879628,117.648389" id="Fill-166" fill="#7F9BC6"></path>
                        <path d="M299.493798,158.205354 C299.448158,158.260532 299.40442,158.318564 299.35783,158.373743 C296.459702,160.151818 273.395434,143.923667 267.617244,141.411148 L255.755648,156.560467 C256.092242,156.82304 267.812164,164.452878 277.800627,167.868229 C287.215739,171.087602 292.843698,171.709786 298.308114,171.709786 C300.1841,171.709786 301.895593,171.438651 303.458756,170.922067 C302.344384,166.636229 300.953321,162.413181 299.493798,158.205354" id="Fill-168" fill="#7F9BC6"></path>
                        <path d="M203.577081,178.420618 C208.470049,171.171321 216.076684,166.582002 223.07764,161.653051 C229.159145,157.371018 239.394823,150.825721 239.955812,142.634586 C239.974829,142.365354 239.995747,141.44064 240.041387,141.190435 L226.08131,146.03091 C226.08131,146.03091 191.993127,168.501829 196.235728,188.076835 C196.826193,190.802456 199.567434,192.590045 201.620274,194.545072 C199.633992,189.570456 199.786125,184.037397 203.577081,178.420618" id="Fill-170" fill="#7F9BC6"></path>
                        <path d="M196.619482,108.876739 C196.423612,110.953539 196.060395,116.457107 197.128176,120.988394 C197.336408,121.874102 198.30245,122.347875 199.137279,121.987312 C201.953635,120.769583 208.015172,118.249453 211.797571,117.418923 C212.527808,117.259096 213.005125,116.56461 212.91955,115.821604 C212.709417,114.005475 212.446037,110.664329 212.85109,107.547702 C212.960436,106.715269 212.364266,105.956091 211.527536,105.887594 C208.683605,105.658318 202.523182,105.493734 197.475229,107.675183 C196.990306,107.885431 196.668926,108.349691 196.619482,108.876739" id="Fill-172" fill="#BFCEE0"></path>
                        <path d="M296.428229,155.675996 C297.785063,155.625574 299.717148,155.226006 300.924701,153.552579 C301.4391,152.840969 302.394683,152.608839 303.188626,152.98272 C306.134295,154.36979 312.307079,157.696666 314.276247,161.989163 C314.482577,162.440104 314.460708,162.956688 314.26864,163.412385 C313.44237,165.371217 310.521422,170.620774 302.323371,172.842179 C301.704381,173.010569 301.043555,172.829812 300.578599,172.388385 C298.699761,170.605552 294.163354,165.431152 294.666342,157.416969 C294.725294,156.477034 295.487859,155.711196 296.428229,155.675996" id="Fill-174" fill="#BFCEE0"></path>
                        <path d="M108.32005,174.70816 C108.32005,174.70816 76.4805781,170.162603 60.4286771,161.879187 C49.2859079,156.128268 34.9435981,139.298863 26.7769248,129.798668 C24.229653,130.914603 22.4259297,131.421674 20.7838474,133.762949 C25.9991464,142.977738 43.2652565,174.755728 56.8583129,180.230755 C74.6017393,187.377306 106.56672,196.311446 106.56672,196.311446 L108.32005,174.70816 Z" id="Fill-176" fill="#F4CD98"></path>
                        <path d="M139.872846,283.760519 C140.799905,277.360778 141.869588,271.118962 143.492653,264.967524 C143.616261,262.402681 143.92433,259.864476 144.78483,257.488951 L105.335872,257.488951 L92.8942697,327.683459 C89.7432212,341.477103 108.875809,350.149622 121.272722,329.557622 C130.96928,313.450292 136.344318,283.955546 136.344318,283.955546 C136.488844,284.213362 139.72832,283.483676 139.872846,283.760519" id="Fill-178" fill="#3D3836"></path>
                        <path d="M114.788256,289.931269 C126.15447,285.711075 138.08833,283.129107 150.181928,282.239594 C157.846563,281.676394 165.402804,282.085475 172.734649,283.385972 C170.900499,270.915658 167.757058,260.348999 167.58781,259.841929 C167.58781,259.841929 146.897763,264.807031 146.298741,264.755658 C146.119985,264.740437 145.7929,265.945799 145.423027,267.639204 L142.795886,267.848502 C143.023134,266.886685 143.239923,265.708912 143.491893,264.751853 C143.615501,262.187961 143.92452,259.657366 144.78407,257.058275 L105.336062,257.058275 L98.3674336,296.492739 C103.82044,293.885085 109.611941,291.85395 114.788256,289.931269" id="Fill-180" fill="#000000"></path>
                        <path d="M108.711411,202.840381 C110.253656,224.139235 109.979817,245.723494 111.872919,267.032813 C122.401452,266.462002 132.921428,265.684748 143.433797,264.783818 C149.784386,264.239645 156.12927,263.647905 162.470351,263.026672 C160.599119,231.551213 157.808435,200.100489 156.289961,168.614564 C152.155755,166.321808 146.618125,166.018326 141.010133,166.25331 C140.431078,166.277094 139.870089,166.305635 139.328116,166.335126 C134.083341,166.62624 116.500605,166.985851 106.56634,170.166218 C106.999918,172.964143 107.195789,175.726867 107.348873,178.052921 C107.893698,186.31731 108.112388,194.569332 108.711411,202.840381" id="Fill-182" fill="#F4CD98"></path>
                        <path d="M162.932835,179.618179 C161.673937,168.555866 153.521526,166.264061 144.462975,166.192709 C144.196743,168.002179 143.657622,169.794525 142.637382,171.575455 C139.357972,177.299736 132.379835,180.248925 125.994066,178.501293 C120.692241,177.050482 116.67879,173.371606 114.799952,168.323736 C106.9442,169.572861 100.211377,171.676298 99.6180594,175.329488 C99.6161578,175.339001 102.795731,190.41792 99.8110778,227.92685 C98.0644043,249.877379 93.6221296,273.051347 93.6221296,273.051347 C145.131408,287.788731 172.394538,269.460947 172.394538,269.460947 C173.777044,251.226396 163.026967,180.445855 162.932835,179.618179" id="Fill-184" fill="#22B573"></path>
                        <path d="M167.067611,209.099892 C163.875677,232.878919 151.30191,255.419286 129.522213,265.159222 C118.695119,270.000649 106.287747,271.416259 94.1342462,270.26227 C93.8157184,272.040346 93.6217492,273.051632 93.6217492,273.051632 C145.131978,287.789016 172.394157,269.45933 172.394157,269.45933 C173.190001,258.96307 169.965739,231.054227 167.067611,209.099892" id="Fill-186" fill="#1A995C"></path>
                        <path d="M125.547746,146.943351 L127.164156,146.763546 C130.655601,146.375395 133.828519,148.916454 134.216457,152.408865 L137.454982,170.586335 C137.84292,174.078746 134.091899,177.330465 130.600453,177.718616 L128.984043,177.898422 C125.492598,178.286573 121.049373,174.702832 120.661434,171.20947 L119.904574,153.999524 C119.517586,150.506162 122.056301,147.331503 125.547746,146.943351" id="Fill-188" fill="#F4CD98"></path>
                        <path d="M125.547746,146.943351 L127.164156,146.763546 C130.655601,146.375395 133.828519,148.916454 134.216457,152.408865 L136.046804,162.685362 C133.491925,163.770854 130.91708,164.5776 127.958099,164.884886 C124.986757,165.194076 122.639159,164.553816 120.321988,163.474032 L119.904574,153.999524 C119.517586,150.506162 122.056301,147.331503 125.547746,146.943351" id="Fill-190" fill="#E0B889"></path>
                        <path d="M210.631664,280.229198 C210.631664,280.229198 204.162222,288.065479 204.632882,290.876722 C205.3983,295.442257 210.674452,283.993695 210.674452,283.993695 C210.674452,283.993695 209.669425,291.952701 211.677577,293.347382 C213.684777,294.742063 213.886353,282.979555 213.886353,282.979555 L210.631664,280.229198 Z" id="Fill-192" fill="#E0B889"></path>
                        <path d="M187.956191,266.330525 C193.168638,264.20045 199.798771,267.498785 203.197985,268.584277 C205.405811,269.289228 208.401875,270.051261 210.334911,271.358417 C212.5009,272.823498 213.640944,276.394871 214.634561,278.686677 C216.012313,281.866093 217.391015,285.046461 218.768767,288.225877 C219.003622,288.765293 219.229919,289.420774 218.900932,289.908817 C218.603323,290.352147 217.952004,290.431109 217.459475,290.226569 C216.966945,290.022028 216.599925,289.604385 216.260479,289.191498 C214.750562,287.356342 213.430811,285.363261 212.329751,283.256017 C211.544366,284.336752 213.145562,285.84845 212.685361,287.102331 C212.327849,288.075563 210.969114,288.548385 209.996415,288.191628 C202.706407,285.509769 195.367906,285.128277 194.102352,284.105574 C188.640788,279.689401 186.832311,275.949639 184.336384,273.129834 L187.956191,266.330525 Z" id="Fill-194" fill="#F4CD98"></path>
                        <path d="M20.9500524,316.991792 C22.1538024,318.082041 25.3628514,322.669457 30.8595959,319.253155 C36.3563403,315.836852 45.2418406,304.087663 54.5818372,303.521609 L63.1117273,293.947209 C63.1117273,293.947209 56.6061529,283.041868 52.332175,279.714992 C52.332175,279.714992 37.104643,289.705133 30.6494626,300.364074 C24.1942821,311.023965 20.9500524,316.991792 20.9500524,316.991792" id="Fill-196" fill="#2D2928"></path>
                        <path d="M51.3403649,276.42189 C50.3781256,277.135403 24.4746817,295.774279 18.277176,318.016874 L21.4177654,319.645587 C21.4177654,319.645587 34.0381233,291.279144 53.8648168,279.754474 L51.3403649,276.42189 Z" id="Fill-198" fill="#D8D8D8"></path>
                        <path d="M88.231878,362.35565 C88.231878,362.35565 95.419197,363.95392 96.9158024,355.96352 C98.4133586,347.974071 97.0812467,346.674525 97.0812467,346.674525 C97.0812467,346.674525 88.4315522,343.280104 84.0396714,345.976234 C79.6477906,348.673315 88.231878,362.35565 88.231878,362.35565" id="Fill-200" fill="#D8D8D8"></path>
                        <path d="M28.9396812,303.530742 C29.3390296,303.730525 37.6150482,306.736796 38.3186619,312.923434 C38.3186619,312.923434 31.8710881,322.17152 26.6434284,320.909077 C21.4176703,319.644731 20.9498622,316.991412 20.9498622,316.991412 L28.9396812,303.530742 Z" id="Fill-202" fill="#D8D8D8"></path>
                        <path d="M41.7164506,311.080285 C41.7164506,311.080285 36.4174786,303.830037 38.3181865,302.831118 C40.2188944,301.832199 43.3138439,309.423031 43.3138439,309.423031 C43.3138439,309.423031 40.0496467,300.492696 42.0311751,300.064588 C44.0127035,299.635529 45.8088201,308.275702 45.8088201,308.275702 C45.8088201,308.275702 45.4094718,298.463464 47.0068651,298.450145 C48.6042584,298.436826 48.6042584,306.527118 48.6042584,306.527118 L41.7164506,311.080285 Z" id="Fill-204" fill="#D8D8D8"></path>
                        <polygon id="Fill-206" fill="#D8D8D8" points="62.5785022 292.337522 53.0065032 303.723295 56.5892282 304.765025 64.3755697 294.342019"></polygon>
                        <path d="M306.954195,99.2754162 C306.954195,99.2754162 314.78998,94.1828324 316.140158,92.6464 C317.491286,91.1099676 317.670993,93.5340108 316.434915,95.4481297 C315.198837,97.3622486 312.643958,98.6313514 312.643958,98.6313514 C312.643958,98.6313514 319.035433,100.145903 320.9466,100.236281 C322.857767,100.325708 320.780205,102.638443 318.769201,102.679351 C316.758197,102.719308 313.623312,103.337686 313.623312,103.337686 C313.623312,103.337686 321.405851,105.572411 321.132963,106.816778 C320.810631,108.285665 314.945916,106.815827 314.945916,106.815827 L309.379761,112.364108 L304.792009,102.348281 L306.954195,99.2754162 Z" id="Fill-208" fill="#EAB68F"></path>
                        <path d="M305.660307,113.933172 C305.660307,113.933172 302.868672,105.820048 302.924771,103.295161 C302.979919,100.770275 306.925861,92.5877016 306.906844,90.7173449 C306.887827,88.8469881 308.728633,90.3995935 308.890274,92.9853665 C309.182179,97.6289124 306.597824,102.669172 306.280247,101.831983 L309.274409,113.63635 L305.660307,113.933172 Z" id="Fill-210" fill="#EAB68F"></path>
                        <path d="M312.947083,104.333656 C312.947083,104.333656 325.456193,115.251364 322.329867,121.535991 C319.202589,127.820618 308.064574,118.783732 305.867207,114.300964 C303.669841,109.817245 312.947083,104.333656 312.947083,104.333656" id="Fill-212" fill="#EAB68F"></path>
                        <path d="M305.866922,114.300584 C304.630844,111.7776 307.579366,108.576303 310.39382,106.258811 C311.217239,107.938897 312.625417,109.405881 314.308385,110.394335 C315.239247,110.940411 316.207191,111.291459 317.16943,111.589232 C320.406054,112.589103 322.915292,115.603935 322.899128,118.942227 C322.894374,119.874551 322.720372,120.749795 322.329581,121.535611 C319.202304,127.820238 308.064289,118.784303 305.866922,114.300584" id="Fill-214" fill="#FFD4AE"></path>
                        <path d="M305.866922,114.300584 C305.866922,114.300584 307.466217,105.785038 304.170642,100.887481 C301.716552,97.2419027 302.87181,97.0725622 306.412698,99.3957622 C309.813815,101.626681 310.317754,107.533622 312.581679,110.503741 C314.846554,113.473859 305.866922,114.300584 305.866922,114.300584" id="Fill-216" fill="#FFD4AE"></path>
                        <path d="M597.145696,223.778006 C602.74513,223.45645 609.593953,219.697661 610.046548,221.234093 C610.501045,222.768623 601.847547,225.769185 601.847547,225.769185 C601.847547,225.769185 612.510147,222.770525 612.877167,223.426958 C613.516124,224.568579 610.465864,227.302763 604.318752,228.356861 C603.506744,228.472925 602.989493,228.552839 602.989493,228.552839 C603.447793,228.496709 603.889928,228.430115 604.318752,228.356861 C607.358554,227.922093 614.567742,226.977401 614.601972,227.780342 C614.756006,231.383109 602.223124,231.540082 602.223124,231.540082 C602.223124,231.540082 612.779232,233.012774 612.961791,233.740558 C613.650191,236.492817 597.954851,234.06592 594.874164,233.873747 C587.712518,233.426612 596.229096,240.218309 594.168649,243.326374 C592.40391,245.990158 592.225154,243.679325 591.454982,241.221985 C590.494644,238.159585 585.510397,237.150201 583.158045,234.021206 C581.94859,232.410569 581.080483,228.249358 581.080483,228.249358 C581.080483,228.249358 587.364514,224.340255 597.145696,223.778006" id="Fill-218" fill="#FFD4AE"></path>
                        <path d="M558.469,183.726971 C558.469,183.726971 558.524149,183.946733 558.638248,184.362474 C559.717439,188.311533 567.072104,211.314257 582.045765,229.640138 L586.2703,227.496744 C586.2703,227.496744 578.976488,211.326625 574.687297,201.617133 C569.724918,190.388333 566.365638,181.408528 566.365638,181.408528 L558.469,183.726971 Z" id="Fill-220" fill="#FFD4AE"></path>
                        <path d="M114.799857,168.323641 C114.002111,168.211382 72.118078,164.962517 72.118078,164.962517 L70.6576041,188.839533 L109.904036,201.995771 L114.799857,168.323641 Z" id="Fill-222" fill="#22B573"></path>
                        <path d="M144.463165,166.192424 C144.463165,166.192424 158.211206,164.963278 169.034497,175.55277 C174.148057,180.556878 174.034908,204.972359 174.034908,204.972359 L158.647637,207.319343 L144.463165,166.192424 Z" id="Fill-224" fill="#22B573"></path>
                        <path d="M329.307528,255.42528 C346.707705,247.510037 360.869357,233.734469 363.21125,229.522837 L375.826853,196.660307 L361.25064,190.738145 C361.25064,190.738145 354.84205,208.671118 348.925039,223.081237 C348.925039,223.081237 341.034106,236.644653 326.434121,246.87168 C326.434121,249.467918 326.513991,253.926902 329.307528,255.42528" id="Fill-226" fill="#865B2F"></path>
                        <polygon id="Fill-228" fill="#29ABE2" points="368.237714 152.794067 352.401651 188.351775 375.808217 198.859451 378.955462 174.616164"></polygon>
                        <path d="M327.251264,246.230469 C327.251264,246.230469 331.477701,256.345237 328.408423,260.179183 C325.340097,264.013129 316.709419,264.642923 316.709419,264.642923 C316.709419,264.642923 315.153862,268.797475 313.974834,269.886772 C313.974834,269.886772 315.397275,272.528675 314.067064,273.686469 C312.736854,274.844264 310.970213,272.206166 310.970213,272.206166 C310.970213,272.206166 310.453913,274.432329 308.779502,275.25715 C307.105092,276.081972 306.38056,272.524869 306.252198,270.944675 L308.158611,264.532566 C308.158611,264.532566 305.883276,266.811053 305.706422,267.51981 C305.529568,268.227615 304.894414,272.237561 303.398759,273.195572 C301.903105,274.153583 300.661321,272.484912 300.645157,271.542123 C300.645157,271.542123 299.251242,271.235788 298.968845,270.121756 C298.72163,269.147572 300.034725,264.430772 300.23535,262.095204 C300.290498,261.46541 300.561484,260.854642 300.977948,260.335204 C302.502127,258.432502 305.989769,254.149518 307.34375,253.071637 C309.099932,251.674102 315.857476,249.784718 319.165411,247.999983 C322.473347,246.216199 327.251264,246.230469 327.251264,246.230469" id="Fill-230" fill="#704722"></path>
                        <path d="M318.715669,248.219555 C316.278693,249.684636 314.81917,250.950884 312.885184,253.373976 C311.450382,255.170128 310.319846,256.737003 308.302186,257.992787 C307.388439,258.561695 304.440868,259.04403 303.857059,259.647187 C301.789005,261.782019 306.163771,263.740852 308.075889,263.005457 C309.9804,262.271965 311.553072,260.108592 313.723815,259.355122 C315.299339,258.809046 316.796895,258.716765 318.270681,258.936528 C320.531753,259.272355 321.452156,260.662279 323.249223,261.593652 C324.065035,262.016052 324.821895,262.241522 325.577804,262.339511 C326.698832,261.764895 327.758056,261.100852 328.408423,260.178992 C335.841056,249.650387 329.525648,245.369306 329.525648,245.369306 C329.525648,245.369306 322.473347,246.21696 319.165411,248.000744 C319.031344,248.073046 318.860195,248.146301 318.715669,248.219555" id="Fill-232" fill="#865B2F"></path>
                        <path d="M30.7029943,134.85453 C30.7029943,134.85453 34.0984059,132.541795 33.9890605,129.020843 C33.8797151,125.499892 33.5649906,120.621362 34.6166079,117.768259 C35.6682251,114.916108 37.4168003,112.352216 36.9879763,111.586378 C36.560103,110.821492 34.4330978,110.991784 33.6153846,111.482681 C32.0664836,112.413103 31.2535245,114.493708 30.9007668,115.853189 C30.5480091,117.21267 30.4529262,120.547157 29.846297,120.489124 C29.2387171,120.431092 26.5164927,115.10067 26.235998,111.618724 C25.9555033,108.13773 26.4157047,107.401384 25.9402901,105.961989 C25.4648754,104.524497 24.96569,100.408 25.0873961,99.1388973 C25.2081515,97.8688432 24.0177131,96.9193946 23.2190165,97.1210811 C22.4203198,97.3237189 21.5284419,99.0770595 21.3725059,101.291805 C21.2175207,103.5056 21.895462,112.8336 21.6568039,113.590876 C21.4171949,114.348151 21.1737826,114.479438 20.7905983,113.829665 C20.4064633,113.179892 18.4791322,106.531849 18.2186049,105.169514 C17.9590285,103.807178 16.2636998,99.9675243 15.9879593,98.7716757 C15.7122188,97.5748757 14.975326,96.536 14.2213184,96.8518486 C13.4673107,97.1686486 12.4841532,98.2275027 12.7960252,101.378378 C13.108848,104.528303 14.0977106,106.33587 14.6377816,108.839827 C15.1797544,111.343784 16.0278941,114.898984 15.7702194,115.264303 C15.5125446,115.629622 14.8479149,114.820973 14.5398462,114.541276 C14.2327283,114.261578 12.0230009,109.983351 10.924793,107.482249 C9.82658513,104.981146 8.94421549,101.386941 8.5296539,101.068238 C8.11414147,100.749535 6.21913858,101.348886 6.26858171,103.750097 C6.31802484,106.151308 8.59621195,110.882378 9.41297436,112.241859 C10.2297368,113.601341 11.7044731,117.420065 11.6797515,118.253449 C11.6559808,119.086832 11.1596479,119.039265 10.6395442,118.65587 C10.1194406,118.271524 7.25173926,113.874378 6.49297744,113.077146 C5.73326479,112.280865 3.64999769,109.016778 3.18504214,108.638141 C2.71913576,108.259503 1.13695573,110.838616 1.99650545,112.926832 C2.85510436,115.015049 6.74399638,119.78893 7.7975153,121.003805 C8.85198505,122.218681 11.4553558,125.866162 12.0629358,127.094357 C12.6695649,128.322551 14.8127342,133.877492 16.2532407,135.12947 C17.6927963,136.380497 21.2137174,137.657211 23.0820971,137.334703 C24.9504767,137.011243 30.7029943,134.85453 30.7029943,134.85453" id="Fill-234" fill="#F4CD98"></path>
                        <g id="Group-238" transform="translate(436.008931, 0.154119)">
                            <mask id="mask-2" fill="white">
                                <use xlink:href="#path-1"></use>
                            </mask>
                            <g id="Clip-237"></g>
                            <path d="M17.8446898,4.17709838 C16.9879925,5.91712 16.1065737,7.64477405 15.1899742,9.35435243 C14.5652794,10.5197578 13.9738635,11.7270227 13.2265116,12.8191741 C13.068674,13.0503524 12.8946722,13.2815308 12.650309,13.4185254 C12.4068967,13.55552 12.0750573,13.571693 11.8658748,13.3871308 C11.3096397,12.8943308 11.9847285,11.776493 12.1748944,11.248493 C13.0696248,8.75595243 13.8179275,6.19586595 15.1024979,3.86505514 C16.0000808,2.19733622 16.1408036,1.08996324 15.4714197,0.973898378 C13.536482,0.639022703 12.5181438,2.15547676 11.6186592,3.64529297 C10.2247434,5.95136865 8.9715503,8.61324973 8.54462793,11.2932065 C8.34400293,12.5546984 8.07777072,13.818093 7.57668365,14.99872 C7.29333651,15.6656173 6.22460432,18.0658768 5.27662746,17.9050984 C5.17203623,17.8879741 5.0836091,17.8232822 5.00278861,17.7538335 C4.36668378,17.2153686 4.14228805,16.4029146 4.18222288,15.5134011 C4.23642016,14.275693 4.76317961,13.3100714 4.01297526,11.7841038 C3.29129578,10.31712 0.72120406,8.82254703 0.452119354,11.1999741 C0.365593884,11.9658119 0.522480726,12.8125146 0.54625146,13.571693 C0.602350391,15.38592 0.797270407,17.0935957 0.828647776,18.9087741 C0.894255001,22.6161903 1.86505176,30.3868281 4.32960143,34.1893795 C5.44112094,35.9037146 6.39955692,34.2093578 7.88760485,35.5469578 C9.18643774,36.7133146 9.85772325,36.71712 11.7004305,36.7608822 C13.3881526,36.8008389 15.174761,35.8932497 16.6162183,34.8734011 C17.9692484,33.9163416 19.0417839,32.5597146 19.96599,31.1517146 C21.8914195,28.2196497 23.4745503,25.1401254 24.8465971,21.9578551 C26.3489074,18.4759092 27.1124234,17.4579632 29.3868072,13.4603849 C31.7039783,9.38479568 29.1880839,9.57887135 27.9501041,10.7138335 C26.8908802,11.6851632 26.9907173,11.86592 26.1140526,12.9980281 C25.532145,13.7495957 24.9692541,14.4811849 24.456757,15.2793686 C24.1867215,15.7017686 23.0989727,17.1896822 22.6121481,17.3038443 C22.0597163,17.4341795 21.9475184,17.0698119 22.033093,16.5598876 C22.2460788,15.2983957 23.5553708,13.152147 24.2133447,12.0514335 C24.8504004,10.98592 28.1906639,6.06362811 26.735895,5.42812541 C24.4634129,4.43586595 22.8669704,7.75703351 22.4419497,8.4848173 C22.0635196,9.13173622 21.687942,9.78246054 21.3180694,10.4360389 C20.6144557,11.6823092 19.9754983,13.1359741 18.8421098,14.0616389 C18.5102703,14.3318227 18.0548231,14.5525362 17.6668847,14.3717795 C16.8586797,13.9931416 17.2266507,13.0960173 17.5252111,12.4947632 C18.6205665,10.2961903 19.7349385,8.09856865 20.9168194,5.94470919 C22.2983744,3.42933622 23.2986469,1.23076324 22.323096,0.927282162 C20.9643609,0.503930811 19.4154599,0.991022703 17.8446898,4.17709838" id="Fill-236" fill="#865B2F" mask="url(#mask-2)"></path>
                        </g>
                        <path d="M212.583907,29.3878141 C213.269455,31.2020411 213.976872,33.0086573 214.715667,34.8019546 C215.218655,36.0244411 215.692168,37.2830789 216.308306,38.4513384 C216.437619,38.6986897 216.582145,38.9479438 216.791327,39.1153816 C217.00146,39.2828195 217.293365,39.3456086 217.486383,39.1943438 C217.99793,38.7928735 217.447399,37.6093924 217.300972,37.0680735 C216.614473,34.5165492 216.059188,31.9174573 215.020883,29.4667762 C214.296351,27.7181924 214.259269,26.8191654 214.814553,26.6003546 C216.113386,26.0885276 217.374185,28.1624735 218.108226,29.7398141 C219.040038,31.7424086 219.350009,33.941933 219.736046,36.0948411 C220.049819,37.8462789 220.34838,40.93056 221.78223,42.1844411 C222.922275,43.1805059 223.38723,41.0104735 223.395788,40.2684195 C223.412903,38.7728951 223.767562,36.88256 224.554849,35.6943222 C225.384923,34.4442465 227.669766,34.3709924 226.870118,36.5876411 C226.291063,38.1916195 226.632411,38.9155978 226.768379,39.6405276 C227.487206,43.4925492 225.708205,48.8067978 225.194757,51.1338032 C224.706981,53.3533059 224.204944,56.9522681 222.306137,58.3564627 C220.7154,59.5332843 218.704396,60.1364411 216.730474,59.9975438 C212.737942,59.7168951 210.470214,56.6012195 208.799606,53.2943222 C207.219328,50.169133 206.741061,49.0199005 205.659017,45.7282249 C204.476185,42.12736 203.843884,41.0285492 202.000226,36.8169168 C200.121387,32.5234681 202.336819,33.064787 203.383682,34.3424519 C204.279364,35.4365059 204.18333,35.5982357 204.911665,36.8245276 C205.393736,37.6369816 205.861544,38.4285059 206.280859,39.2780627 C206.502403,39.7271005 207.401887,41.3282249 207.827859,41.5080303 C208.309929,41.7116195 208.424029,41.3729384 208.368881,40.8639654 C208.233863,39.6062789 207.166082,37.3315978 206.629814,36.1671438 C206.111612,35.0407438 203.469257,30.0252195 204.67586,29.3640303 C206.179121,28.5411114 207.997106,32.1733708 208.344159,32.9411114 C208.651277,33.625133 208.956493,34.3110573 209.255054,34.9988843 C209.825551,36.3107978 210.329491,37.8158357 211.293632,38.8765924 C211.574126,39.186733 211.968721,39.4645276 212.318626,39.3427546 C213.048863,39.0877924 212.761712,38.1611762 212.522103,37.5342357 C211.645439,35.2395762 210.751659,32.9430141 209.796076,30.6807005 C208.679802,28.0378465 208.018976,26.0866249 208.761573,25.5966789 C209.684829,24.9878141 211.327862,26.0656951 212.583907,29.3878141" id="Fill-239" fill="#FFD4AE"></path>
                        <path d="M165.143703,106.384579 C165.077145,106.274223 164.950685,106.209531 164.821372,106.215239 C164.804257,106.215239 163.071846,106.247585 160.351523,103.142374 C159.952175,102.688579 159.343644,101.528882 158.574423,100.061898 C156.543452,96.1927524 153.143286,89.7159524 147.939397,85.2978768 C141.367265,79.7162984 131.848512,77.3988065 119.650322,78.410093 C96.8370737,80.3013795 93.587139,94.6696389 93.2790703,96.4020497 C92.0021065,97.2830011 83.3314937,104.14605 86.8780872,125.84352 C86.8856938,125.930093 87.7794734,134.507477 92.7656225,142.638677 C95.8824411,147.72365 95.9261792,150.642396 95.414633,152.19405 C94.9696449,153.546871 94.0482913,154.010179 93.7763541,154.119585 C92.9862149,154.438288 93.008084,154.932039 93.0556254,155.128969 C93.3113985,156.208752 96.1401158,157.00979 98.1482674,156.844255 C99.0781785,156.766244 99.8531044,156.503671 100.427405,156.072709 C100.551013,156.837596 100.55862,158.223715 99.3073284,159.178871 C98.9003734,159.489963 98.9707348,159.821034 99.0211288,159.948515 C99.3368041,160.771434 101.515154,160.81805 102.752183,160.715304 C103.908392,160.619217 105.923199,160.291001 107.740234,159.185531 C107.352295,159.992277 106.935832,160.718158 106.633469,161.187174 C106.569763,161.288017 106.558353,161.413596 106.604944,161.523001 C106.651534,161.632406 106.74947,161.711369 106.866422,161.735152 C107.388427,161.83885 107.915186,161.868342 108.427683,161.825531 C111.940047,161.534417 114.25912,157.947823 114.393187,154.791239 C114.416007,154.234698 114.357055,153.698136 114.219185,153.21485 C123.593412,153.055023 140.68552,152.784839 141.425265,152.857142 C141.572644,152.897098 142.001468,153.324255 142.379898,153.70099 C143.990603,155.310677 146.992371,158.304579 151.902454,157.89645 C152.478656,157.849834 153.069121,157.754698 153.661488,157.615801 C155.608787,157.158201 156.116529,156.937488 156.250596,156.492255 C156.370401,156.095542 156.074693,155.779693 155.699115,155.380125 C154.999305,154.635217 153.852605,153.413682 154.038016,150.767974 C154.522939,150.899261 155.354915,151.062893 156.281023,150.985834 C157.383985,150.894504 158.31865,150.490179 159.055543,149.784277 C159.367415,149.485552 159.68309,149.12499 159.652664,148.731131 C159.621286,148.345834 159.299906,148.124169 158.959509,147.888234 C158.136091,147.319325 156.764044,146.367974 157.536118,142.290482 C157.905039,141.769142 160.157554,138.452731 161.662717,132.999585 C163.117486,127.731001 164.090184,119.434266 160.593034,109.593488 C160.786052,109.609661 161.017104,109.614417 161.271926,109.593488 C162.377741,109.501206 163.950412,108.93325 165.156064,106.747044 C165.218819,106.633834 165.213114,106.494936 165.143703,106.384579" id="Fill-241" fill="#331907"></path>
                        <path d="M147.318886,96.3405924 C142.352704,90.3223438 133.889372,86.2838573 126.233294,86.6120735 C126.232343,86.6120735 126.083063,86.618733 125.836798,86.6291978 L125.819683,86.3304735 C125.819683,86.3304735 123.975074,86.5559438 122.072465,86.7909276 C120.156544,86.8727438 118.300525,86.9536086 118.300525,86.9536086 L118.331902,87.2513816 C118.089441,87.2818249 117.940161,87.3008519 117.940161,87.3008519 C110.333526,88.2369816 102.848597,93.7338897 98.7410144,100.368614 C91.9368796,111.356722 97.283393,134.237674 99.6157774,142.254711 C104.141725,154.856311 117.440024,161.200874 128.161576,160.31136 C138.883128,159.422798 151.060399,150.544787 153.347144,137.799533 C154.402564,130.395165 156.078877,106.953868 147.318886,96.3405924" id="Fill-243" fill="#F4CD98"></path>
                        <path d="M149.719159,91.9638054 C143.611982,85.8218811 134.499234,83.2066162 122.634785,84.1903135 L122.630982,84.1903135 C119.24698,84.4709622 115.588189,85.0541405 111.758249,85.9227243 C111.363654,86.0092973 101.932378,88.174573 96.1209091,97.7613405 C91.0796119,106.077103 90.4035722,117.238357 94.1118067,130.932108 C94.1850205,131.207049 94.4151212,131.412541 94.6956159,131.455351 C94.7517148,131.463914 94.8087646,131.464865 94.8639127,131.461059 C95.0854559,131.442984 95.2879826,131.323114 95.4106396,131.129038 C95.6416911,130.767524 100.731481,122.623957 101.459816,112.019243 C103.03534,113.869622 106.168323,116.590486 111.37031,117.349665 C111.426409,117.357276 111.480606,117.358227 111.533853,117.35347 C111.814347,117.330638 112.062514,117.144173 112.155695,116.86733 C112.295467,116.450638 112.439042,114.516541 109.229993,106.361557 C113.085606,109.64467 121.261788,115.321384 132.032783,115.6496 C132.059406,115.650551 132.08698,115.6496 132.113603,115.647697 C132.332294,115.629622 132.531017,115.512605 132.654625,115.327092 C132.791545,115.118746 132.810561,114.85427 132.705019,114.6288 L129.464593,107.665859 C132.221047,109.448692 137.508609,112.504432 145.115244,115.316627 C150.138475,117.174616 154.059695,117.188886 155.949944,117.031914 C156.840871,116.957708 157.34386,116.841643 157.363827,116.836886 C157.666191,116.765535 157.888685,116.50867 157.915308,116.200432 C157.968555,115.60013 159.100993,101.399308 149.719159,91.9638054" id="Fill-245" fill="#331907"></path>
                        <path d="M135.184687,146.552726 C135.007833,146.358651 134.771076,146.260662 134.53527,146.28064 L119.418035,147.531667 C119.149901,147.553548 118.907439,147.726694 118.769569,147.998781 C118.631699,148.269916 118.623141,148.60384 118.721077,148.904467 C119.276361,150.594067 122.22108,153.316835 127.410706,152.885872 C132.075475,152.499624 135.698135,150.031818 135.468034,147.294781 C135.444263,147.014132 135.362492,146.743948 135.184687,146.552726" id="Fill-247" fill="#8E5A46"></path>
                        <path d="M133.608022,146.545211 C133.470151,146.436757 133.283789,146.383481 133.093623,146.398703 L120.957237,147.40333 C120.741399,147.421405 120.545528,147.527957 120.429527,147.686832 C120.313526,147.847611 120.291657,148.043589 120.372477,148.213881 C121.352782,150.287827 123.70038,150.244065 126.997856,149.971027 C130.133691,149.711308 133.790581,149.326011 133.822909,146.970465 C133.825762,146.807784 133.747794,146.653665 133.608022,146.545211" id="Fill-249" fill="#FFFFFF"></path>
                        <path d="M113.986897,132.315849 C113.739682,132.30253 113.492466,132.216908 113.284235,132.050422 C110.821587,130.097297 107.497487,129.651114 103.922369,130.799395 C103.276756,131.006789 102.584552,130.650984 102.378222,130.004065 C102.170941,129.358097 102.526551,128.665514 103.172164,128.457168 C107.555488,127.052973 111.687792,127.643762 114.810316,130.124886 C115.343731,130.546335 115.431207,131.320735 115.009039,131.851589 C114.753266,132.175049 114.367229,132.334876 113.986897,132.315849" id="Fill-251" fill="#3A1E0A"></path>
                        <path d="M136.561203,130.327715 C136.185625,130.400017 135.783424,130.295369 135.482011,130.013769 C134.990432,129.546655 134.969514,128.767498 135.436371,128.274698 C138.177612,125.378785 142.18726,124.207671 146.722716,124.980169 C147.3921,125.093379 147.842793,125.727931 147.728693,126.397682 C147.612692,127.067434 146.976587,127.518374 146.310056,127.404212 C142.606576,126.772515 139.37851,127.684861 137.221078,129.96525 C137.036617,130.159325 136.805566,130.280147 136.561203,130.327715" id="Fill-253" fill="#3A1E0A"></path>
                        <path d="M103.237677,122.801384 C102.759409,122.807092 102.302061,122.530249 102.098583,122.065989 C101.825695,121.442854 102.109993,120.717924 102.731835,120.444886 C106.718663,118.702962 111.223692,118.652541 113.944015,120.325968 C114.522119,120.681773 114.703728,121.438097 114.348118,122.016519 C113.992507,122.594941 113.236598,122.778551 112.658494,122.420843 C110.994542,121.397189 107.486933,121.048043 103.716895,122.698638 C103.560008,122.767135 103.397416,122.800432 103.237677,122.801384" id="Fill-255" fill="#3A1E0A"></path>
                        <path d="M134.863877,120.562854 C134.479742,120.594249 134.085148,120.444886 133.818916,120.127135 C133.382485,119.605795 133.451895,118.831395 133.971048,118.395676 C135.96779,116.720346 142.563693,115.704303 145.407624,117.077103 C146.017105,117.372022 146.27478,118.106465 145.980023,118.719135 C145.685266,119.330854 144.948373,119.584865 144.338892,119.2928 C142.397298,118.353816 136.911963,119.135827 135.550376,120.279351 C135.347849,120.448692 135.10824,120.542876 134.863877,120.562854" id="Fill-257" fill="#3A1E0A"></path>
                        <path d="M123.953015,139.294962 C123.918785,139.297816 123.884556,139.298768 123.849375,139.298768 C123.221827,139.294962 122.718839,138.783135 122.723593,138.155243 C122.735003,136.424735 122.414573,129.667286 122.244375,127.607611 C122.192079,126.982573 122.657986,126.433643 123.28173,126.38227 C123.906425,126.329946 124.454102,126.794205 124.506398,127.420195 C124.668039,129.377124 125.004632,136.233514 124.992272,138.171416 C124.988468,138.763157 124.531119,139.247395 123.953015,139.294962" id="Fill-259" fill="#BA8663"></path>
                        <path d="M281.073381,66.2122465 C279.185985,75.744787 269.037783,81.7658897 258.415118,79.6586465 C247.7896,77.5514032 240.705921,68.1139978 242.594268,58.5805059 C244.484517,49.0470141 254.628915,43.0259114 265.255384,45.1331546 C275.879,47.2403978 282.961728,56.6778032 281.073381,66.2122465" id="Fill-261" fill="#D8A54C"></path>
                        <path d="M271.45926,108.900428 C269.783899,113.556342 272.340679,118.739304 277.168991,120.477423 C281.998253,122.21459 287.267749,119.846677 288.941209,115.190763 C290.614668,110.53485 288.060741,105.351888 283.229577,103.613769 C278.402216,101.876601 273.13272,104.242612 271.45926,108.900428" id="Fill-263" fill="#FFD4AE"></path>
                        <path d="M237.343599,103.359092 C237.460551,108.306119 233.396706,112.414054 228.266982,112.534876 C223.136306,112.653795 218.885148,108.739935 218.771049,103.793859 C218.655999,98.8468324 222.717941,94.7379459 227.849567,94.6180757 C232.97739,94.4991568 237.228548,98.4111135 237.343599,103.359092" id="Fill-265" fill="#FFD4AE"></path>
                        <path d="M283.612951,76.8652886 C279.761142,69.8376562 261.687777,62.3819157 261.432004,62.3305427 C261.172428,62.2981968 241.670918,63.6510184 235.793842,69.0984562 C229.911061,74.5506508 227.989434,82.3089211 227.149852,89.9026076 C226.517551,95.6392562 226.093481,104.999602 225.469737,110.738154 C226.58601,123.303602 235.859449,131.969462 248.847778,135.381959 L249.564703,135.473289 L250.273071,135.613137 C263.67406,136.487429 275.210472,131.20077 280.242261,119.635191 C281.464077,113.992726 284.022759,104.979624 285.235066,99.3371589 C286.841017,91.8680995 287.470466,83.8995805 283.612951,76.8652886" id="Fill-267" fill="#FFD4AE"></path>
                        <path d="M277.311805,82.7809816 C276.813571,87.9896303 238.742364,84.1518789 228.241404,98.8455005 C225.717903,102.380722 223.704047,95.2474897 224.907797,87.8317059 C225.31285,85.3334573 226.306467,79.5207005 227.901007,75.6972195 C232.127444,65.5643762 241.469342,56.1060411 261.978731,59.4376735 C280.958236,62.5200519 288.578182,73.3968519 289.072613,88.1066465 C289.264681,93.8280735 289.050744,100.106992 287.001707,106.766452 C287.001707,106.766452 285.934877,104.348117 283.8982,108.41229 C282.141067,111.916117 276.173662,94.6899978 277.311805,82.7809816" id="Fill-269" fill="#E2B356"></path>
                        <path d="M265.678123,109.807161 C265.347234,111.84781 266.730691,113.766685 268.769269,114.097756 C270.807847,114.428826 272.727572,113.045561 273.05846,111.005864 L273.31043,109.453258 C273.641319,107.414512 272.256911,105.492783 270.219284,105.162664 C268.180706,104.831594 266.260981,106.216761 265.930093,108.255507 L265.678123,109.807161 Z" id="Fill-271" fill="#3F3024"></path>
                        <path d="M266.398661,101.907901 C265.973641,101.838452 265.579997,101.584441 265.352749,101.178214 C264.953401,100.47136 265.202518,99.5742357 265.908984,99.1737168 C269.837811,96.9532627 274.57199,99.0938032 276.009644,100.865219 C276.52024,101.497868 276.424206,102.423533 275.791904,102.93536 C275.161505,103.447187 274.234446,103.351101 273.723851,102.719403 C272.985056,101.807057 269.837811,100.335317 267.356147,101.736657 C267.054734,101.907901 266.716238,101.959274 266.398661,101.907901" id="Fill-273" fill="#9B6C1F"></path>
                        <path d="M243.17532,106.152259 C242.844432,108.191957 240.925658,109.575222 238.888031,109.244151 C236.850403,108.913081 235.465996,106.993254 235.796884,104.953557 L236.047903,103.400951 C236.379743,101.362205 238.300418,99.9779892 240.338045,100.308108 C242.375673,100.64013 243.758179,102.560908 243.42729,104.599654 L243.17532,106.152259 Z" id="Fill-275" fill="#3F3024"></path>
                        <path d="M244.990644,98.4304259 C244.673067,98.379053 244.368801,98.2230314 244.134897,97.9652151 C242.225632,95.847507 238.774121,96.2518314 237.785259,96.8816259 C237.099711,97.3201989 236.191669,97.1175611 235.755238,96.4325881 C235.316906,95.7466638 235.519432,94.8381232 236.203079,94.3995503 C238.124705,93.1742097 243.293413,92.641453 246.318001,95.9921124 C246.861876,96.5952692 246.815285,97.5247395 246.21341,98.0698638 C245.867308,98.3828584 245.415664,98.4998746 244.990644,98.4304259" id="Fill-277" fill="#9B6C1F"></path>
                        <path d="M251.37803,127.093215 C251.253471,127.073237 251.127011,127.050404 251.001501,127.024718 C248.05393,126.438685 245.506659,124.692004 244.509239,122.574296 C244.219236,121.956869 244.482615,121.220523 245.099704,120.92941 C245.717743,120.639248 246.452734,120.905626 246.742737,121.522102 C247.396907,122.911075 249.344206,124.177323 251.483572,124.601626 C252.826143,124.874664 255.396235,125.028783 257.515633,123.096588 C258.018622,122.637085 258.801155,122.673237 259.259454,123.178404 C259.717754,123.682621 259.679721,124.46368 259.176732,124.924134 C257.131498,126.787831 254.306584,127.568891 251.37803,127.093215" id="Fill-279" fill="#AA7755"></path>
                        <path d="M252.364135,114.387918 C252.329905,114.381258 252.296626,114.371745 252.264298,114.362231 C251.664325,114.179572 251.32678,113.545021 251.51029,112.944718 C252.01423,111.289366 253.63159,104.720285 254.05471,102.697712 C254.183071,102.084091 254.784946,101.690231 255.397281,101.818664 C256.011516,101.947096 256.404209,102.549302 256.275847,103.162923 C255.873646,105.085604 254.244875,111.753626 253.680083,113.60781 C253.507983,114.172912 252.93178,114.506837 252.364135,114.387918" id="Fill-281" fill="#EAB68F"></path>
                        <path d="M515.175648,96.5319092 C515.721424,100.941423 513.183661,104.883823 509.504902,105.340471 C505.826143,105.795217 502.401256,102.591066 501.854529,98.1825038 C501.308753,93.7739416 503.85032,89.8315416 507.53003,89.3758443 C511.207838,88.920147 514.631774,92.1242984 515.175648,96.5319092" id="Fill-283" fill="#FFD4AE"></path>
                        <path d="M559.073443,96.5319092 C558.527667,100.941423 561.066381,104.883823 564.74514,105.340471 C568.424849,105.795217 571.848786,102.591066 572.39266,98.1825038 C572.939387,93.7739416 570.398771,89.8315416 566.720963,89.3758443 C563.042204,88.920147 559.617317,92.1242984 559.073443,96.5319092" id="Fill-285" fill="#FFD4AE"></path>
                        <path d="M559.794932,69.1726616 C554.388516,61.502867 548.902231,60.7712778 539.953025,60.4012022 L532.015502,61.6322508 C523.063443,62.0023265 519.668983,60.7341751 514.264469,68.4039697 C508.856151,76.0804238 509.096711,70.6643805 509.522683,79.9238832 C509.845965,86.9191697 505.668021,82.0111481 508.559493,101.468186 C511.450014,120.925224 528.339595,127.166089 537.223194,127.166089 C546.110596,127.166089 561.732722,121.947926 565.892601,101.468186 C570.052479,80.9884454 564.604227,86.9191697 564.925607,79.9238832 C565.352529,70.6643805 565.202298,76.850067 559.794932,69.1726616" id="Fill-287" fill="#FFD4AE"></path>
                        <path d="M535.298145,108.629198 C535.265817,108.629198 535.230636,108.627295 535.197357,108.624441 C534.585974,108.569263 534.138133,108.030798 534.19233,107.421933 C534.343512,105.738992 534.577416,99.1394681 534.577416,97.1216519 C534.577416,96.509933 535.073749,96.0133276 535.684182,96.0133276 C536.298417,96.0133276 536.792849,96.509933 536.792849,97.1216519 C536.792849,99.0395762 536.568453,105.736138 536.399205,107.619814 C536.347861,108.195382 535.862938,108.629198 535.298145,108.629198" id="Fill-289" fill="#C68E75"></path>
                        <path d="M516.456986,88.0715416 C516.089015,88.0715416 515.7277,87.9031524 515.490943,87.5844497 C515.0973,87.051693 515.209498,86.3001254 515.741962,85.9062659 C517.973559,84.25472 524.677857,83.6658335 527.093914,86.0090119 C527.569329,86.4704173 527.580739,87.230547 527.119586,87.7071741 C526.658434,88.1828497 525.899672,88.1923632 525.423307,87.7328605 C523.952374,86.3067849 518.619172,86.7634335 517.169157,87.8356065 C516.955221,87.9935308 516.705153,88.0715416 516.456986,88.0715416" id="Fill-291" fill="#66310E"></path>
                        <path d="M548.452774,87.9373059 C548.06959,87.9373059 547.687356,87.7517924 547.457256,87.4074032 C547.087383,86.8565708 547.234762,86.1116627 547.78339,85.7406357 C550.149053,84.1480735 556.100294,83.3365708 559.671609,85.741587 C560.220238,86.1116627 560.365715,86.8565708 559.995842,87.4074032 C559.624068,87.9572843 558.88147,88.1028411 558.331891,87.7327654 C555.625831,85.9118789 550.74142,86.6444195 549.122158,87.7337168 C548.916779,87.8716627 548.683825,87.9373059 548.452774,87.9373059" id="Fill-293" fill="#66310E"></path>
                        <path d="M557.034389,96.3660886 C557.034389,98.9471049 556.747239,97.6161643 553.10271,97.6161643 C549.456279,97.6161643 549.17008,98.9471049 549.17008,96.3660886 C549.17008,93.7869751 550.931966,91.6949535 553.10271,91.6949535 C555.271552,91.6949535 557.034389,93.7869751 557.034389,96.3660886" id="Fill-295" fill="#3A1E0A"></path>
                        <path d="M524.268905,106.560579 C524.268905,108.681142 521.782486,110.400234 518.71416,110.400234 C515.647735,110.400234 513.160366,108.681142 513.160366,106.560579 C513.160366,104.440017 515.647735,102.720925 518.71416,102.720925 C521.782486,102.720925 524.268905,104.440017 524.268905,106.560579" id="Fill-297" fill="#FFB69F"></path>
                        <path d="M561.237911,106.560579 C561.237911,108.681142 558.751492,110.400234 555.683166,110.400234 C552.61579,110.400234 550.12747,108.681142 550.12747,106.560579 C550.12747,104.440017 552.61579,102.720925 555.683166,102.720925 C558.751492,102.720925 561.237911,104.440017 561.237911,106.560579" id="Fill-299" fill="#FFB69F"></path>
                        <path d="M525.228006,96.3660886 C525.228006,98.9471049 524.939905,97.6161643 521.295376,97.6161643 C517.648946,97.6161643 517.362746,98.9471049 517.362746,96.3660886 C517.362746,93.7869751 519.124633,91.6949535 521.295376,91.6949535 C523.46612,91.6949535 525.228006,93.7869751 525.228006,96.3660886" id="Fill-301" fill="#3A1E0A"></path>
                        <path d="M525.228006,96.1598357 C525.228006,98.7379978 523.468021,100.829068 521.297278,100.829068 C519.124633,100.829068 517.362746,98.7379978 517.362746,96.1598357 C517.362746,93.5807222 519.124633,91.4887005 521.297278,91.4887005 C523.468021,91.4887005 525.228006,93.5807222 525.228006,96.1598357" id="Fill-303" fill="#3A1E0A"></path>
                        <path d="M557.034389,96.1598357 C557.034389,98.7379978 555.271552,100.830019 553.10271,100.830019 C550.931966,100.830019 549.17008,98.7379978 549.17008,96.1598357 C549.17008,93.5797708 550.931966,91.4867978 553.10271,91.4867978 C555.271552,91.4867978 557.034389,93.5797708 557.034389,96.1598357" id="Fill-305" fill="#3A1E0A"></path>
                        <path d="M529.186404,112.956705 C530.702026,121.960294 543.749306,120.113721 544.414887,112.956705 L529.186404,112.956705 Z" id="Fill-307" fill="#FFFFFF"></path>
                        <path d="M530.353642,113.879706 C531.580212,117.787857 535.324578,118.112268 536.51882,118.113219 C539.33898,118.113219 542.455798,116.636722 543.298233,113.879706 L530.353642,113.879706 Z M536.51882,119.960744 C533.090129,119.959792 529.128023,118.160787 528.27608,113.109111 C528.232342,112.841782 528.307457,112.567792 528.48241,112.360398 C528.658313,112.153003 528.915988,112.033133 529.186024,112.033133 L544.414507,112.033133 C544.675034,112.033133 544.922249,112.142538 545.098153,112.334711 C545.272155,112.525933 545.357729,112.783749 545.333959,113.042517 C544.914643,117.535749 540.480926,119.960744 536.51882,119.960744 Z" id="Fill-309" fill="#C68E75"></path>
                        <path d="M510.127125,83.2464778 C515.552557,85.3575265 524.072939,75.527213 521.744358,68.11904 C521.514257,71.0805968 535.684467,76.5575265 540.098217,69.73824 C541.184064,78.2499805 551.663154,80.0394724 555.182174,76.6973751 C555.027188,83.0210076 561.95398,88.0840995 564.409022,85.4840562 C562.935236,87.0461751 565.018503,92.8703481 568.715328,92.8703481 C574.252958,92.8703481 569.545402,82.6737643 569.224972,80.0394724 C568.228503,71.7855481 564.0981,62.8181103 557.067668,58.0261535 C556.618877,57.7198184 556.157724,57.4315589 555.683261,57.1661319 C544.453015,50.8815049 535.952601,57.4229968 523.032732,58.8595373 C512.268393,60.0553859 505.926361,67.16864 504.071293,77.2463049 C503.485582,80.4323805 503.337253,83.8791265 503.927718,87.072813 C504.234835,88.7176995 505.551734,91.9237535 506.970372,92.8855697 C511.035167,95.6416346 511.144512,85.4574184 510.127125,83.2464778" id="Fill-311" fill="#66310E"></path>
                        <path d="M412.034815,109.109916 C411.606942,114.714326 415.321832,118.981137 420.417327,119.479645 C425.513772,119.976251 430.053982,116.516186 430.481856,110.909872 C430.91068,105.305462 427.12828,100.358435 422.031835,99.8608778 C416.937291,99.3623697 412.460787,103.503602 412.034815,109.109916" id="Fill-313" fill="#865B2F"></path>
                        <path d="M377.159156,112.536778 C378.668122,117.950919 375.854618,122.859892 370.951191,124.341146 C366.049665,125.819546 360.922794,123.309881 359.413827,117.893838 C357.904861,112.479697 360.652758,106.890508 365.553333,105.411157 C370.453907,103.930854 375.650189,107.120735 377.159156,112.536778" id="Fill-315" fill="#865B2F"></path>
                        <path d="M415.896609,71.2537427 C410.364684,65.1004022 402.327323,61.4919265 394.213896,61.9637968 C394.212945,61.9637968 394.055108,61.9733103 393.795531,61.9885319 L393.771761,61.6707805 C393.771761,61.6707805 391.820659,61.9409643 389.806802,62.2206616 C387.775831,62.3386292 385.809516,62.4537427 385.809516,62.4537427 L385.849451,62.7695914 C385.589874,62.8047914 385.432987,62.8266724 385.432036,62.8276238 C377.383266,63.9426076 370.200701,69.0475589 365.972363,76.1598616 C361.740222,83.2788238 361.912322,91.7058941 363.082793,99.6763157 C363.968015,105.699321 365.997085,115.364099 366.891815,121.387105 C373.594211,139.249678 386.095715,141.185678 397.447667,140.069743 C408.80152,138.954759 421.093842,134.582348 423.787542,115.796013 C423.493735,109.714024 423.604031,99.8389968 423.302619,93.7589103 C422.901369,85.7133319 421.431386,77.4137427 415.896609,71.2537427" id="Fill-317" fill="#865B2F"></path>
                        <path d="M382.328815,108.989665 C382.548456,111.226292 381.20018,113.189881 379.315637,113.374443 C377.432044,113.559957 375.726256,111.896995 375.506614,109.660368 C375.287923,107.423741 376.63715,105.460151 378.520743,105.274638 C380.404336,105.089124 382.109173,106.753038 382.328815,108.989665" id="Fill-319" fill="#331907"></path>
                        <path d="M413.358845,105.940489 C413.577536,108.177116 412.230211,110.140705 410.345667,110.325267 C408.462074,110.510781 406.756286,108.847818 406.536645,106.611191 C406.317003,104.374564 407.667181,102.410975 409.549823,102.225462 C411.434367,102.039948 413.139204,103.703862 413.358845,105.940489" id="Fill-321" fill="#331907"></path>
                        <path d="M383.260152,101.393219 C382.903591,101.428419 382.534669,101.29523 382.2827,101.003165 C381.843416,100.493241 380.754717,100.21069 379.370309,100.24589 C377.117794,100.302971 374.788263,101.179165 374.208257,101.924074 C373.82222,102.422582 373.104344,102.511057 372.605158,102.12576 C372.108825,101.736657 372.018497,101.018387 372.406435,100.52083 C373.634907,98.9406357 376.881038,98.0206789 379.312309,97.9607438 C380.814619,97.9226897 382.848443,98.1605276 384.013209,99.5095438 C384.424918,99.9861708 384.371672,100.709198 383.894355,101.122084 C383.707993,101.28096 383.486449,101.371338 383.260152,101.393219" id="Fill-323" fill="#321806"></path>
                        <path d="M414.227998,98.4463135 C413.928487,98.4758054 413.616615,98.3873297 413.37035,98.174227 C412.41857,97.3532108 410.476026,96.9878919 408.538236,97.2647351 C406.968416,97.4883027 405.681944,98.1076324 405.179906,98.8820324 C404.836657,99.4119351 404.128289,99.5632 403.599628,99.2188108 C403.070967,98.875373 402.919785,98.1675676 403.263985,97.6376649 C404.139699,96.2857946 405.944373,95.3249297 408.215904,95.0005189 C410.277302,94.7036973 413.108872,94.9301189 414.863152,96.4437189 C415.340469,96.8556541 415.393715,97.5767784 414.981055,98.0553081 C414.782332,98.2864865 414.510395,98.4187243 414.227998,98.4463135" id="Fill-325" fill="#321806"></path>
                        <path d="M393.822345,121.819399 C393.795722,121.822253 393.767197,121.824156 393.738672,121.825107 C393.108272,121.84128 392.583414,121.343723 392.568201,120.712026 C392.514954,118.648545 391.953014,110.579183 391.710553,108.117085 C391.6497,107.488242 392.107999,106.929799 392.735547,106.867961 C393.364996,106.806123 393.923133,107.264675 393.984937,107.893518 C394.235956,110.447896 394.795043,118.503939 394.851142,120.652091 C394.868257,121.255248 394.41281,121.761366 393.822345,121.819399" id="Fill-327" fill="#5F3A1B"></path>
                        <path d="M388.640135,107.483676 L388.527937,106.346811 L388.640135,107.483676 Z" id="Fill-329" fill="#321806"></path>
                        <path d="M365.238988,106.805933 C364.858657,99.1466032 363.60166,85.3463005 370.33163,84.6851114 C375.313976,84.1951654 376.779204,85.1997924 391.916407,83.7128303 C405.30979,82.39616 409.054156,80.4963114 414.067879,80.0044627 C419.439114,79.4755114 421.476741,86.5288303 422.557834,96.4809168 C422.781279,98.5310789 423.125479,100.572679 423.444007,102.608571 C423.632271,103.804419 423.836699,104.996463 424.015455,106.19136 C424.08962,106.677501 424.343491,107.974192 424.969137,107.785825 C425.670849,107.577479 425.493044,104.927965 425.508257,104.355252 C425.630914,100.331987 425.368485,96.2421276 424.973891,92.2435978 C424.239851,84.86016 424.989105,70.4300627 410.763747,62.8810897 C402.016117,58.2384951 384.983911,59.3648951 375.835031,63.3795978 C369.462572,66.1756195 363.700547,72.3955546 361.993808,79.1482465 C360.121625,86.5649816 360.736811,92.1560735 362.976965,106.257955 C363.220378,107.788679 363.552217,109.310841 363.915434,110.814928 C364.156945,111.815749 364.388947,112.842257 364.733147,113.811684 C365.483352,115.928441 366.081423,114.307338 365.925487,112.960225 C365.68778,110.905306 365.341678,108.877976 365.238988,106.805933" id="Fill-331" fill="#331907"></path>
                        <path d="M386.937675,125.393436 L405.581537,123.317587 C406.681646,123.194863 407.487949,123.977825 407.102864,124.801695 C405.313403,128.628982 401.409297,131.557241 396.753086,132.075728 C392.096875,132.594214 387.876143,130.57069 385.626481,127.193392 C385.141558,126.465609 385.836614,125.51616 386.937675,125.393436" id="Fill-333" fill="#FFFFFF"></path>
                    </g>
                </g>
            </g>
        </g>
    </g>
</svg>