<?xml version="1.0" encoding="UTF-8"?>
<svg width="39px" height="39px" viewBox="0 0 39 39" version="1.1" xmlns="http://www.w3.org/2000/svg" xmlns:xlink="http://www.w3.org/1999/xlink">
    <!-- Generator: Sketch 48.2 (47327) - http://www.bohemiancoding.com/sketch -->
    <title>LinkedIN</title>
    <desc>Created with Sketch.</desc>
    <defs></defs>
    <g id="dev-sample" stroke="none" stroke-width="1" fill="none" fill-rule="evenodd" transform="translate(-689.000000, -2862.000000)">
        <g id="Footer" transform="translate(0.000000, 2784.000000)">
            <g id="social-icons" transform="translate(590.000000, 79.000000)">
                <g id="LinkedIN" transform="translate(100.000000, 0.000000)">
                    <path d="M0,18.5 C0,8.28273162 8.28273162,0 18.5,0 C28.7172684,0 37,8.28273162 37,18.5 C37,28.7172684 28.7172684,37 18.5,37 C8.28273162,37 0,28.7172684 0,18.5 Z" id="back" stroke="#E1E1E1" stroke-width="1"></path>
                    <path d="M13.0737511,15.3225081 L13.0737511,27.919244 L8.88124654,27.919244 L8.88124654,15.3225081 L13.0737511,15.3225081 Z M13.34988,11.4258295 C13.34988,12.6353482 12.4394416,13.6031639 10.9775825,13.6031639 L10.9507902,13.6031639 C9.54326942,13.6031639 8.63333333,12.6353482 8.63333333,11.4258295 C8.63333333,10.1907275 9.57098278,9.25 11.0052122,9.25 C12.4394416,9.25 13.322669,10.1907275 13.34988,11.4258295 Z M28.1935264,20.6966606 L28.1933589,27.919244 L24.0010218,27.919244 L24.0010218,21.1799832 C24.0010218,19.4872254 23.394342,18.3321338 21.8766376,18.3321338 C20.7183696,18.3321338 20.0284659,19.1108341 19.7254609,19.8629479 C19.6146075,20.1324916 19.5873964,20.5080469 19.5873964,20.8845218 L19.5873964,27.9195784 L15.3943895,27.9195784 C15.3943895,27.9195784 15.4496488,16.5048551 15.3943895,15.3228425 L19.5873964,15.3228425 L19.5873964,17.1070645 C20.1438406,16.2493571 21.1404333,15.0267123 23.3663774,15.0267123 C26.1252387,15.0267123 28.1935264,16.8274881 28.1935264,20.6966606 Z" id="Shape" fill="#737373" fill-rule="evenodd"></path>
                </g>
            </g>
        </g>
    </g>
</svg>