<?xml version="1.0" encoding="UTF-8"?>
<svg width="39px" height="39px" viewBox="0 0 39 39" version="1.1" xmlns="http://www.w3.org/2000/svg" xmlns:xlink="http://www.w3.org/1999/xlink">
    <!-- Generator: Sketch 48.2 (47327) - http://www.bohemiancoding.com/sketch -->
    <title>Twitter</title>
    <desc>Created with Sketch.</desc>
    <defs></defs>
    <g id="dev-sample" stroke="none" stroke-width="1" fill="none" fill-rule="evenodd" transform="translate(-739.000000, -2862.000000)">
        <g id="Footer" transform="translate(0.000000, 2784.000000)">
            <g id="social-icons" transform="translate(590.000000, 79.000000)">
                <g id="Twitter" transform="translate(150.000000, 0.000000)">
                    <path d="M0,18.5 C0,8.28273162 8.28273162,0 18.5,0 C28.7172684,0 37,8.28273162 37,18.5 C37,28.7172684 28.7172684,37 18.5,37 C8.28273162,37 0,28.7172684 0,18.5 Z" id="back" stroke="#E1E1E1" stroke-width="1"></path>
                    <path d="M18.695927,14.9370317 L18.7347481,15.5771735 L18.0877297,15.4987888 C15.7325828,15.1983141 13.6750644,14.1793129 11.9281148,12.4679136 L11.0740505,11.618746 L10.8540643,12.2458236 C10.388211,13.6436841 10.6858395,15.1199294 11.6563671,16.1128023 C12.1739818,16.6614952 12.0575184,16.7398799 11.1646331,16.413277 C10.8540643,16.308764 10.5823165,16.2303793 10.5564358,16.2695717 C10.4658532,16.3610205 10.7764221,17.5498551 11.022289,18.0201634 C11.3587386,18.6733692 12.0445781,19.313511 12.7951194,19.6923703 L13.4291974,19.992845 L12.6786561,20.0059092 C11.9539955,20.0059092 11.9281148,20.0189733 12.005757,20.2933197 C12.2645643,21.1424873 13.2868534,22.0439114 14.4256057,22.4358349 L15.2279085,22.7101814 L14.5291287,23.1282331 C13.4938993,23.7291825 12.2775047,24.0688496 11.0611101,24.0949778 C10.4787936,24.1080419 10,24.1602984 10,24.1994907 C10,24.3301319 11.5787248,25.0617225 12.4974909,25.349133 C15.2537892,26.1983007 18.5277022,25.8325054 20.9863721,24.3823884 C22.7333217,23.3503231 24.4802713,21.2992567 25.2955145,19.313511 C25.735487,18.2553175 26.1754595,16.3218281 26.1754595,15.3942758 C26.1754595,14.7933264 26.2142806,14.7149417 26.9389412,13.9964153 C27.3659733,13.5783636 27.7671247,13.1211195 27.8447669,12.9904783 C27.9741706,12.7422601 27.9612302,12.7422601 27.3012715,12.9643501 C26.2013402,13.3562736 26.0460558,13.3040171 26.5895513,12.7161318 C26.9907026,12.2980801 27.4694963,11.5403613 27.4694963,11.3182713 C27.4694963,11.279079 27.2753907,11.3443995 27.0554045,11.4619766 C26.8224779,11.5926178 26.3048632,11.7885795 25.9166521,11.9061566 L25.2178723,12.1282466 L24.5837943,11.6971307 C24.2344044,11.4619766 23.7426704,11.2006942 23.483863,11.1223095 C22.8239043,10.9394119 21.8145556,10.9655401 21.2192987,11.174566 C19.6017528,11.7624513 18.5794637,13.2778889 18.695927,14.9370317 Z" id="Shape" fill="#737373" fill-rule="evenodd"></path>
                </g>
            </g>
        </g>
    </g>
</svg>