<?xml version="1.0" encoding="UTF-8"?>
<svg width="93px" height="28px" viewBox="0 0 93 28" version="1.1" xmlns="http://www.w3.org/2000/svg" xmlns:xlink="http://www.w3.org/1999/xlink">
    <!-- Generator: Sketch 48.2 (47327) - http://www.bohemiancoding.com/sketch -->
    <title>Xello Logo white</title>
    <desc>Created with Sketch.</desc>
    <defs>
        <polygon id="path-1" points="0.311678276 22.7906977 20.8819955 22.7906977 20.8819955 0.184344186 0.311678276 0.184344186 0.311678276 22.7906977"></polygon>
        <polygon id="path-3" points="0.0532986207 22.7906977 22.8042414 22.7906977 22.8042414 0.184409302 0.0532986207 0.184409302"></polygon>
    </defs>
    <g id="dev-sample" stroke="none" stroke-width="1" fill="none" fill-rule="evenodd" transform="translate(-34.000000, -15.000000)">
        <g id="Nav">
            <g id="Xello-Logo" transform="translate(34.000000, 15.000000)">
                <g id="Page-1">
                    <path d="M0,25.3093953 C0,24.6800465 0.228651724,24.1057209 0.685955172,23.586093 L6.74827241,16.2009302 L1.13235517,9.43144186 C0.862334483,9.10260465 0.6603,8.7884186 0.525931034,8.4875814 C0.391241379,8.18739535 0.323575862,7.8715814 0.323575862,7.54339535 C0.323575862,6.83265116 0.545813793,6.27297674 0.990610345,5.86209302 C1.43444483,5.45088372 1.96678966,5.24674419 2.58700345,5.24674419 C3.07124483,5.24674419 3.49647931,5.35613953 3.8595,5.57460465 C4.22284138,5.79339535 4.55186897,6.0952093 4.84914828,6.47711628 L9.65917241,12.8780465 L14.5487276,6.51716279 C14.8444034,6.13525581 15.1602828,5.82855814 15.4970069,5.59446512 C15.8356552,5.36395349 16.2185586,5.24674419 16.6492448,5.24674419 C17.2963966,5.24674419 17.8428517,5.45088372 18.2860448,5.86209302 C18.7305207,6.27297674 18.9530793,6.79130233 18.9530793,7.42032558 C18.9530793,7.77683721 18.8931103,8.08451163 18.7718897,8.34367442 C18.6509897,8.60446512 18.4823069,8.85646512 18.2661621,9.10260465 L12.4873345,16.117907 L18.4688379,23.2982791 C18.7372552,23.6264651 18.9392897,23.9422791 19.0749414,24.241814 C19.208669,24.5439535 19.2763345,24.8571628 19.2763345,25.1856744 C19.2763345,25.8977209 19.0544172,26.4567442 18.6102621,26.8673023 C18.1667483,27.2785116 17.6315172,27.4836279 17.013869,27.4836279 C16.5289862,27.4836279 16.1043931,27.373907 15.7404103,27.1547907 C15.3764276,26.9366512 15.0457966,26.621814 14.7507621,26.2115814 L9.57803793,19.442093 L4.40531379,26.2115814 C4.10867586,26.5677674 3.79279655,26.8673023 3.45511034,27.114093 C3.11774483,27.3605581 2.72105172,27.4836279 2.26246552,27.4836279 C1.64449655,27.4836279 1.11151034,27.2785116 0.667675862,26.8673023 C0.22287931,26.4567442 0,25.9390698 0,25.3093953" id="Fill-1" fill="#FFFFFF"></path>
                    <g id="Group-5" transform="translate(22.127586, 4.897493)">
                        <mask id="mask-2" fill="white">
                            <use xlink:href="#path-1"></use>
                        </mask>
                        <g id="Clip-4"></g>
                        <path d="M16.1133403,9.94885581 C16.0322059,9.15606512 15.8567886,8.4108093 15.5874093,7.71276279 C15.3170679,7.01569302 14.9543679,6.4071814 14.4961024,5.88755349 C14.0378369,5.36825116 13.4929852,4.96420465 12.8593024,4.6763907 C12.2272231,4.39053023 11.5059921,4.24662326 10.6981748,4.24662326 C9.18933,4.24662326 7.94377138,4.77373953 6.95957483,5.82536744 C5.97634034,6.87894884 5.37793345,8.25453023 5.16178862,9.94885581 L16.1133403,9.94885581 Z M18.9421438,19.9191349 C17.9720576,20.7942977 16.8676024,21.4923442 15.6278162,22.0113209 C14.3886714,22.5299721 12.9333817,22.7907628 11.26323,22.7907628 C9.72808862,22.7907628 8.2933231,22.5172744 6.95957483,21.9706233 C5.62678862,21.4239721 4.46781621,20.6578791 3.48490241,19.6739721 C2.50070586,18.6884372 1.72656103,17.5062512 1.16086448,16.123507 C0.595488621,14.743693 0.311678276,13.217693 0.311678276,11.5497395 L0.311678276,11.4673674 C0.311678276,9.90815814 0.567588621,8.44564651 1.08005069,7.07787907 C1.59155069,5.70946047 2.31246103,4.51229767 3.24181966,3.48736744 C4.17117828,2.46178605 5.26954034,1.65532093 6.53530241,1.06699535 C7.80202655,0.47932093 9.20440241,0.184344186 10.738261,0.184344186 C12.4356714,0.184344186 13.9175783,0.506344186 15.1846231,1.14969302 C16.4497438,1.79141395 17.5070576,2.62587907 18.3562438,3.65211163 C19.2051093,4.6763907 19.8375093,5.81983256 20.2556886,7.07787907 C20.6725852,8.33592558 20.8819955,9.59397209 20.8819955,10.851693 C20.8819955,11.5637395 20.6517403,12.1383907 20.1947576,12.5746698 C19.7361714,13.0135535 19.1977334,13.2320186 18.5784817,13.2320186 L5.20219552,13.2320186 C5.46997138,15.0109953 6.16426448,16.3696465 7.28283,17.3141581 C8.40011276,18.2573674 9.75470586,18.7291349 11.3446852,18.7291349 C12.3670438,18.7291349 13.2903093,18.5591814 14.1119162,18.2166698 C14.9351266,17.8744837 15.6954817,17.4167163 16.3955472,16.8423907 C16.5831507,16.7059721 16.7653024,16.5965767 16.9410403,16.5135535 C17.117099,16.4321581 17.3518438,16.3908093 17.648161,16.3908093 C18.186599,16.3908093 18.6448645,16.5829023 19.0216748,16.9651349 C19.4000886,17.3483442 19.5873714,17.8266233 19.5873714,18.4006233 C19.5873714,18.7021116 19.5277231,18.9824372 19.4068231,19.2419256 C19.2846403,19.5023907 19.1300679,19.727693 18.9421438,19.9191349 L18.9421438,19.9191349 Z" id="Fill-3" fill="#FFFFFF" mask="url(#mask-2)"></path>
                    </g>
                    <path d="M48.3034624,2.46185116 C48.3034624,1.77813023 48.5311521,1.19664186 48.9884555,0.717060465 C49.446721,0.239432558 50.0271693,0.000130232558 50.7278762,0.000130232558 C51.427621,0.000130232558 52.0132003,0.239432558 52.4846141,0.717060465 C52.9560279,1.19664186 53.1926969,1.77813023 53.1926969,2.46185116 L53.1926969,24.9399907 C53.1926969,25.6504093 52.9560279,26.2387349 52.4846141,26.7039907 C52.0132003,27.1685953 51.427621,27.401386 50.7278762,27.401386 C50.0537866,27.401386 49.4797521,27.1685953 49.0093003,26.7039907 C48.53949,26.2387349 48.3034624,25.6504093 48.3034624,24.9399907 L48.3034624,2.46185116 Z" id="Fill-6" fill="#FFFFFF"></path>
                    <path d="M59.86038,2.46185116 C59.86038,1.77813023 60.0896731,1.19664186 60.5463352,0.717060465 C61.0055628,0.239432558 61.5840869,0.000130232558 62.2851145,0.000130232558 C62.9858214,0.000130232558 63.5707593,0.239432558 64.0428145,0.717060465 C64.5135869,1.19664186 64.7499352,1.77813023 64.7499352,2.46185116 L64.7499352,24.9399907 C64.7499352,25.6504093 64.5135869,26.2387349 64.0428145,26.7039907 C63.5707593,27.1685953 62.9858214,27.401386 62.2851145,27.401386 C61.6107041,27.401386 61.0379524,27.1685953 60.5675007,26.7039907 C60.0954455,26.2387349 59.86038,25.6504093 59.86038,24.9399907 L59.86038,2.46185116 Z" id="Fill-8" fill="#FFFFFF"></path>
                    <g id="Group-12" transform="translate(69.910345, 4.897493)">
                        <mask id="mask-4" fill="white">
                            <use xlink:href="#path-3"></use>
                        </mask>
                        <g id="Clip-11"></g>
                        <path d="M11.4477228,18.4420372 C12.4447469,18.4420372 13.3410745,18.2577581 14.1363848,17.8885488 C14.9307331,17.5193395 15.6105952,17.0270605 16.175971,16.411386 C16.7426297,15.7950605 17.1736366,15.071293 17.4702745,14.2371535 C17.7672331,13.403014 17.914109,12.5203628 17.914109,11.5901767 L17.914109,11.5081302 C17.914109,10.5512465 17.7528021,9.64808372 17.4298676,8.80059535 C17.105971,7.95343256 16.6550814,7.21468837 16.0752745,6.58566512 C15.4957883,5.95664186 14.8095124,5.45687442 14.0142021,5.08766512 C13.2201745,4.71910698 12.3379572,4.53352558 11.367871,4.53352558 C10.3981055,4.53352558 9.51492621,4.71910698 8.72057793,5.08766512 C7.92622966,5.45687442 7.24668828,5.94882791 6.68099172,6.56450233 C6.11337103,7.17985116 5.68268483,7.90524651 5.38700897,8.73873488 C5.08972966,9.57385116 4.94349517,10.4685488 4.94349517,11.4257581 L4.94349517,11.5081302 C4.94349517,12.4386419 5.10384,13.3274791 5.42773655,14.1746419 C5.75067103,15.023107 6.20059862,15.7618512 6.7810469,16.3905488 C7.36117448,17.0195721 8.04680897,17.5193395 8.84244,17.8885488 C9.63678828,18.2577581 10.5058572,18.4420372 11.4477228,18.4420372 M11.367871,22.7908279 C9.75127448,22.7908279 8.24948483,22.4971535 6.86154,21.9091535 C5.47423655,21.3214791 4.27485724,20.5218512 3.2656469,19.5089674 C2.2548331,18.497386 1.46657793,17.3070605 0.90056069,15.9399442 C0.335505517,14.5721767 0.0532986207,13.123014 0.0532986207,11.5901767 L0.0532986207,11.5081302 C0.0532986207,9.94892093 0.34224,8.4864093 0.922688276,7.11831628 C1.50057103,5.75087442 2.29588138,4.55403721 3.30637448,3.52845581 C4.31622621,2.50287442 5.51432276,1.68989767 6.90290897,1.08724651 C8.28925034,0.485897674 9.80547103,0.184409302 11.4477228,0.184409302 C13.0915779,0.184409302 14.6068366,0.479386047 15.9954228,1.06706047 C17.3820848,1.65538605 18.5817848,2.46152558 19.5916366,3.48743256 C20.602771,4.51203721 21.3894228,5.70301395 21.9567228,7.05645581 C22.5201745,8.41022326 22.8043055,9.8672 22.8043055,11.4257581 L22.8043055,11.5081302 C22.8043055,13.0399907 22.5144021,14.4898047 21.9355572,15.8572465 C21.3554297,17.225014 20.5614021,18.4212 19.550909,19.4467814 C18.5413779,20.4736651 17.3352641,21.287293 15.934171,21.8886419 C14.5337193,22.4893395 13.0114055,22.7908279 11.367871,22.7908279" id="Fill-10" fill="#FFFFFF" mask="url(#mask-4)"></path>
                    </g>
                    <path d="M76.9722517,16.3418093 L76.9722517,16.3971581 C76.9722517,17.0229256 77.0822483,17.6223209 77.3006379,18.190786 C77.5177448,18.7621814 77.8201552,19.2606465 78.2104345,19.6829256 C78.6010345,20.1071581 79.0628276,20.442507 79.5977379,20.6912512 C80.132969,20.9399953 80.7175862,21.0640419 81.3525517,21.0640419 C82.0234345,21.0640419 82.6256897,20.9399953 83.1606,20.6912512 C83.695831,20.442507 84.1544172,20.1113907 84.5341138,19.6969256 C84.9147724,19.2837628 85.2056379,18.7950651 85.406069,18.2331116 C85.6045759,17.6711581 85.7039897,17.0779488 85.7039897,16.4521814 L85.7039897,16.3460419 L76.9722517,16.3418093 Z" id="Fill-13" fill="#82C31F"></path>
                </g>
            </g>
        </g>
    </g>
</svg>