<?xml version="1.0" encoding="UTF-8"?>
<svg width="82px" height="90px" viewBox="0 0 82 90" version="1.1" xmlns="http://www.w3.org/2000/svg" xmlns:xlink="http://www.w3.org/1999/xlink">
    <!-- Generator: Sketch 48.2 (47327) - http://www.bohemiancoding.com/sketch -->
    <title>xello-symbol-green-smile</title>
    <desc>Created with Sketch.</desc>
    <defs></defs>
    <g id="dev-sample" stroke="none" stroke-width="1" fill="none" fill-rule="evenodd" transform="translate(-642.000000, -1993.000000)">
        <g id="PARTIAL---04" transform="translate(256.000000, 1993.000000)">
            <g id="symbol-gray-green" transform="translate(386.000000, 0.000000)">
                <g id="Group-2">
                    <path d="M64.6926452,44.1682365 C64.4654109,42.878935 64.2705311,40.2852718 63.530891,37.8491899 C60.9575753,29.3743283 55.4460147,23.4707232 46.5492648,21.3204181 C37.9896042,19.2512912 30.1816227,21.1514498 23.9770726,27.4649866 C17.49939,34.0569538 16.1416274,42.1824918 17.8748533,50.836974 C20.8018118,65.4519962 36.2108562,73.6208783 50.1127803,68.0963499 C59.0941787,64.5274459 64.6873782,55.8332928 64.6926452,44.1682365 M71.5796506,71.4904086 C72.9784207,73.1455632 74.4170697,74.6835419 75.6536909,76.3633071 C76.5889632,77.6342424 77.5001577,79.0087627 78.0110587,80.4736443 C79.0870357,83.5598868 77.9997722,86.3732088 75.3380459,88.1995356 C72.7910653,89.9465208 68.9487739,90.217972 66.7279724,88.3369142 C64.4323039,86.3915749 62.4334697,84.0884637 60.4602181,81.8136363 C59.5847641,80.8042345 58.9647605,80.5640056 57.6510151,81.1054388 C46.4341428,85.7252522 35.1600856,85.7311293 23.9232738,81.1653123 C22.7528666,80.6899972 22.1727419,80.897167 21.4244488,81.8004127 C19.8131168,83.7450173 18.1280465,85.6392987 16.3650995,87.4542385 C13.2699726,90.6403927 8.25953133,89.7793891 5.93188453,87.7877672 C2.99326337,85.2719764 2.54142826,81.3860731 5.02445216,77.8509626 C6.2249566,76.141077 7.6350132,74.5619582 9.04544602,73.0056133 C9.89531738,72.0678393 10.0100632,71.3754367 9.12595619,70.3399549 C2.2509897,62.2926566 -0.557837032,52.9134473 0.0907589088,42.565609 C0.61031285,34.2846936 3.64637389,26.862578 9.09924487,20.4693322 C10.1582922,19.2277826 10.2177343,18.4395088 9.07328599,17.2589347 C7.70122717,15.8436417 6.45595306,14.2847256 5.3359588,12.6688745 C2.80590793,9.01989412 3.06549679,4.53121483 5.82466305,2.09292897 C8.91978996,-0.642520674 13.8997578,-0.68696668 17.3161729,2.31075113 C19.2510505,4.00814778 20.8360474,6.11033367 22.4323308,8.14015705 C23.2280271,9.15213017 23.8585647,9.29905911 25.0801372,8.82925381 C35.4072593,4.85849905 45.8295641,4.78834048 56.2210191,8.52841679 C58.0328741,9.18041399 58.9286438,8.90969741 60.0286986,7.40918555 C61.4733671,5.43776642 63.0952332,3.49536576 64.9951227,1.95812166 C67.8355515,-0.339847046 71.182743,-0.59219751 74.4945702,1.07985389 C78.1021029,2.90214014 79.4914677,7.34159823 77.4027179,11.0611045 C76.1228319,13.3407071 74.353113,15.3808155 72.6428363,17.3988846 C71.7696395,18.4292238 71.8407443,19.0533045 72.6740622,20.0432383 C84.9360619,34.6105086 84.953744,55.3950772 72.7666113,69.925248 C72.3757231,70.3910128 72.0299808,70.8935097 71.5796506,71.4904086" id="symbol" fill="#737373"></path>
                    <path d="M56.2671761,45.2795031 C56.1334007,52.5194203 52.5730836,57.9076685 46.9197735,60.1440555 C38.0032872,63.6715577 28.1201565,58.4555922 26.242849,49.1236603 C25.9807329,47.8206949 25.8288356,46.5365062 25.8042158,45.2795031 L56.2671761,45.2795031 Z" id="smile" fill="#82C31F"></path>
                </g>
            </g>
        </g>
    </g>
</svg>