<?xml version="1.0" encoding="UTF-8"?>
<svg width="97px" height="32px" viewBox="0 0 97 32" version="1.1" xmlns="http://www.w3.org/2000/svg" xmlns:xlink="http://www.w3.org/1999/xlink">
    <!-- Generator: Sketch 48.2 (47327) - http://www.bohemiancoding.com/sketch -->
    <title>xello-logo-white-shadow</title>
    <desc>Created with Sketch.</desc>
    <defs>
        <polygon id="path-1" points="0.303526501 34.2281871 34.2693208 34.2281871 34.2693208 0.169847187 0.303526501 0.169847187 0.303526501 34.2281871"></polygon>
        <polygon id="path-3" points="0.0519046244 34.8896757 36.1412914 34.8896757 36.1412914 0.169907183 0.0519046244 0.169907183"></polygon>
    </defs>
    <g id="dev-sample" stroke="none" stroke-width="1" fill="none" fill-rule="evenodd" transform="translate(-635.000000, -2784.000000)">
        <g id="Footer" transform="translate(0.000000, 2784.000000)">
            <g id="xello-white-shadow" transform="translate(638.000000, 0.771429)">
                <g>
                    <path d="M0,25.9649951 C0,25.3851388 0.222671463,24.8559788 0.66801439,24.3772149 L6.57177504,17.5728282 L1.10273904,11.3356987 C0.839780596,11.0327216 0.643030215,10.7432434 0.512175596,10.4660643 C0.381008675,10.1894852 0.315112912,9.89850712 0.315112912,9.59612993 C0.315112912,8.94127934 0.531538332,8.42561824 0.964701473,8.04704679 C1.39692771,7.66817538 1.91534935,7.48008956 2.51934179,7.48008956 C2.9909181,7.48008956 3.40503081,7.58088196 3.75855689,7.78216678 C4.11239527,7.98375157 4.43281732,8.26183059 4.72232145,8.61370405 L9.40654204,14.5112591 L14.1682136,8.65060126 C14.4561562,8.29872781 14.7637739,8.01614913 15.0916912,7.8004654 C15.4214823,7.58808142 15.7943711,7.48008956 16.2137929,7.48008956 C16.8440188,7.48008956 17.3761817,7.66817538 17.8077833,8.04704679 C18.2406342,8.42561824 18.4573719,8.90318221 18.4573719,9.48273849 C18.4573719,9.81121371 18.3989714,10.0946923 18.2809211,10.3334743 C18.1631832,10.5737562 17.9989123,10.8059387 17.7884206,11.0327216 L12.1607351,17.496334 L17.9857956,24.1120349 C18.2471925,24.4144121 18.4439429,24.7053901 18.5760467,24.9813693 C18.7062767,25.2597483 18.7721725,25.5483265 18.7721725,25.8510037 C18.7721725,26.5070542 18.5560594,27.0221154 18.1235208,27.4003868 C17.6916069,27.7792582 17.1703745,27.968244 16.5688805,27.968244 C16.0966796,27.968244 15.6831915,27.8671516 15.3287285,27.6652668 C14.9742655,27.464282 14.652282,27.1742039 14.364964,26.7962324 L9.32752959,20.5591029 L4.29009522,26.7962324 C4.00121569,27.1244076 3.69359803,27.4003868 3.36474382,27.6277697 C3.03620192,27.8548525 2.6498841,27.968244 2.20329197,27.968244 C1.60148564,27.968244 1.0824394,27.7792582 0.650213165,27.4003868 C0.217050024,27.0221154 0,26.5451513 0,25.9649951" id="Fill-1" stroke="#FFFFFF" stroke-width="6"></path>
                    <g id="Group-5" transform="translate(14.582110, 0.543418)">
                        <mask id="mask-2" fill="white">
                            <use xlink:href="#path-1"></use>
                        </mask>
                        <g id="Clip-4"></g>
                        <path d="M22.658646,15.7813541 C22.5796335,15.0509092 22.4088042,14.364261 22.1464704,13.7211095 C21.8831996,13.078858 21.5299858,12.5182003 21.083706,12.0394364 C20.6374262,11.5609725 20.1068247,11.1887006 19.4897156,10.9235206 C18.874168,10.6601404 18.1718004,10.5275504 17.3851111,10.5275504 C15.9157293,10.5275504 14.7027476,11.0132138 13.7442922,11.9821407 C12.7867737,12.9528675 12.2040178,14.2202719 11.9935261,15.7813541 L22.658646,15.7813541 Z M25.4134636,24.9675611 C24.4687495,25.7739003 23.3931807,26.4170518 22.1858204,26.8952157 C20.9790848,27.3730796 19.5618574,27.6133615 17.9353876,27.6133615 C16.440397,27.6133615 15.043157,27.3613805 13.7442922,26.8577185 C12.4463643,26.3540565 11.3177041,25.6482098 10.3604979,24.7416782 C9.40204249,23.8336467 8.64814499,22.7444288 8.09724393,21.4704249 C7.54665516,20.1991208 7.27026772,18.7931269 7.27026772,17.2563428 L7.27026772,17.1804486 C7.27026772,15.7438569 7.51948487,14.3963586 8.01854377,13.1361537 C8.51666577,11.8753488 9.2187211,10.772332 10.1237729,9.82800321 C11.0288246,8.8830745 12.0984596,8.14003055 13.3311164,7.59797144 C14.56471,7.05651229 15.9304075,6.78473279 17.4241489,6.78473279 C19.0771644,6.78473279 20.5203128,7.08141041 21.7542188,7.67416569 C22.986251,8.26542109 24.0159113,9.03426309 24.8428875,9.97979176 C25.6695514,10.9235206 26.2854113,11.9770411 26.6926534,13.1361537 C27.0986462,14.2952662 27.3025796,15.4543788 27.3025796,16.6131914 C27.3025796,17.2692419 27.0783466,17.7987019 26.633316,18.2006716 C26.1867238,18.6050411 25.6623684,18.8063259 25.0593129,18.8063259 L12.0328762,18.8063259 C12.2936485,20.4454023 12.9697827,21.6972078 14.0590928,22.5674422 C15.1471536,23.4364766 16.4663181,23.8711438 18.0147124,23.8711438 C19.0103317,23.8711438 19.9094498,23.7145556 20.709568,23.3989794 C21.5112477,23.0837032 22.2517162,22.661935 22.9334719,22.132775 C23.1161687,22.0070844 23.2935563,21.9062921 23.4646979,21.8297978 C23.6361518,21.7548035 23.864757,21.7167064 24.1533243,21.7167064 C24.6776796,21.7167064 25.1239595,21.893693 25.4909145,22.2458664 C25.8594311,22.5989398 26.0418156,23.0396066 26.0418156,23.5684667 C26.0418156,23.8462457 25.9837274,24.1045262 25.8659895,24.3436082 C25.7470023,24.5835901 25.5964727,24.7911744 25.4134636,24.9675611 L25.4134636,24.9675611 Z" id="Fill-3" stroke="#FFFFFF" stroke-width="4" mask="url(#mask-2)"></path>
                    </g>
                    <path d="M47.0401118,4.91420313 C47.0401118,4.28425065 47.2618463,3.74849107 47.7071893,3.3066244 C48.1534691,2.8665576 48.7187361,2.64607423 49.4011163,2.64607423 C50.0825597,2.64607423 50.6528235,2.8665576 51.1119078,3.3066244 C51.570992,3.74849107 51.801471,4.28425065 51.801471,4.91420313 L51.801471,25.6246408 C51.801471,26.2791914 51.570992,26.8212505 51.1119078,27.2499182 C50.6528235,27.6779859 50.0825597,27.8924697 49.4011163,27.8924697 C48.7446571,27.8924697 48.1856362,27.6779859 47.7274889,27.2499182 C47.2699662,26.8212505 47.0401118,26.2791914 47.0401118,25.6246408 L47.0401118,4.91420313 Z" id="Fill-6" stroke="#FFFFFF" stroke-width="6"></path>
                    <path d="M58.2947645,4.91420313 C58.2947645,4.28425065 58.5180606,3.74849107 58.9627789,3.3066244 C59.4099956,2.8665576 59.9733888,2.64607423 60.6560814,2.64607423 C61.3384617,2.64607423 61.9081009,2.8665576 62.3678097,3.3066244 C62.8262693,3.74849107 63.056436,4.28425065 63.056436,4.91420313 L63.056436,25.6246408 C63.056436,26.2791914 62.8262693,26.8212505 62.3678097,27.2499182 C61.9081009,27.6779859 61.3384617,27.8924697 60.6560814,27.8924697 C59.9993099,27.8924697 59.4415381,27.6779859 58.9833908,27.2499182 C58.523682,26.8212505 58.2947645,26.2791914 58.2947645,25.6246408 L58.2947645,4.91420313 Z" id="Fill-8" stroke="#FFFFFF" stroke-width="6"></path>
                    <g id="Group-12" transform="translate(61.115137, 0.543418)">
                        <mask id="mask-4" fill="white">
                            <use xlink:href="#path-3"></use>
                        </mask>
                        <g id="Clip-11"></g>
                        <path d="M18.1150551,23.6066238 C19.0860026,23.6066238 19.9588872,23.4368366 20.7333966,23.0966623 C21.5069692,22.7564879 22.1690498,22.3029221 22.7196386,21.7356649 C23.2714766,21.1678078 23.6912107,20.5009581 23.9800902,19.732416 C24.2692821,18.963874 24.4123165,18.1506354 24.4123165,17.2936 L24.4123165,17.2180057 C24.4123165,16.3363722 24.2552285,15.504235 23.9407402,14.7233939 C23.6253149,13.9428528 23.1862181,13.2622041 22.6215757,12.6826479 C22.0572456,12.1030916 21.3889189,11.6426263 20.6144095,11.302452 C19.8411493,10.9628776 18.9820059,10.7918905 18.0372918,10.7918905 C17.09289,10.7918905 16.2328097,10.9628776 15.4592372,11.302452 C14.6856647,11.6426263 14.0238963,12.0958921 13.4729953,12.6631493 C12.9202204,13.2301066 12.5007985,13.8984561 12.2128559,14.6663982 C11.9233518,15.4358402 11.780942,16.260178 11.780942,17.1421115 L11.780942,17.2180057 C11.780942,18.0753411 11.9370931,18.8942793 12.2525183,19.6748204 C12.5670066,20.4565614 13.0051666,21.1372101 13.5704335,21.7164664 C14.1353882,22.2960227 14.8030903,22.7564879 15.577912,23.0966623 C16.3514846,23.4368366 17.1978235,23.6066238 18.1150551,23.6066238 M18.0372918,27.6134215 C16.4629765,27.6134215 15.0004653,27.3428419 13.6488214,26.8010828 C12.2978021,26.2596236 11.1297919,25.5228792 10.1469769,24.5896496 C9.1626004,23.6576199 8.39496161,22.5609027 7.84374824,21.3012977 C7.29347177,20.0410928 7.01864584,18.7058935 7.01864584,17.2936 L7.01864584,17.2180057 C7.01864584,15.7814141 7.30003012,14.4339158 7.86529709,13.1734108 C8.42806564,11.9135059 9.20257508,10.8107891 10.1866393,9.86586036 C11.1700789,8.92093164 12.3368399,8.17188815 13.6891084,7.61663003 C15.0391908,7.06257183 16.5157555,6.78479279 18.1150551,6.78479279 C19.7159161,6.78479279 21.1915439,7.05657228 22.5438124,7.59803144 C23.8942071,8.14009054 25.0625296,8.88283451 26.0459692,9.82806321 C27.030658,10.772092 27.7967353,11.8694092 28.3491979,13.1164151 C28.8979129,14.363721 29.1746126,15.7061198 29.1746126,17.1421115 L29.1746126,17.2180057 C29.1746126,18.6293993 28.8922914,19.9651985 28.328586,21.2251034 C27.7636313,22.4853084 26.9903711,23.5874252 26.0063069,24.5323539 C25.0231796,25.4784826 23.848611,26.228126 22.4841627,26.7821842 C21.120339,27.3356425 19.6378405,27.6134215 18.0372918,27.6134215" id="Fill-10" stroke="#FFFFFF" stroke-width="6" stroke-linecap="square" stroke-linejoin="round" mask="url(#mask-4)"></path>
                    </g>
                </g>
            </g>
        </g>
    </g>
</svg>