<?xml version="1.0" encoding="UTF-8"?>
<svg width="38px" height="39px" viewBox="0 0 38 39" version="1.1" xmlns="http://www.w3.org/2000/svg" xmlns:xlink="http://www.w3.org/1999/xlink">
    <!-- Generator: Sketch 48.2 (47327) - http://www.bohemiancoding.com/sketch -->
    <title>Youtube</title>
    <desc>Created with Sketch.</desc>
    <defs></defs>
    <g id="dev-sample" stroke="none" stroke-width="1" fill="none" fill-rule="evenodd" transform="translate(-589.000000, -2862.000000)">
        <g id="Footer" transform="translate(0.000000, 2784.000000)">
            <g id="social-icons" transform="translate(590.000000, 79.000000)">
                <g id="Youtube">
                    <path d="M0,18.5 C0,8.28273162 8.15872218,0 18.2230172,0 C28.2873121,0 36.4460343,8.28273162 36.4460343,18.5 C36.4460343,28.7172684 28.2873121,37 18.2230172,37 C8.15872218,37 0,28.7172684 0,18.5 Z" id="back" stroke="#E1E1E1" stroke-width="1"></path>
                    <path d="M27.707541,14.776163 C27.707541,14.776163 27.5176885,13.3866286 26.936,12.7747293 C26.1978197,11.9712571 25.3704754,11.967476 24.991377,11.9208431 C22.2752131,11.7166667 18.2009672,11.7166667 18.2009672,11.7166667 L18.1924754,11.7166667 C18.1924754,11.7166667 14.1182295,11.7166667 11.4020656,11.9208431 C11.0223607,11.967476 10.195623,11.9712571 9.45683607,12.7747293 C8.87514754,13.3866286 8.68590164,14.776163 8.68590164,14.776163 C8.68590164,14.776163 8.49180328,16.4083145 8.49180328,18.0398358 L8.49180328,19.569899 C8.49180328,21.2020505 8.68590164,22.8335718 8.68590164,22.8335718 C8.68590164,22.8335718 8.87514754,24.2231061 9.45683607,24.8350054 C10.195623,25.6384777 11.1655082,25.6132707 11.597377,25.6970839 C13.1501639,25.8521068 18.1967213,25.9 18.1967213,25.9 C18.1967213,25.9 22.2752131,25.8936983 24.991377,25.6895218 C25.3704754,25.6422587 26.1978197,25.6384777 26.936,24.8350054 C27.5176885,24.2231061 27.707541,22.8335718 27.707541,22.8335718 C27.707541,22.8335718 27.9016393,21.2020505 27.9016393,19.569899 L27.9016393,18.0398358 C27.9016393,16.4083145 27.707541,14.776163 27.707541,14.776163 L27.707541,14.776163 Z" fill="#737373" fill-rule="evenodd"></path>
                    <polygon id="Path" fill="#FFFFFF" fill-rule="evenodd" points="16.1926557 21.4238718 16.1920492 15.7579746 21.4363443 18.6006909"></polygon>
                </g>
            </g>
        </g>
    </g>
</svg>