<?xml version="1.0" encoding="UTF-8"?> <svg xmlns="http://www.w3.org/2000/svg" xmlns:xlink="http://www.w3.org/1999/xlink" width="160px" height="151px" viewBox="0 0 160 151"> <!-- Generator: Sketch 48.2 (47327) - http://www.bohemiancoding.com/sketch --> <title>img-school</title> <desc>Created with Sketch.</desc> <defs> <path d="M75.3008,0.209322751 C33.8272,0.209322751 0.2056,33.7856508 0.2056,75.2051905 C0.2056,116.62473 33.8272,150.201058 75.3008,150.201058 C116.7752,150.201058 150.3976,116.62473 150.3976,75.2051905 C150.3976,33.7856508 116.7752,0.209322751 75.3008,0.209322751 Z" id="path-1"></path> <path d="M75.3008,0.209322751 C33.8272,0.209322751 0.2056,33.7856508 0.2056,75.2051905 C0.2056,116.62473 33.8272,150.201058 75.3008,150.201058 C116.7752,150.201058 150.3976,116.62473 150.3976,75.2051905 C150.3976,33.7856508 116.7752,0.209322751 75.3008,0.209322751 Z" id="path-3"></path> </defs> <g id="dev-sample" stroke="none" stroke-width="1" fill="none" fill-rule="evenodd" transform="translate(-215.000000, -2385.000000)"> <g id="PARTIAL---05" transform="translate(145.000000, 2368.000000)"> <g id="school" transform="translate(0.000000, 17.000000)"> <g id="img-school" transform="translate(70.000000, 0.000000)"> <g> <path d="M159.99736,75.7953688 C159.99736,117.214908 126.37576,150.791237 84.90136,150.791237 C43.42776,150.791237 9.80616,117.214908 9.80616,75.7953688 C9.80616,34.3758291 43.42776,0.799501058 84.90136,0.799501058 C126.37576,0.799501058 159.99736,34.3758291 159.99736,75.7953688" id="Fill-1" fill="#68C7E9"></path> <g id="Group-120" transform="translate(9.600000, 0.590418)"> <g id="Group-5"> <mask id="mask-2" fill="white"> <use xlink:href="#path-1"></use> </mask> <g id="Clip-4"></g> <polygon id="Fill-3" fill="#2798A9" mask="url(#mask-2)" points="136.19576 46.8682429 135.47496 45.7281529 135.47496 46.8682429"></polygon> </g> <mask id="mask-4" fill="white"> <use xlink:href="#path-3"></use> </mask> <g id="Clip-7"></g> <polygon id="Fill-6" fill="#DA9B8E" mask="url(#mask-4)" points="90.3832 123.628254 165.5416 123.628254 165.5416 42.3870582 90.3832 42.3870582"></polygon> <polygon id="Fill-8" fill="#F3BDB0" mask="url(#mask-4)" points="90.3832 123.628254 91.1248 123.628254 91.1248 42.3870582 90.3832 42.3870582"></polygon> <polygon id="Fill-9" fill="#C48A7B" mask="url(#mask-4)" points="127.9632 123.628254 165.5424 123.628254 165.5424 42.3870582 127.9632 42.3870582"></polygon> <path d="M165.52232,42.3874577 L90.34312,42.3874577 L85.91672,37.2262937 L170.00872,37.2262937 L165.52232,42.3874577 Z M90.38312,123.627854 L165.54152,123.627854 L165.54152,120.806791 L90.38312,120.806791 L90.38312,123.627854 Z" id="Fill-10" fill="#BC8376" mask="url(#mask-4)"></path> <polygon id="Fill-11" fill="#9F6F65" mask="url(#mask-4)" points="165.52232 42.3874577 127.96312 42.3874577 127.96312 37.2262937 170.00872 37.2262937"></polygon> <path d="M171.39104,35.8453228 C171.39104,36.212037 171.24544,36.5627725 170.98624,36.8216296 C170.72704,37.0804868 170.37504,37.2266931 170.00864,37.2266931 L85.87584,37.2266931 C85.50304,37.2362804 85.14144,37.0956667 84.87344,36.8360106 C84.60544,36.5763545 84.45424,36.2192275 84.45424,35.8453228 L84.45424,35.7262804 C84.45424,34.963291 85.07344,34.3449101 85.83664,34.3449101 L169.96944,34.3449101 C170.34224,34.3345238 170.70464,34.4751376 170.97264,34.7347937 C171.24064,34.9952487 171.39184,35.3523757 171.39104,35.7262804 L171.39104,35.8453228 Z" id="Fill-12" fill="#FFF4DA" mask="url(#mask-4)"></path> <path d="M171.39104,35.8453228 C171.39104,36.212037 171.24544,36.5627725 170.98624,36.8216296 C170.72704,37.0804868 170.37504,37.2266931 170.00864,37.2266931 L127.94224,37.2266931 L127.94224,34.3449101 L170.00864,34.3449101 C170.77264,34.3449101 171.39104,34.963291 171.39104,35.7262804 L171.39104,35.8453228 Z" id="Fill-13" fill="#EFE3BC" mask="url(#mask-4)"></path> <polygon id="Fill-14" fill="#FFFFFF" mask="url(#mask-4)" points="91.9664 34.3449101 163.96 34.3449101 163.96 31.7251799 91.9664 31.7251799"></polygon> <polygon id="Fill-15" fill="#EFE3BC" mask="url(#mask-4)" points="127.9632 34.3449101 163.96 34.3449101 163.96 31.7251799 127.9632 31.7251799"></polygon> <polygon id="Fill-16" fill="#B1DFE1" mask="url(#mask-4)" points="92.3464 34.3449101 163.6792 34.3449101 163.6792 32.1246508 92.3464 32.1246508"></polygon> <polygon id="Fill-17" fill="#8CC9CF" mask="url(#mask-4)" points="128.0024 34.3449101 163.6584 34.3449101 163.6584 32.1246508 128.0024 32.1246508"></polygon> <polygon id="Fill-18" fill="#BC8376" mask="url(#mask-4)" points="90.3832 120.206386 165.5416 120.206386 165.5416 119.386672 90.3832 119.386672"></polygon> <path d="M145.43016,93.420664 L127.96296,93.420664 L127.96296,119.387071 L162.69736,119.387071 L145.43016,93.420664 Z M127.96296,120.206786 L127.96296,120.806791 L163.63896,120.806791 L163.25816,120.206786 L127.96296,120.206786 Z" id="Fill-19" fill="#B57F72" mask="url(#mask-4)"></path> <polygon id="Fill-20" fill="#925A54" mask="url(#mask-4)" points="127.96296 123.628254 165.52216 123.628254 163.63896 120.80719 127.96296 120.80719"></polygon> <polygon id="Fill-21" fill="#925A54" mask="url(#mask-4)" points="162.69736 119.386992 127.96296 119.386992 127.96296 120.206706 163.25816 120.206706"></polygon> <polygon id="Fill-22" fill="#EEB2A7" mask="url(#mask-4)" points="111.436 123.628254 144.6888 123.628254 144.6888 97.3214974 111.436 97.3214974"></polygon> <polygon id="Fill-23" fill="#DAA59D" mask="url(#mask-4)" points="128.0632 123.628254 144.6896 123.628254 144.6896 97.3214974 128.0632 97.3214974"></polygon> <polygon id="Fill-24" fill="#DA9B8E" mask="url(#mask-4)" points="115.7432 123.628254 140.2416 123.628254 140.2416 97.3214974 115.7432 97.3214974"></polygon> <polygon id="Fill-25" fill="#C48A7B" mask="url(#mask-4)" points="128.0024 123.628254 140.2616 123.628254 140.2616 97.3214974 128.0024 97.3214974"></polygon> <path d="M147.23328,96.7708667 C147.23328,97.0752635 146.61488,97.3213376 145.85088,97.3213376 L110.25488,97.3213376 C109.49168,97.3213376 108.87248,97.0752635 108.87248,96.7708667 L108.87248,93.8914804 C108.87248,93.5870836 109.49168,93.3402106 110.25488,93.3402106 L145.85088,93.3402106 C146.61488,93.3402106 147.23328,93.5870836 147.23328,93.8914804 L147.23328,96.7708667 Z" id="Fill-26" fill="#FFF2D1" mask="url(#mask-4)"></path> <path d="M147.23328,96.7693487 C147.23328,97.0745444 146.61488,97.3214175 145.85088,97.3214175 L128.00288,97.3214175 L128.00288,93.3203169 L146.03088,93.3203169 C146.79488,93.3203169 147.41408,93.5671899 147.41408,93.8723857 L147.23328,96.7693487 Z" id="Fill-27" fill="#E6D0AB" mask="url(#mask-4)"></path> <polygon id="Fill-28" fill="#FFFFFF" mask="url(#mask-4)" points="116.6248 123.628254 139.4808 123.628254 139.4808 98.1811587 116.6248 98.1811587"></polygon> <polygon id="Fill-29" fill="#C7C2BA" mask="url(#mask-4)" points="128.0024 123.628254 139.4808 123.628254 139.4808 98.1811587 128.0024 98.1811587"></polygon> <polygon id="Fill-30" fill="#1E3136" mask="url(#mask-4)" points="128.3832 122.827714 138.7392 122.827714 138.7392 116.946704 128.3832 116.946704"></polygon> <polygon id="Fill-31" fill="#42555D" mask="url(#mask-4)" points="117.3664 122.827714 127.6624 122.827714 127.6624 116.946704 117.3664 116.946704"></polygon> <polygon id="Fill-32" fill="#1E3136" mask="url(#mask-4)" points="128.3832 116.166138 138.7392 116.166138 138.7392 98.9617249 128.3832 98.9617249"></polygon> <polygon id="Fill-33" fill="#42555D" mask="url(#mask-4)" points="117.3664 116.166138 127.6624 116.166138 127.6624 98.9617249 117.3664 98.9617249"></polygon> <path d="M118.1472,116.107016 L127.6624,116.107016 L127.6624,99.8022116 L118.1472,99.8022116 L118.1472,116.107016 Z M118.1472,122.827714 L127.6624,122.827714 L127.6624,117.007423 L118.1472,117.007423 L118.1472,122.827714 Z" id="Fill-34" fill="#617780" mask="url(#mask-4)"></path> <path d="M129.2248,116.10382 L138.74,116.10382 L138.74,99.8022116 L129.2248,99.8022116 L129.2248,116.10382 Z M129.2248,122.827714 L138.74,122.827714 L138.74,117.006624 L129.2248,117.006624 L129.2248,122.827714 Z" id="Fill-35" fill="#33474F" mask="url(#mask-4)"></path> <polygon id="Fill-36" fill="#C48A7B" mask="url(#mask-4)" points="33.31376 123.628254 90.34336 123.628254 90.34336 69.253873 33.31376 69.253873 33.31376 120.207185 32.07136 120.80719"></polygon> <polygon id="Fill-37" fill="#C48A7B" mask="url(#mask-4)" points="33.31376 123.628254 90.34336 123.628254 90.34336 69.253873 33.31376 69.253873 33.31376 120.207185 32.07136 120.80719"></polygon> <path d="M90.34344,69.2541926 L33.35384,69.2541926 L28.88664,64.073055 L90.34344,64.073055 L90.34344,69.2541926 Z M32.07144,123.627775 L90.34344,123.627775 L90.34344,120.806711 L32.07144,120.806711 L32.07144,123.627775 Z" id="Fill-38" fill="#AB7669" mask="url(#mask-4)"></path> <polygon id="Fill-39" fill="#9B6157" mask="url(#mask-4)" points="90.34344 64.7734074 29.48744 64.7734074 28.88664 64.0727354 90.34344 64.0727354"></polygon> <path d="M28.86688,61.1922307 L90.34368,61.1922307 L90.34368,64.0724159 L28.86688,64.0724159 C28.10288,64.0724159 27.48368,63.4548339 27.48368,62.6926434 L27.48368,62.5520296 C27.49488,61.7978286 28.11088,61.1922307 28.86688,61.1922307" id="Fill-40" fill="#FFF8F0" mask="url(#mask-4)"></path> <path d="M34.936,61.2125238 L90.3432,61.2125238 L90.3432,58.5919947 L34.936,58.5919947 L34.936,61.2125238 Z M28.8672,61.6319683 L90.3432,61.6319683 L90.3432,64.092709 L28.8672,64.092709 C28.5264,64.120672 28.1888,64.0112169 27.9296,63.7899101 C27.6696,63.5678042 27.5096,63.2530212 27.484,62.912672 L27.484,62.7928307 C27.548,62.0929577 28.1656,61.5744444 28.8672,61.6319683 Z" id="Fill-41" fill="#EFE3BC" mask="url(#mask-4)"></path> <polygon id="Fill-42" fill="#B1DFE1" mask="url(#mask-4)" points="35.4368 61.1917513 90.3432 61.1917513 90.3432 59.1113069 35.4368 59.1113069"></polygon> <polygon id="Fill-43" fill="#AB7669" mask="url(#mask-4)" points="40.1648 89.9792222 46.9552 89.9792222 46.9552 78.8971005 40.1648 78.8971005"></polygon> <polygon id="Fill-44" fill="#FFFFFF" mask="url(#mask-4)" points="39.4024 89.2194286 46.1936 89.2194286 46.1936 78.1365079 39.4024 78.1365079"></polygon> <polygon id="Fill-45" fill="#33474F" mask="url(#mask-4)" points="40.1648 88.4788095 45.4928 88.4788095 45.4928 78.8971005 40.1648 78.8971005"></polygon> <polygon id="Fill-46" fill="#516671" mask="url(#mask-4)" points="40.8456 88.4788095 45.4928 88.4788095 45.4928 79.5969735 40.8456 79.5969735"></polygon> <polygon id="Fill-47" fill="#AB7669" mask="url(#mask-4)" points="40.1648 114.886233 46.9552 114.886233 46.9552 103.803312 40.1648 103.803312"></polygon> <polygon id="Fill-48" fill="#FFFFFF" mask="url(#mask-4)" points="39.4024 114.145614 46.1936 114.145614 46.1936 103.062693 39.4024 103.062693"></polygon> <polygon id="Fill-49" fill="#33474F" mask="url(#mask-4)" points="40.1648 113.38582 45.4928 113.38582 45.4928 103.803312 40.1648 103.803312"></polygon> <polygon id="Fill-50" fill="#516671" mask="url(#mask-4)" points="40.8456 113.38582 45.4928 113.38582 45.4928 104.503185 40.8456 104.503185"></polygon> <polygon id="Fill-51" fill="#AB7669" mask="url(#mask-4)" points="53.104 89.9792222 59.8952 89.9792222 59.8952 78.8971005 53.104 78.8971005"></polygon> <polygon id="Fill-52" fill="#FFFFFF" mask="url(#mask-4)" points="52.3432 89.2194286 59.1336 89.2194286 59.1336 78.1365079 52.3432 78.1365079"></polygon> <polygon id="Fill-53" fill="#33474F" mask="url(#mask-4)" points="53.104 88.4788095 58.4328 88.4788095 58.4328 78.8971005 53.104 78.8971005"></polygon> <polygon id="Fill-54" fill="#516671" mask="url(#mask-4)" points="53.7664 88.4788095 58.4136 88.4788095 58.4136 79.5969735 53.7664 79.5969735"></polygon> <polygon id="Fill-55" fill="#AB7669" mask="url(#mask-4)" points="53.104 114.886233 59.8952 114.886233 59.8952 103.803312 53.104 103.803312"></polygon> <polygon id="Fill-56" fill="#FFFFFF" mask="url(#mask-4)" points="52.3432 114.145614 59.1336 114.145614 59.1336 103.062693 52.3432 103.062693"></polygon> <polygon id="Fill-57" fill="#33474F" mask="url(#mask-4)" points="53.104 113.38582 58.4328 113.38582 58.4328 103.803312 53.104 103.803312"></polygon> <polygon id="Fill-58" fill="#516671" mask="url(#mask-4)" points="53.7664 113.38582 58.4136 113.38582 58.4136 104.503185 53.7664 104.503185"></polygon> <polygon id="Fill-59" fill="#AB7669" mask="url(#mask-4)" points="65.704 89.9792222 72.4944 89.9792222 72.4944 78.8971005 65.704 78.8971005"></polygon> <polygon id="Fill-60" fill="#FFFFFF" mask="url(#mask-4)" points="64.9432 89.2194286 71.7336 89.2194286 71.7336 78.1365079 64.9432 78.1365079"></polygon> <polygon id="Fill-61" fill="#33474F" mask="url(#mask-4)" points="65.704 88.4788095 71.0328 88.4788095 71.0328 78.8971005 65.704 78.8971005"></polygon> <polygon id="Fill-62" fill="#516671" mask="url(#mask-4)" points="66.3856 88.4788095 71.0336 88.4788095 71.0336 79.5969735 66.3856 79.5969735"></polygon> <polygon id="Fill-63" fill="#AB7669" mask="url(#mask-4)" points="65.704 114.886233 72.4944 114.886233 72.4944 103.803312 65.704 103.803312"></polygon> <polygon id="Fill-64" fill="#FFFFFF" mask="url(#mask-4)" points="64.9432 114.145614 71.7336 114.145614 71.7336 103.062693 64.9432 103.062693"></polygon> <polygon id="Fill-65" fill="#33474F" mask="url(#mask-4)" points="65.704 113.38582 71.0328 113.38582 71.0328 103.803312 65.704 103.803312"></polygon> <polygon id="Fill-66" fill="#516671" mask="url(#mask-4)" points="66.3856 113.38582 71.0336 113.38582 71.0336 104.503185 66.3856 104.503185"></polygon> <polygon id="Fill-67" fill="#AB7669" mask="url(#mask-4)" points="78.6448 89.9792222 85.4352 89.9792222 85.4352 78.8971005 78.6448 78.8971005"></polygon> <polygon id="Fill-68" fill="#FFFFFF" mask="url(#mask-4)" points="77.884 89.2194286 84.6744 89.2194286 84.6744 78.1365079 77.884 78.1365079"></polygon> <polygon id="Fill-69" fill="#33474F" mask="url(#mask-4)" points="78.6448 88.4788095 83.9728 88.4788095 83.9728 78.8971005 78.6448 78.8971005"></polygon> <polygon id="Fill-70" fill="#516671" mask="url(#mask-4)" points="79.3264 88.4788095 83.9736 88.4788095 83.9736 79.5969735 79.3264 79.5969735"></polygon> <polygon id="Fill-71" fill="#AB7669" mask="url(#mask-4)" points="78.6448 114.886233 85.4352 114.886233 85.4352 103.803312 78.6448 103.803312"></polygon> <polygon id="Fill-72" fill="#FFFFFF" mask="url(#mask-4)" points="77.884 114.145614 84.6744 114.145614 84.6744 103.062693 77.884 103.062693"></polygon> <polygon id="Fill-73" fill="#33474F" mask="url(#mask-4)" points="78.6448 113.38582 83.9728 113.38582 83.9728 103.803312 78.6448 103.803312"></polygon> <polygon id="Fill-74" fill="#516671" mask="url(#mask-4)" points="79.3264 113.38582 83.9736 113.38582 83.9736 104.503185 79.3264 104.503185"></polygon> <polygon id="Fill-75" fill="#C48A7B" mask="url(#mask-4)" points="98.196 114.886233 104.9864 114.886233 104.9864 103.803312 98.196 103.803312"></polygon> <polygon id="Fill-76" fill="#FFFFFF" mask="url(#mask-4)" points="97.4352 114.145614 104.2256 114.145614 104.2256 103.062693 97.4352 103.062693"></polygon> <polygon id="Fill-77" fill="#42555D" mask="url(#mask-4)" points="98.196 113.38582 103.524 113.38582 103.524 103.803312 98.196 103.803312"></polygon> <polygon id="Fill-78" fill="#617780" mask="url(#mask-4)" points="98.8768 113.38582 103.524 113.38582 103.524 104.503185 98.8768 104.503185"></polygon> <polygon id="Fill-79" fill="#C48A7B" mask="url(#mask-4)" points="98.196 87.7789365 104.9864 87.7789365 104.9864 76.6960159 98.196 76.6960159"></polygon> <polygon id="Fill-80" fill="#FFFFFF" mask="url(#mask-4)" points="97.4352 87.0191429 104.2256 87.0191429 104.2256 75.9362222 97.4352 75.9362222"></polygon> <polygon id="Fill-81" fill="#42555D" mask="url(#mask-4)" points="98.196 86.2785238 103.524 86.2785238 103.524 76.6960159 98.196 76.6960159"></polygon> <polygon id="Fill-82" fill="#617780" mask="url(#mask-4)" points="98.8768 86.2785238 103.524 86.2785238 103.524 77.3966878 98.8768 77.3966878"></polygon> <polygon id="Fill-83" fill="#C48A7B" mask="url(#mask-4)" points="111.5168 87.7789365 118.3072 87.7789365 118.3072 76.6960159 111.5168 76.6960159"></polygon> <polygon id="Fill-84" fill="#FFFFFF" mask="url(#mask-4)" points="110.756 87.0191429 117.5464 87.0191429 117.5464 75.9362222 110.756 75.9362222"></polygon> <polygon id="Fill-85" fill="#42555D" mask="url(#mask-4)" points="111.5168 86.2785238 116.8448 86.2785238 116.8448 76.6960159 111.5168 76.6960159"></polygon> <polygon id="Fill-86" fill="#617780" mask="url(#mask-4)" points="112.1776 86.2785238 116.8256 86.2785238 116.8256 77.3966878 112.1776 77.3966878"></polygon> <polygon id="Fill-87" fill="#C48A7B" mask="url(#mask-4)" points="125.3184 87.7789365 132.1088 87.7789365 132.1088 76.6960159 125.3184 76.6960159"></polygon> <polygon id="Fill-88" fill="#AB7669" mask="url(#mask-4)" points="127.9232 87.7789365 132.1088 87.7789365 132.1088 76.6960159 127.9232 76.6960159"></polygon> <polygon id="Fill-89" fill="#FFFFFF" mask="url(#mask-4)" points="124.5576 87.0191429 131.348 87.0191429 131.348 75.9362222 124.5576 75.9362222"></polygon> <polygon id="Fill-90" fill="#42555D" mask="url(#mask-4)" points="125.3184 86.2785238 130.6472 86.2785238 130.6472 76.6960159 125.3184 76.6960159"></polygon> <polygon id="Fill-91" fill="#1E3136" mask="url(#mask-4)" points="128.0424 86.2785238 130.6472 86.2785238 130.6472 76.6960159 128.0424 76.6960159"></polygon> <polygon id="Fill-92" fill="#516671" mask="url(#mask-4)" points="126 86.2785238 130.648 86.2785238 130.648 77.3966878 126 77.3966878"></polygon> <polygon id="Fill-93" fill="#AB7669" mask="url(#mask-4)" points="138.6392 87.7789365 145.4296 87.7789365 145.4296 76.6960159 138.6392 76.6960159"></polygon> <polygon id="Fill-94" fill="#FFFFFF" mask="url(#mask-4)" points="137.8784 87.0191429 144.6688 87.0191429 144.6688 75.9362222 137.8784 75.9362222"></polygon> <polygon id="Fill-95" fill="#1E3136" mask="url(#mask-4)" points="138.6392 86.2785238 143.968 86.2785238 143.968 76.6960159 138.6392 76.6960159"></polygon> <polygon id="Fill-96" fill="#33474F" mask="url(#mask-4)" points="139.3208 86.2785238 143.9688 86.2785238 143.9688 77.3966878 139.3208 77.3966878"></polygon> <polygon id="Fill-97" fill="#C48A7B" mask="url(#mask-4)" points="98.196 67.2541217 104.9864 67.2541217 104.9864 49.1692751 98.196 49.1692751"></polygon> <polygon id="Fill-98" fill="#FFFFFF" mask="url(#mask-4)" points="97.4352 66.3137672 104.2256 66.3137672 104.2256 48.2289206 97.4352 48.2289206"></polygon> <polygon id="Fill-99" fill="#42555D" mask="url(#mask-4)" points="98.196 65.4133598 103.524 65.4133598 103.524 49.1692751 98.196 49.1692751"></polygon> <polygon id="Fill-100" fill="#617780" mask="url(#mask-4)" points="98.8768 65.4133598 103.524 65.4133598 103.524 49.8691481 98.8768 49.8691481"></polygon> <polygon id="Fill-101" fill="#C48A7B" mask="url(#mask-4)" points="111.5168 67.2541217 118.3072 67.2541217 118.3072 49.1692751 111.5168 49.1692751"></polygon> <polygon id="Fill-102" fill="#FFFFFF" mask="url(#mask-4)" points="110.756 66.3137672 117.5464 66.3137672 117.5464 48.2289206 110.756 48.2289206"></polygon> <polygon id="Fill-103" fill="#42555D" mask="url(#mask-4)" points="111.5168 65.4133598 116.8448 65.4133598 116.8448 49.1692751 111.5168 49.1692751"></polygon> <polygon id="Fill-104" fill="#617780" mask="url(#mask-4)" points="112.1776 65.4133598 116.8256 65.4133598 116.8256 49.8691481 112.1776 49.8691481"></polygon> <polygon id="Fill-105" fill="#C48A7B" mask="url(#mask-4)" points="125.3184 67.2541217 132.1088 67.2541217 132.1088 49.1692751 125.3184 49.1692751"></polygon> <polygon id="Fill-106" fill="#AB7669" mask="url(#mask-4)" points="127.9632 67.2541217 132.1096 67.2541217 132.1096 49.1692751 127.9632 49.1692751"></polygon> <polygon id="Fill-107" fill="#FFFFFF" mask="url(#mask-4)" points="124.5576 66.3137672 131.348 66.3137672 131.348 48.2289206 124.5576 48.2289206"></polygon> <polygon id="Fill-108" fill="#42555D" mask="url(#mask-4)" points="125.3184 65.4133598 130.6472 65.4133598 130.6472 49.1692751 125.3184 49.1692751"></polygon> <polygon id="Fill-109" fill="#1E3136" mask="url(#mask-4)" points="128.0424 65.4133598 130.6472 65.4133598 130.6472 49.1692751 128.0424 49.1692751"></polygon> <path d="M126,86.2785238 L130.648,86.2785238 L130.648,77.3966878 L126,77.3966878 L126,86.2785238 Z M126,65.4133598 L130.648,65.4133598 L130.648,49.8691481 L126,49.8691481 L126,65.4133598 Z" id="Fill-110" fill="#617780" mask="url(#mask-4)"></path> <path d="M128.0424,65.4133598 L130.6472,65.4133598 L130.6472,49.8691481 L128.0424,49.8691481 L128.0424,65.4133598 Z M128.0424,86.2785238 L130.6472,86.2785238 L130.6472,77.3966878 L128.0424,77.3966878 L128.0424,86.2785238 Z" id="Fill-111" fill="#33474F" mask="url(#mask-4)"></path> <polygon id="Fill-112" fill="#AB7669" mask="url(#mask-4)" points="138.6392 67.2541217 145.4296 67.2541217 145.4296 49.1692751 138.6392 49.1692751"></polygon> <polygon id="Fill-113" fill="#FFFFFF" mask="url(#mask-4)" points="137.8784 66.3137672 144.6688 66.3137672 144.6688 48.2289206 137.8784 48.2289206"></polygon> <polygon id="Fill-114" fill="#1E3136" mask="url(#mask-4)" points="138.6392 65.4133598 143.968 65.4133598 143.968 49.1692751 138.6392 49.1692751"></polygon> <polygon id="Fill-115" fill="#33474F" mask="url(#mask-4)" points="139.3208 65.4133598 143.9688 65.4133598 143.9688 49.8691481 139.3208 49.8691481"></polygon> <path d="M33.3136,70.8142063 L90.3432,70.8142063 L90.3432,69.9944921 L33.3136,69.9944921 L33.3136,70.8142063 Z M33.3136,120.206386 L90.3432,120.206386 L90.3432,119.386672 L33.3136,119.386672 L33.3136,120.206386 Z" id="Fill-116" fill="#AB7669" mask="url(#mask-4)"></path> <polygon id="Fill-117" fill="#BC8376" mask="url(#mask-4)" points="90.3832 43.9473915 165.5416 43.9473915 165.5416 43.1276772 90.3832 43.1276772"></polygon> <path d="M90.3832,43.9473915 L91.1248,43.9473915 L91.1248,43.1276772 L90.3832,43.1276772 L90.3832,43.9473915 Z M90.3832,120.206386 L91.1248,120.206386 L91.1248,119.386672 L90.3832,119.386672 L90.3832,120.206386 Z M90.3832,123.628254 L91.1248,123.628254 L91.1248,120.80719 L90.3832,120.80719 L90.3832,123.628254 Z" id="Fill-118" fill="#DA9B8E" mask="url(#mask-4)"></path> <polygon id="Fill-119" fill="#9F6F65" mask="url(#mask-4)" points="127.9632 43.9473915 165.5424 43.9473915 165.5424 43.1276772 127.9632 43.1276772"></polygon> </g> <g id="Group-129" transform="translate(0.000000, 98.061317)"> <path d="M27.42312,17.548437 C27.33672,13.0527915 24.66952,9.00774921 20.56952,7.15020952 C16.46872,5.29346878 11.66472,5.95579153 8.22072,8.85195556 C4.77752,11.7489185 3.30712,16.3644053 4.44232,20.7154423 C1.26712,22.1103947 -0.52088,25.5138868 0.13512,28.9165799 C0.79032,32.319273 3.71432,34.8167651 7.18232,34.9366063 C10.64952,35.0548497 13.73912,32.7634847 14.62712,29.4135217 L15.92152,29.4135217 C17.51912,33.1294 21.41832,35.3081143 25.42472,34.721691 C29.43112,34.1368656 32.54152,30.933109 33.00552,26.9160296 C33.46872,22.8989503 31.16872,19.072818 27.40072,17.5931778 L27.42312,17.548437 Z" id="Fill-121" fill="#44820D"></path> <path d="M23.60432,23.4071571 C20.70672,25.3749508 18.49712,28.1976122 17.28432,31.480464 C15.81072,25.4796122 15.68112,19.2270937 16.90432,13.1703159 C12.32592,20.5741095 14.18032,31.0122841 14.18032,31.0122841 C12.26512,28.7640619 9.67152,27.198136 6.78752,26.5517921 C15.18512,31.2575593 15.29632,36.8102048 13.95632,45.3748608 L18.98192,45.3748608 C17.59632,36.2533423 17.84272,30.5209349 23.60432,23.4071571" id="Fill-123" fill="#79441D"></path> <path d="M48.99736,12.901472 C48.90216,7.97599577 45.98056,3.54426561 41.48856,1.50936085 C36.99576,-0.524744974 31.73256,0.20069418 27.95976,3.37409101 C24.18696,6.54748783 22.57736,11.6039905 23.82056,16.3712762 C20.34136,17.8996519 18.38216,21.6283132 19.10056,25.3561757 C19.81816,29.0840381 23.02296,31.8212127 26.82136,31.9514402 C30.62056,32.0816677 34.00616,29.5705937 34.97816,25.901054 L36.39736,25.901054 C38.14696,29.9716624 42.41896,32.3589005 46.80856,31.7165513 C51.19736,31.0750011 54.60536,27.5652497 55.11336,23.1646783 C55.62056,18.7633079 53.10136,14.5720593 48.97336,12.9502074 L48.99736,12.901472 Z" id="Fill-125" fill="#82C31F"></path> <path d="M44.81376,21.3067392 C41.63936,23.4622841 39.21856,26.5549878 37.88976,30.1518238 C36.27456,23.5773317 36.13216,16.7280037 37.47376,10.0911942 C32.45776,18.2036492 34.48896,29.6397021 34.48896,29.6397021 C32.39136,27.1765646 29.54896,25.4604376 26.39056,24.7517762 C35.58976,29.9081466 35.71216,35.9920884 34.24416,45.3748608 L39.74896,45.3748608 C38.23216,35.3808979 38.50096,29.1020143 44.81376,21.3067392" id="Fill-127" fill="#79441D"></path> </g> </g> </g> </g> </g> </g> </svg> 