<?xml version="1.0" encoding="UTF-8"?> <!-- Generator: Adobe Illustrator 16.0.0, SVG Export Plug-In . SVG Version: 6.00 Build 0) --> <svg xmlns="http://www.w3.org/2000/svg" xmlns:xlink="http://www.w3.org/1999/xlink" id="Layer_1" x="0px" y="0px" width="153.786px" height="157.554px" viewBox="0.5 11.993 153.786 157.554" xml:space="preserve"> <title>img-rocket</title> <desc>Created with Sketch.</desc> <g id="dev-sample" transform="translate(-605.000000, -2369.000000)"> <g id="PARTIAL---05" transform="translate(145.000000, 2368.000000)"> <g id="rocket" transform="translate(387.500000, 0.000000)"> <g id="img-rocket" transform="translate(73.000000, 0.000000)"> <g> <g id="Group-3" transform="translate(0.000000, 16.728545)"> <g id="Clip-2"> </g> <defs> <filter id="Adobe_OpacityMaskFilter" filterUnits="userSpaceOnUse" x="0" y="0.214" width="153.786" height="153.604"> <feColorMatrix type="matrix" values="1 0 0 0 0 0 1 0 0 0 0 0 1 0 0 0 0 0 1 0"></feColorMatrix> </filter> </defs> <mask maskUnits="userSpaceOnUse" x="0" y="0.214" width="153.786" height="153.604" id="mask-2"> <g filter="url(#Adobe_OpacityMaskFilter)"> <polygon id="path-1" fill="#FFFFFF" points="0,0.214 153.786,0.214 153.786,153.818 0,153.818 "></polygon> </g> </mask> <path id="Fill-1" mask="url(#mask-2)" fill="#905DA7" d="M153.786,77.016c0,42.418-34.427,76.803-76.893,76.803 C34.426,153.818,0,119.434,0,77.016C0,34.599,34.426,0.214,76.894,0.214C119.359,0.214,153.786,34.599,153.786,77.016"></path> </g> <g id="Group-504" transform="translate(24.574468, 0.364909)"> <path id="Fill-8" fill="#424242" d="M92.217,13.756c0.259,0.127,0.571,0.021,0.698-0.237l0.147-0.299 c-0.155-0.123-0.316-0.232-0.488-0.317c-0.139-0.068-0.289-0.11-0.44-0.154l-0.153,0.311 C91.854,13.317,91.96,13.63,92.217,13.756"></path> <path id="Fill-10" fill="#F6924A" d="M48.682,127.744l0.311-0.561c-0.428,0.045-0.871,0.076-1.351,0.079 c-0.009,0-0.019-0.001-0.028-0.001l-19.276,39.105c0.75,0.246,1.506,0.48,2.266,0.703l18.59-37.716 C49.027,128.816,48.869,128.27,48.682,127.744"></path> <path id="Fill-12" fill="#FDCD32" d="M43.534,126.798c-0.386-0.085-0.772-0.181-1.164-0.289l-18.791,38.123 c0.363,0.146,0.727,0.29,1.093,0.431L43.534,126.798z"></path> <path id="Fill-14" fill="#FDCD32" d="M33.435,122.184c-0.438-0.318-0.858-0.645-1.257-0.98l-18.903,38.35 c0.45,0.264,0.9,0.523,1.355,0.781L33.435,122.184z"></path> <path id="Fill-16" fill="#F6924A" d="M29.355,118.27c-0.297-0.39-0.549-0.768-0.779-1.139l-0.261,0.598 c-0.525,0.172-1.052,0.359-1.579,0.556l-18.682,37.9c0.644,0.454,1.297,0.896,1.957,1.33L29.355,118.27z"></path> <path id="Fill-18" fill="#F6924A" d="M30.159,114.342c-0.083-0.108-0.152-0.213-0.229-0.321 C30.008,114.129,30.076,114.234,30.159,114.342c0.223,0.294,0.459,0.584,0.703,0.87 C30.619,114.926,30.382,114.635,30.159,114.342"></path> <path id="Fill-20" fill="#FDCD32" d="M38.841,125.248c-0.234-0.102-0.472-0.219-0.708-0.328l-18.685,37.905 c0.235,0.111,0.472,0.221,0.708,0.329L38.841,125.248z"></path> <path id="Fill-22" fill="#FDCD32" d="M35.889,123.764c-0.115-0.065-0.226-0.131-0.338-0.197L16.838,161.53 c0.116,0.061,0.23,0.123,0.347,0.183L35.889,123.764z"></path> <path id="Fill-24" fill="#727372" d="M59.638,132.951c-0.021,0.614-0.053,1.222-0.096,1.824 c0.043-0.603,0.076-1.211,0.097-1.826C59.639,132.95,59.639,132.951,59.638,132.951"></path> <path id="Fill-26" fill="#727372" d="M62.058,108.736c-0.861,0.173-1.819,0.274-2.896,0.281 c-0.242,0.002-0.486-0.011-0.73-0.018c0.244,0.007,0.488,0.02,0.73,0.018C60.239,109.01,61.197,108.909,62.058,108.736"></path> <path id="Fill-28" fill="#727372" d="M66.122,106.492L66.122,106.492c-2.175,3.712-4.485,7.461-6.925,11.247 c0.631,2.525,1.104,5.186,1.376,8.019c0.299,3.143,0.34,6.146,0.134,9.016l1.08-0.003l1.75-3.55l3.466-7.03 c3.354-6.805,3.54-12.595,0.554-17.371c-0.277-0.445-0.58-0.862-0.896-1.266c-0.111,0.192-0.217,0.383-0.33,0.576 C66.269,106.253,66.199,106.374,66.122,106.492"></path> <path id="Fill-30" fill="#9FA0A0" d="M38.341,99.807c-0.12-0.128-0.235-0.258-0.353-0.389 C38.105,99.549,38.221,99.679,38.341,99.807"></path> <path id="Fill-32" fill="#9FA0A0" d="M29.84,103.279c1.466-4.108,2.98-8.104,4.545-11.987 c0.168-0.383,0.329-0.768,0.482-1.156c0.023-0.059,0.046-0.113,0.07-0.169c-0.505-0.005-1.013,0.011-1.528,0.062 c-5.609,0.551-10.091,4.227-13.445,11.031l-3.465,7.03l-1.75,3.552l0.657,0.855c2.152-1.914,4.56-3.713,7.237-5.391 C25.053,105.594,27.452,104.319,29.84,103.279"></path> <path id="Fill-34" fill="#424443" d="M44.64,76.707c0.349,0.618,0.772,1.254,1.271,1.912c0.532,0.687,1.11,1.358,1.734,2.013 c0,0,0,0.001,0.001,0.001v-0.001c0.265-0.537,0.53-1.065,0.796-1.598c0.585-1.177,1.173-2.344,1.762-3.502 c0.779-1.531,1.56-3.048,2.344-4.543c0.664-1.267,1.33-2.524,1.998-3.765c0.657-1.229,1.316-2.443,1.979-3.646 c0.567-1.033,1.136-2.057,1.708-3.071c-0.523-0.548-1-1.111-1.431-1.69c-1.601-2.107-2.399-4.013-2.394-5.716 c0.001-0.242,0.018-0.482,0.052-0.717l0.077-0.687c-0.107,0.178-0.215,0.358-0.324,0.537 c-3.522,5.541-6.897,11.445-10.123,17.713c-0.099,0.202-0.211,0.408-0.334,0.619l-0.227,1.108 C43.224,73.178,43.595,74.855,44.64,76.707"></path> <path id="Fill-36" fill="#424443" d="M30.863,115.212c0.27,0.315,0.55,0.628,0.845,0.937c0.973-2.367,1.94-4.705,2.906-7.016 c0.168-0.382,0.333-0.756,0.496-1.121c0.864-2.031,1.735-4.031,2.608-6.001l0.851-1.96c-0.008-0.022-0.026-0.043-0.059-0.059 c-0.058-0.061-0.111-0.125-0.168-0.186l-3.414,6.926l0.093,0.045L30.863,115.212z"></path> <path id="Fill-38" fill="#424443" d="M33.019,106.932l-3.089,7.089c0.078,0.108,0.146,0.213,0.229,0.321 c0.223,0.293,0.459,0.584,0.703,0.87l4.157-8.434l-0.093-0.046l-0.426,0.864C34.012,107.34,33.517,107.122,33.019,106.932"></path> <path id="Fill-40" fill="#424443" d="M34.927,102.554L34.927,102.554l-1.499,3.44l1.5,0.738l3.414-6.926 c-0.121-0.128-0.235-0.258-0.353-0.389c-0.403-0.448-0.792-0.904-1.155-1.382c-1.684-2.216-2.519-4.214-2.506-5.996 c0.002-0.254,0.021-0.504,0.058-0.749c-1.565,3.883-3.08,7.879-4.545,11.987c1.465-0.639,2.926-1.189,4.382-1.651 L34.927,102.554z"></path> <path id="Fill-42" fill="#424443" d="M34.501,107.597l0.427-0.864l-1.5-0.738l-0.408,0.938 C33.518,107.122,34.012,107.34,34.501,107.597"></path> <path id="Fill-44" fill="#424443" d="M90.645,46.499c-0.062,0.124-0.162,0.21-0.302,0.258 c-0.057,0.019-0.113,0.024-0.167,0.024c-0.079,0.002-0.156-0.01-0.229-0.045c-0.062-0.03-0.114-0.07-0.157-0.121 c-0.015-0.017-0.021-0.041-0.033-0.059c-0.024-0.039-0.051-0.075-0.067-0.12v-0.001c-0.021-0.061-0.026-0.12-0.026-0.178 c0-0.009-0.004-0.017-0.004-0.026c0.004-0.066,0.021-0.13,0.051-0.192c0.062-0.125,0.163-0.21,0.302-0.259 c0.14-0.046,0.271-0.04,0.396,0.021c0.124,0.062,0.211,0.162,0.258,0.3v0.001C90.713,46.242,90.707,46.375,90.645,46.499 M88.31,47.586c-0.061,0.124-0.162,0.21-0.301,0.256c-0.141,0.048-0.272,0.042-0.396-0.02 c-0.125-0.062-0.21-0.162-0.258-0.302c-0.02-0.055-0.022-0.108-0.024-0.162c-0.001-0.014-0.007-0.028-0.007-0.041 c0-0.001,0.002-0.003,0.002-0.005c0.004-0.064,0.021-0.127,0.051-0.187v-0.001c0.061-0.125,0.162-0.211,0.3-0.258 c0.142-0.046,0.272-0.041,0.396,0.021c0.126,0.061,0.21,0.161,0.259,0.301C88.379,47.329,88.373,47.461,88.31,47.586 M85.791,47.702c-0.009,0.036-0.012,0.074-0.029,0.109l-0.001,0.001c-0.062,0.125-0.161,0.21-0.3,0.257 c-0.1,0.035-0.193,0.031-0.285,0.009c-0.037-0.009-0.076-0.012-0.111-0.03c-0.033-0.016-0.057-0.043-0.084-0.064 c-0.045-0.035-0.083-0.077-0.112-0.125c-0.022-0.036-0.047-0.067-0.062-0.111c-0.017-0.049-0.019-0.097-0.021-0.144 c-0.006-0.087,0.002-0.171,0.041-0.251s0.102-0.138,0.173-0.187c0.04-0.027,0.079-0.055,0.13-0.072 c0.08-0.028,0.158-0.031,0.232-0.022c0.056,0.006,0.11,0.017,0.162,0.042c0.126,0.062,0.212,0.162,0.259,0.301 C85.816,47.515,85.813,47.61,85.791,47.702 M83.104,47.55c-0.032,0.065-0.077,0.12-0.13,0.164 c-0.05,0.04-0.104,0.072-0.17,0.095c-0.065,0.022-0.129,0.029-0.191,0.028c-0.034-0.001-0.066-0.013-0.1-0.021 c-0.035-0.008-0.072-0.012-0.106-0.028c-0.075-0.038-0.133-0.095-0.179-0.161c-0.031-0.042-0.061-0.086-0.078-0.14 c-0.02-0.053-0.021-0.104-0.023-0.154c-0.004-0.083,0.006-0.165,0.043-0.242c0.053-0.104,0.137-0.176,0.243-0.226 c0.021-0.009,0.036-0.025,0.06-0.033c0.036-0.013,0.072-0.012,0.109-0.017c0.061-0.008,0.121-0.006,0.178,0.008 c0.037,0.009,0.074,0.012,0.109,0.029c0.041,0.021,0.072,0.052,0.105,0.081c0.025,0.022,0.049,0.045,0.07,0.073 c0.031,0.043,0.062,0.09,0.082,0.147c0.019,0.054,0.021,0.106,0.022,0.159C83.152,47.394,83.142,47.473,83.104,47.55 M80.515,46.858c-0.061,0.124-0.161,0.209-0.301,0.257c-0.14,0.048-0.271,0.042-0.396-0.019 c-0.125-0.062-0.212-0.163-0.258-0.303c-0.049-0.14-0.041-0.271,0.021-0.395c0.062-0.125,0.161-0.211,0.302-0.258 c0.053-0.018,0.104-0.021,0.154-0.023c0.07-0.003,0.139,0.007,0.203,0.033c0.013,0.006,0.027,0.005,0.039,0.011l0,0 c0.104,0.051,0.173,0.134,0.222,0.238c0.012,0.022,0.027,0.038,0.035,0.062C80.584,46.6,80.578,46.732,80.515,46.858 M78.099,45.93c-0.007,0.015-0.02,0.023-0.027,0.036c-0.044,0.074-0.107,0.13-0.184,0.173 c-0.03,0.017-0.056,0.039-0.091,0.051c-0.064,0.021-0.128,0.029-0.19,0.028c-0.004,0-0.008,0.001-0.013,0.001 c-0.066-0.003-0.13-0.021-0.192-0.052c-0.02-0.009-0.032-0.026-0.049-0.038c-0.096-0.061-0.169-0.145-0.209-0.263 c-0.047-0.14-0.041-0.271,0.021-0.396c0.061-0.124,0.161-0.21,0.301-0.258c0.064-0.022,0.128-0.029,0.191-0.028 c0.069,0.001,0.139,0.016,0.205,0.048c0.081,0.04,0.14,0.103,0.188,0.176c0.025,0.039,0.053,0.077,0.069,0.125 c0.014,0.041,0.013,0.08,0.017,0.118C78.149,45.748,78.143,45.841,78.099,45.93 M75.775,44.739 c-0.005,0.014-0.004,0.028-0.012,0.042v0c-0.061,0.125-0.161,0.21-0.301,0.259c-0.139,0.047-0.271,0.04-0.396-0.022 c-0.124-0.061-0.209-0.161-0.258-0.299c-0.047-0.141-0.041-0.272,0.021-0.397s0.163-0.21,0.303-0.259 c0.059-0.02,0.115-0.024,0.172-0.025c0.076,0,0.151,0.011,0.224,0.046c0.077,0.038,0.133,0.095,0.18,0.161 c0.031,0.042,0.061,0.086,0.078,0.141C75.827,44.509,75.818,44.626,75.775,44.739 M73.555,43.377 c-0.024,0.048-0.06,0.085-0.095,0.122c-0.034,0.035-0.074,0.062-0.119,0.087c-0.029,0.015-0.053,0.037-0.088,0.049 c-0.139,0.047-0.271,0.04-0.396-0.021c-0.123-0.062-0.211-0.161-0.257-0.3v-0.001h-0.001c-0.047-0.138-0.04-0.271,0.021-0.396 c0.062-0.125,0.163-0.21,0.302-0.258c0.141-0.046,0.271-0.041,0.396,0.021s0.211,0.162,0.258,0.301 c0.029,0.085,0.031,0.166,0.02,0.245C73.588,43.277,73.579,43.328,73.555,43.377 M71.59,41.714 c-0.031,0.062-0.072,0.115-0.122,0.158s-0.109,0.076-0.179,0.1c-0.141,0.046-0.271,0.041-0.396-0.021 c-0.125-0.062-0.211-0.162-0.259-0.301c-0.047-0.14-0.04-0.271,0.022-0.396c0.061-0.124,0.161-0.212,0.301-0.258 c0.051-0.018,0.102-0.02,0.15-0.022c0.084-0.005,0.167,0.004,0.244,0.043c0,0,0,0,0.002,0c0.062,0.03,0.114,0.071,0.157,0.121 c0.001,0.001,0.001,0.002,0.002,0.003c0.042,0.049,0.074,0.108,0.099,0.177c0.026,0.078,0.031,0.153,0.023,0.228 C71.628,41.602,71.617,41.659,71.59,41.714 M69.855,39.815L69.855,39.815c-0.014,0.03-0.039,0.049-0.057,0.074 c-0.061,0.082-0.138,0.148-0.244,0.184c-0.062,0.021-0.121,0.028-0.18,0.027c-0.008,0-0.016,0.005-0.023,0.004 c-0.006,0-0.012-0.003-0.018-0.004c-0.059-0.005-0.118-0.019-0.175-0.046l-0.001-0.001c-0.125-0.061-0.211-0.16-0.259-0.301 c-0.022-0.068-0.031-0.133-0.028-0.197c0.003-0.068,0.019-0.133,0.05-0.197c0.032-0.063,0.071-0.115,0.122-0.159 c0.049-0.043,0.109-0.077,0.18-0.1c0.055-0.02,0.109-0.023,0.162-0.025c0.08-0.002,0.158,0.008,0.234,0.045 c0.124,0.062,0.21,0.162,0.258,0.3v0.001C69.924,39.559,69.917,39.69,69.855,39.815 M68.492,37.52 c-0.062,0.125-0.162,0.211-0.301,0.258c-0.043,0.014-0.083,0.014-0.124,0.018c-0.095,0.011-0.187,0.004-0.272-0.039 c-0.082-0.04-0.141-0.103-0.189-0.176c-0.025-0.039-0.053-0.076-0.07-0.125c-0.019-0.058-0.023-0.114-0.023-0.169 c-0.002-0.078,0.01-0.154,0.045-0.227c0.062-0.125,0.163-0.209,0.302-0.257c0.058-0.021,0.114-0.025,0.171-0.026 c0.077-0.001,0.153,0.01,0.227,0.046c0.08,0.039,0.139,0.102,0.187,0.174c0.026,0.04,0.054,0.078,0.07,0.127 C68.559,37.264,68.552,37.395,68.492,37.52 M94.369,15.163c-0.333-0.876-0.771-1.52-1.307-1.943l-0.146,0.299 c-0.127,0.258-0.44,0.364-0.699,0.237c-0.258-0.126-0.362-0.439-0.236-0.697l0.153-0.311 c-0.677-0.197-1.462-0.156-2.366,0.152c-3.541,2.633-6.974,5.509-10.312,8.602c-4.193,3.884-8.236,8.117-12.111,12.725l0,0v0 c0.008-0.005,0.021-0.008,0.031-0.013c0.02-0.01,0.039-0.021,0.062-0.028c0.044-0.015,0.085-0.015,0.126-0.019 c0.058-0.005,0.112-0.001,0.166,0.013c0.035,0.009,0.07,0.011,0.104,0.027c0.054,0.026,0.097,0.063,0.134,0.104 c0.054,0.053,0.098,0.117,0.123,0.197c0.047,0.139,0.041,0.271-0.021,0.395c-0.035,0.074-0.089,0.129-0.15,0.176 c-0.046,0.033-0.092,0.063-0.15,0.083c-0.139,0.047-0.271,0.04-0.395-0.021h-0.002c-0.046-0.023-0.082-0.057-0.117-0.091 c-0.061-0.056-0.109-0.123-0.141-0.209c-0.039-0.121-0.043-0.232-0.006-0.339c-0.071,0.085-0.143,0.17-0.215,0.258 c-0.192,0.234-0.383,0.46-0.566,0.679l0.002,0.35c-0.025,0.188-0.037,0.38-0.036,0.575c0.003,1.012,0.364,2.116,1.067,3.31 c0.246,0.417,0.529,0.843,0.861,1.283c0.121,0.156,0.262,0.31,0.393,0.466c0.161,0.192,0.313,0.383,0.486,0.576 c0.027,0.035,0.054,0.07,0.081,0.106c0.019,0.026,0.039,0.052,0.059,0.079h0.001c0.159,0.166,0.332,0.328,0.498,0.492 s0.326,0.33,0.498,0.491c0.289,0.265,0.604,0.517,0.92,0.77c1.355,1.086,2.93,2.082,4.748,2.975 c2.149,1.056,4.223,1.776,6.221,2.159c0.031,0.007,0.064,0.015,0.096,0.021c0.038,0.008,0.076,0.017,0.113,0.024 c0.248,0.038,0.494,0.062,0.74,0.092c0.199,0.024,0.401,0.054,0.6,0.074v0.001c0.094,0.006,0.178,0.011,0.256,0.01 c0.481,0.042,0.951,0.072,1.409,0.083c2.075-0.026,3.626-0.459,4.669-1.283c0.248-0.196,0.477-0.408,0.666-0.65 c0.022-0.027,0.033-0.05,0.052-0.075c0.017-0.025,0.04-0.052,0.052-0.076c0.061-0.202,0.11-0.399,0.148-0.595 c0.023-0.086,0.037-0.175,0.044-0.269c0.024-0.046,0.036-0.088,0.034-0.128c1.349-5.953,2.278-11.81,2.82-17.581 C94.254,24.143,94.445,19.623,94.369,15.163"></path> <path id="Fill-46" fill="#F0F0F0" d="M40.87,91.387c0.428,0.211,0.854,0.444,1.275,0.702l-3.805,7.718 c0.057,0.061,0.111,0.124,0.169,0.186l0.07,0.034l0.62-1.378c1.105-2.459,2.21-4.867,3.316-7.252 c0.69-1.489,1.378-2.975,2.068-4.435c1.019-2.148,2.04-4.259,3.061-6.33c-0.624-0.655-1.202-1.326-1.735-2.013 c-0.498-0.656-0.922-1.294-1.27-1.912c-1.046-1.852-1.416-3.53-1.11-5.034l0.227-1.106v-0.001l-0.483,0.981 c-2.915,5.835-5.693,11.976-8.336,18.417C36.99,89.983,38.967,90.45,40.87,91.387"></path> <path id="Fill-48" fill="#F0F0F0" d="M54.41,53.102c-0.006,1.703,0.793,3.607,2.394,5.715 c0.431,0.579,0.907,1.142,1.431,1.691v-0.001c0.184-0.323,0.362-0.64,0.545-0.961c0.414-0.734,0.83-1.468,1.242-2.194 c0.086-0.148,0.174-0.299,0.26-0.448c0.044-0.076,0.088-0.152,0.131-0.229c1.639-2.85,3.283-5.62,4.938-8.308 c1.292-2.112,2.589-4.173,3.89-6.183c-0.021-0.027-0.041-0.053-0.061-0.079c-0.026-0.035-0.054-0.07-0.08-0.106 c-0.174-0.192-0.326-0.384-0.486-0.575c-0.131-0.155-0.271-0.311-0.395-0.466c-0.33-0.439-0.613-0.866-0.859-1.283 c-0.703-1.193-1.063-2.298-1.067-3.31c-0.001-0.195,0.011-0.387,0.036-0.575l-0.004-0.35c-0.054,0.07-0.107,0.141-0.16,0.211 c-3.793,4.635-7.434,9.625-10.92,14.972c-0.124,0.209-0.255,0.417-0.393,0.619c-0.094,0.146-0.195,0.3-0.312,0.456 l-0.077,0.687C54.427,52.619,54.411,52.859,54.41,53.102"></path> <path id="Fill-50" fill="#F0F0F0" d="M34.385,91.291c-0.036,0.245-0.055,0.494-0.057,0.749 c-0.013,1.782,0.822,3.78,2.506,5.995c0.362,0.477,0.752,0.934,1.155,1.383c0.117,0.131,0.233,0.261,0.353,0.389l3.805-7.717 c-0.422-0.26-0.847-0.492-1.275-0.703c-1.903-0.937-3.88-1.405-5.932-1.422c-0.024,0.057-0.047,0.112-0.07,0.169 C34.714,90.524,34.552,90.909,34.385,91.291"></path> <path id="Fill-52" fill="#F0F0F0" d="M43.531,71.674c-0.306,1.504,0.064,3.182,1.109,5.033 C43.594,74.856,43.225,73.178,43.531,71.674"></path> <path id="Fill-54" fill="#F0F0F0" d="M54.41,53.102c-0.006,1.703,0.792,3.607,2.394,5.715 C55.203,56.709,54.404,54.805,54.41,53.102"></path> <path id="Fill-56" fill="#F0F0F0" d="M56.803,58.817c0.43,0.579,0.907,1.142,1.431,1.69 C57.711,59.959,57.233,59.396,56.803,58.817"></path> <polygon id="Fill-58" fill="#F0F0F0" points="43.531,71.674 43.758,70.566 43.758,70.567 "></polygon> <path id="Fill-60" fill="#F0F0F0" d="M36.833,98.037c0.361,0.476,0.752,0.934,1.155,1.381 C37.585,98.969,37.195,98.512,36.833,98.037c-1.684-2.217-2.519-4.215-2.506-5.997C34.315,93.823,35.149,95.821,36.833,98.037 "></path> <path id="Fill-62" fill="#F0F0F0" d="M67.359,39.673c-0.703-1.193-1.064-2.298-1.068-3.31 C66.295,37.375,66.656,38.48,67.359,39.673"></path> <path id="Fill-64" fill="#F0F0F0" d="M69.179,42.104c-0.026-0.035-0.053-0.071-0.08-0.106 c-0.174-0.192-0.326-0.384-0.486-0.575c0.16,0.191,0.312,0.383,0.485,0.575C69.127,42.034,69.153,42.069,69.179,42.104"></path> <path id="Fill-66" fill="#9F9F9F" d="M90.008,48.091c-1.043,0.825-2.594,1.257-4.668,1.283 c-0.458-0.013-0.93-0.041-1.41-0.083c-0.078,0-0.163-0.003-0.256-0.01c-0.707,2.039-1.467,4.114-2.27,6.218 c-0.082,0.215-0.158,0.426-0.242,0.643c-1.216,3.203-2.513,6.449-3.891,9.735c-0.459,1.096-0.927,2.197-1.404,3.301 c0.27,0.032,0.535,0.049,0.801,0.068c0.492,0.036,0.98,0.061,1.46,0.058c2.415-0.017,4.267-0.474,5.55-1.373 c0.43-0.299,0.795-0.648,1.097-1.045l0.37-0.458c2.316-6.424,4.188-12.749,5.611-18.976c0.008-0.053,0.015-0.109,0.021-0.162 c-0.011,0.023-0.035,0.051-0.052,0.075c-0.019,0.025-0.028,0.048-0.053,0.076C90.484,47.683,90.256,47.895,90.008,48.091"></path> <path id="Fill-68" fill="#9F9F9F" d="M69.01,89.979c-0.877,0.014-1.77-0.039-2.68-0.156c-1.004,2.078-2.049,4.176-3.131,6.293 c-1.988,3.878-4.07,7.826-6.244,11.846l-0.207,0.361c-0.092,0.187-0.193,0.371-0.301,0.55l0,0 c0.112,0.013,0.223,0.017,0.334,0.028l3.815-7.738c0.461,0.176,0.905,0.369,1.333,0.58c1.895,0.932,3.469,2.205,4.73,3.81 c3.564-6.128,6.797-12.179,9.685-18.148l0.184-0.374l-0.348,0.293C74.91,89.077,72.519,89.963,69.01,89.979"></path> <path id="Fill-70" fill="#9F9F9F" d="M61.929,101.743c-0.428-0.211-0.871-0.404-1.333-0.58l-3.814,7.738 c0.556,0.053,1.104,0.084,1.649,0.099c0.244,0.007,0.488,0.02,0.73,0.019c1.078-0.008,2.034-0.108,2.896-0.282 c1.84-0.371,3.203-1.113,4.063-2.244l-0.001,0.001l0.001-0.001c0.077-0.117,0.146-0.238,0.208-0.362 c0.113-0.193,0.218-0.384,0.329-0.577C65.398,103.948,63.824,102.674,61.929,101.743"></path> <path id="Fill-72" fill="#9F9F9F" d="M90.008,48.091c0.248-0.196,0.477-0.408,0.665-0.649 c0.024-0.028,0.034-0.051,0.053-0.076c-0.019,0.025-0.028,0.048-0.053,0.076C90.484,47.683,90.256,47.895,90.008,48.091"></path> <path id="Fill-74" fill="#424443" d="M81.82,50.98c0.047,0.14,0.04,0.272-0.021,0.396c-0.062,0.125-0.162,0.209-0.302,0.259 c-0.138,0.046-0.271,0.04-0.396-0.021s-0.211-0.161-0.258-0.3c-0.047-0.141-0.04-0.271,0.021-0.396 c0.061-0.124,0.16-0.211,0.3-0.259c0.142-0.046,0.272-0.039,0.397,0.021C81.685,50.741,81.773,50.841,81.82,50.98 M80.87,53.792c-0.062,0.125-0.162,0.211-0.302,0.258c-0.14,0.047-0.271,0.04-0.396-0.021 c-0.124-0.062-0.21-0.163-0.258-0.302c-0.047-0.138-0.04-0.271,0.021-0.396c0.062-0.124,0.163-0.209,0.302-0.257 c0.141-0.047,0.271-0.041,0.396,0.02c0.125,0.062,0.211,0.162,0.258,0.301C80.937,53.535,80.93,53.667,80.87,53.792 M79.906,56.219c-0.062,0.125-0.163,0.211-0.303,0.259c-0.139,0.046-0.271,0.041-0.396-0.021 c-0.124-0.061-0.21-0.161-0.258-0.3s-0.041-0.271,0.021-0.396c0.062-0.125,0.163-0.21,0.303-0.258 c0.139-0.047,0.271-0.04,0.395,0.022s0.211,0.16,0.258,0.299C79.972,55.963,79.967,56.095,79.906,56.219 M77.927,60.645 c0.048,0.138,0.039,0.271-0.021,0.396c-0.062,0.124-0.162,0.21-0.301,0.257c-0.14,0.048-0.272,0.041-0.396-0.021 c-0.125-0.061-0.212-0.161-0.258-0.3c-0.049-0.14-0.04-0.271,0.021-0.396c0.062-0.125,0.161-0.211,0.302-0.258 c0.139-0.048,0.27-0.041,0.396,0.021C77.793,60.406,77.879,60.506,77.927,60.645 M76.872,63.434 c-0.062,0.125-0.162,0.21-0.302,0.257c-0.14,0.048-0.271,0.041-0.396-0.021c-0.123-0.061-0.211-0.161-0.258-0.3 c-0.047-0.139-0.04-0.271,0.021-0.396c0.062-0.125,0.162-0.211,0.303-0.257c0.137-0.048,0.271-0.041,0.395,0.02 c0.124,0.061,0.21,0.162,0.258,0.301C76.939,63.176,76.933,63.308,76.872,63.434 M74.838,68.208 c-0.062,0.124-0.163,0.209-0.303,0.257c-0.139,0.047-0.271,0.041-0.395-0.021c-0.125-0.061-0.211-0.163-0.259-0.301 c-0.046-0.14-0.04-0.272,0.021-0.397c0.061-0.124,0.162-0.21,0.301-0.257c0.14-0.047,0.272-0.041,0.396,0.02 c0.124,0.062,0.21,0.162,0.258,0.301S74.898,68.083,74.838,68.208 M75.883,65.443c0.047,0.139,0.039,0.271-0.021,0.396 c-0.062,0.125-0.163,0.209-0.302,0.257c-0.14,0.048-0.272,0.041-0.396-0.02c-0.124-0.062-0.212-0.162-0.257-0.302 c-0.048-0.139-0.041-0.271,0.02-0.395c0.062-0.125,0.163-0.211,0.301-0.258c0.14-0.048,0.272-0.04,0.398,0.021 C75.748,65.203,75.834,65.303,75.883,65.443 M78.915,58.229c0.048,0.138,0.04,0.27-0.021,0.395 c-0.062,0.125-0.161,0.212-0.301,0.259c-0.14,0.048-0.271,0.04-0.396-0.021c-0.125-0.062-0.212-0.161-0.259-0.301 c-0.047-0.139-0.04-0.271,0.022-0.397c0.061-0.124,0.161-0.21,0.299-0.257c0.141-0.048,0.272-0.04,0.398,0.021 C78.781,57.989,78.868,58.089,78.915,58.229 M65.351,48.367c-1.656,2.688-3.301,5.458-4.938,8.309 c-0.045,0.076-0.089,0.152-0.133,0.228c-0.086,0.151-0.172,0.299-0.26,0.45c-0.412,0.725-0.828,1.458-1.242,2.193 c-0.183,0.32-0.361,0.638-0.545,0.961c0.429,0.463,0.895,0.913,1.394,1.354c1.849,1.624,4.104,3.091,6.767,4.401 c2.617,1.286,5.133,2.166,7.55,2.639c0.104,0.021,0.206,0.035,0.308,0.053c0.547,0.097,1.086,0.177,1.615,0.225 c0.477-1.104,0.945-2.205,1.404-3.301c1.378-3.288,2.675-6.533,3.891-9.736c0.084-0.216,0.16-0.428,0.241-0.644 c0.803-2.103,1.563-4.177,2.271-6.216c-0.197-0.021-0.4-0.051-0.6-0.075c-0.247-0.03-0.491-0.055-0.741-0.091 c-0.036-0.008-0.074-0.017-0.112-0.025c-0.031-0.006-0.064-0.014-0.098-0.02c-1.996-0.383-4.07-1.103-6.219-2.159 c-1.818-0.894-3.393-1.89-4.748-2.977c-0.314-0.252-0.631-0.505-0.921-0.769c-0.171-0.163-0.332-0.328-0.497-0.492 c-0.166-0.165-0.338-0.326-0.498-0.492C67.939,44.194,66.642,46.255,65.351,48.367"></path> <path id="Fill-76" fill="#424443" d="M47.645,80.632c0,0,0.001,0.001,0.001,0.002C47.646,80.633,47.645,80.633,47.645,80.632"></path> <path id="Fill-78" fill="#424443" d="M63.547,91.819c-0.139,0.047-0.271,0.041-0.396-0.021 c-0.125-0.062-0.21-0.162-0.259-0.302c-0.046-0.14-0.04-0.271,0.021-0.396c0.062-0.124,0.162-0.21,0.301-0.258 c0.142-0.048,0.272-0.041,0.396,0.02c0.125,0.062,0.212,0.162,0.258,0.302c0.047,0.14,0.041,0.271-0.021,0.396 C63.788,91.685,63.686,91.77,63.547,91.819 M62.719,93.849c-0.061,0.126-0.161,0.21-0.301,0.258s-0.272,0.041-0.396-0.021 c-0.125-0.061-0.211-0.161-0.259-0.301c-0.047-0.139-0.04-0.271,0.021-0.396c0.062-0.125,0.162-0.211,0.302-0.259 c0.14-0.047,0.271-0.039,0.395,0.021c0.126,0.062,0.212,0.16,0.26,0.301C62.789,93.592,62.782,93.724,62.719,93.849 M60.057,98.721c-0.14,0.047-0.271,0.041-0.396-0.02c-0.125-0.062-0.211-0.162-0.258-0.302 c-0.048-0.139-0.039-0.271,0.021-0.396c0.061-0.125,0.16-0.211,0.301-0.259c0.139-0.048,0.271-0.042,0.396,0.021 c0.125,0.061,0.21,0.162,0.256,0.301c0.048,0.141,0.041,0.271-0.021,0.396C60.297,98.586,60.197,98.674,60.057,98.721 M59.172,100.752c-0.061,0.125-0.161,0.211-0.301,0.258c-0.139,0.047-0.271,0.041-0.396-0.021 c-0.125-0.061-0.21-0.161-0.258-0.302c-0.047-0.138-0.041-0.27,0.021-0.395c0.062-0.125,0.162-0.211,0.301-0.258 c0.141-0.049,0.272-0.041,0.396,0.02c0.125,0.062,0.211,0.162,0.259,0.302C59.24,100.495,59.234,100.627,59.172,100.752 M57.951,103.053c-0.061,0.126-0.161,0.211-0.301,0.258c-0.14,0.049-0.271,0.041-0.396-0.021 c-0.125-0.062-0.211-0.161-0.258-0.3c-0.048-0.141-0.041-0.271,0.021-0.396c0.062-0.123,0.162-0.211,0.301-0.258 c0.139-0.049,0.271-0.04,0.396,0.021c0.126,0.061,0.212,0.16,0.259,0.3C58.02,102.797,58.011,102.93,57.951,103.053 M55.533,107.666c-0.062,0.125-0.162,0.211-0.303,0.26c-0.139,0.047-0.271,0.039-0.396-0.022 c-0.123-0.061-0.21-0.16-0.256-0.3c-0.049-0.139-0.043-0.271,0.02-0.396c0.061-0.124,0.162-0.21,0.302-0.258 c0.14-0.047,0.271-0.041,0.396,0.021c0.124,0.061,0.211,0.16,0.258,0.301C55.6,107.41,55.594,107.543,55.533,107.666 M56.517,104.67c0.123,0.061,0.209,0.16,0.256,0.3c0.049,0.14,0.041,0.272-0.02,0.396c-0.062,0.124-0.162,0.21-0.303,0.257 c-0.139,0.049-0.271,0.043-0.395-0.019c-0.126-0.062-0.211-0.163-0.258-0.303c-0.049-0.138-0.041-0.271,0.02-0.396 c0.062-0.123,0.163-0.211,0.303-0.258C56.26,104.601,56.392,104.608,56.517,104.67 M61.546,96.174 c-0.062,0.124-0.162,0.21-0.302,0.258c-0.139,0.048-0.271,0.039-0.396-0.021c-0.123-0.062-0.21-0.16-0.257-0.3 c-0.048-0.141-0.041-0.272,0.021-0.397c0.061-0.124,0.162-0.21,0.301-0.258c0.14-0.047,0.271-0.04,0.396,0.021 c0.125,0.061,0.211,0.16,0.258,0.301C61.615,95.916,61.607,96.049,61.546,96.174 M64.279,89.51 c-0.129-0.027-0.26-0.066-0.389-0.096c-1.35-0.298-2.727-0.713-4.129-1.239c-1.139-0.427-2.291-0.911-3.464-1.488 c-1.159-0.571-2.235-1.179-3.259-1.812c-1.424-0.879-2.732-1.81-3.894-2.809c-0.076-0.067-0.142-0.139-0.216-0.207 c-0.441-0.404-0.875-0.811-1.282-1.227l-0.001,0.001c-1.021,2.07-2.042,4.179-3.061,6.329 c-0.69,1.459-1.379,2.945-2.069,4.434c-1.105,2.385-2.21,4.795-3.316,7.254l-0.62,1.376l-0.011,0.024 c0.831,0.85,1.755,1.657,2.771,2.428c1.608,1.221,3.447,2.34,5.519,3.359c1.763,0.866,3.479,1.541,5.156,2.053 c0.826,0.253,1.646,0.479,2.452,0.646c0.229,0.046,0.452,0.073,0.679,0.114c0.437,0.078,0.875,0.162,1.303,0.221 c0.108-0.178,0.209-0.362,0.301-0.549l0.205-0.362c2.175-4.019,4.257-7.967,6.246-11.845c1.082-2.117,2.127-4.215,3.131-6.293 v-0.002C65.654,89.741,64.97,89.635,64.279,89.51"></path> <path id="Fill-80" fill="#424443" d="M47.647,80.633C47.646,80.633,47.646,80.632,47.647,80.633l-0.002-0.001 C47.645,80.632,47.646,80.633,47.647,80.633L47.647,80.633z"></path> <path id="Fill-82" fill="#424443" d="M69.738,42.674c-0.166-0.164-0.338-0.326-0.498-0.492l0,0 C69.4,42.348,69.572,42.51,69.738,42.674"></path> <path id="Fill-84" fill="#424443" d="M82.123,49.07c0.033,0.006,0.066,0.014,0.098,0.02c-0.031-0.006-0.064-0.014-0.096-0.021 c-1.998-0.383-4.072-1.103-6.221-2.159c-1.818-0.894-3.393-1.889-4.748-2.975c1.355,1.087,2.93,2.083,4.748,2.977 C78.052,47.967,80.127,48.687,82.123,49.07"></path> <path id="Fill-86" fill="#424443" d="M83.674,49.281L83.674,49.281c-0.198-0.02-0.4-0.051-0.599-0.075 C83.273,49.23,83.475,49.261,83.674,49.281"></path> <path id="Fill-88" fill="#424443" d="M60.021,57.353c0.087-0.151,0.174-0.299,0.26-0.45c-0.086,0.15-0.174,0.299-0.26,0.449 c-0.412,0.726-0.828,1.46-1.242,2.194C59.193,58.812,59.609,58.078,60.021,57.353"></path> <path id="Fill-90" fill="#424443" d="M44.585,86.963c1.019-2.15,2.041-4.258,3.062-6.329c0-0.001-0.001-0.001-0.001-0.001 C46.625,82.703,45.604,84.814,44.585,86.963c-0.689,1.459-1.379,2.945-2.068,4.434C43.205,89.909,43.895,88.422,44.585,86.963 "></path> <path id="Fill-92" fill="#424443" d="M63.199,96.116c1.082-2.117,2.127-4.215,3.131-6.293 C65.326,91.901,64.281,93.998,63.199,96.116"></path> <path id="Fill-94" fill="#424443" d="M81.404,55.498c0.801-2.103,1.562-4.177,2.27-6.217 C82.967,51.321,82.205,53.395,81.404,55.498"></path> <path id="Fill-96" fill="#424443" d="M52.274,116.453c-0.192,0.35-0.395,0.704-0.61,1.063 c-0.289,0.513-0.586,1.03-0.878,1.545c-0.944,1.661-1.9,3.332-2.881,5.022c0.409,0.049,0.817,0.084,1.223,0.106l4.155-8.431 l0.096,0.046l3.403-6.905c-0.112-0.012-0.224-0.016-0.335-0.029C55.094,111.379,53.703,113.909,52.274,116.453"></path> <path id="Fill-98" fill="#424443" d="M78.128,69.304c-0.479,0.003-0.968-0.021-1.46-0.057 c-0.266-0.02-0.531-0.037-0.801-0.068c-0.41,0.962-0.83,1.93-1.254,2.899c-0.247,0.564-0.497,1.13-0.748,1.696 c-0.357,0.805-0.712,1.61-1.079,2.42c-0.646,1.431-1.319,2.878-1.993,4.328c-1.086,2.333-2.197,4.679-3.357,7.056 l-1.104,2.241v0.001c0.909,0.119,1.802,0.17,2.679,0.158c3.51-0.017,5.898-0.9,7.171-2.656l0.349-0.293h-0.002h0.002 c3.275-6.804,6.09-13.496,8.444-20.076c0.069-0.18,0.126-0.354,0.171-0.525l-0.369,0.457 c-0.303,0.398-0.668,0.746-1.098,1.046C82.394,68.829,80.543,69.287,78.128,69.304"></path> <path id="Fill-100" fill="#424443" d="M50.64,124.205l3.743-6.768c-0.455-0.277-0.93-0.537-1.432-0.768l0.428-0.864 l-0.095-0.046l-4.156,8.431c0.374,0.021,0.746,0.032,1.118,0.029C50.383,124.219,50.507,124.209,50.64,124.205"></path> <path id="Fill-102" fill="#424443" d="M56.781,108.901l-3.402,6.905l1.498,0.737l1.816-3.285 c0.002,0.005,0.004,0.01,0.004,0.015l-0.004-0.015l1.164-0.008c0.521,1.432,0.955,2.941,1.34,4.488 c2.44-3.786,4.75-7.535,6.924-11.246c-0.858,1.13-2.223,1.872-4.062,2.243c-0.861,0.174-1.818,0.274-2.896,0.282 c-0.242,0.001-0.486-0.012-0.729-0.019C57.886,108.986,57.338,108.953,56.781,108.901"></path> <path id="Fill-104" fill="#424443" d="M54.383,117.438l0.494-0.895l-1.499-0.736l-0.427,0.864 C53.453,116.901,53.927,117.16,54.383,117.438"></path> <path id="Fill-106" fill="#424443" d="M56.781,108.901c-0.111-0.012-0.221-0.016-0.334-0.028 C56.56,108.885,56.67,108.889,56.781,108.901"></path> <path id="Fill-108" fill="#424443" d="M78.128,69.303c-0.479,0.003-0.968-0.021-1.46-0.056 C77.16,69.284,77.648,69.307,78.128,69.303c2.415-0.016,4.267-0.474,5.55-1.373C82.394,68.829,80.543,69.287,78.128,69.303"></path> <path id="Fill-110" fill="#424443" d="M76.18,87.323c-1.272,1.756-3.661,2.641-7.171,2.656 c-0.877,0.013-1.77-0.04-2.678-0.158v0.002c0.908,0.117,1.801,0.17,2.678,0.156C72.519,89.964,74.91,89.078,76.18,87.323 l0.348-0.293h0.001L76.18,87.323z"></path> <path id="Fill-112" fill="#424443" d="M58.431,108.999c-0.545-0.015-1.095-0.046-1.65-0.099 C57.337,108.953,57.886,108.986,58.431,108.999"></path> <path id="Fill-114" fill="#424443" d="M66.121,106.493L66.121,106.493c-0.859,1.129-2.223,1.871-4.062,2.243 C63.898,108.364,65.261,107.623,66.121,106.493"></path> <path id="Fill-116" fill="#424443" d="M66.331,89.822L66.331,89.822L66.331,89.822z"></path> <path id="Fill-118" fill="#424443" d="M66.331,89.822L66.331,89.822L66.331,89.822z"></path> <path id="Fill-120" fill="#C9C9C9" d="M59.802,72.16c-1.193,0.42-2.069,1.196-2.631,2.333 C57.732,73.357,58.609,72.58,59.802,72.16"></path> <path id="Fill-122" fill="#C9C9C9" d="M62.774,80.847c-1.208,0.412-2.38,0.337-3.519-0.222 c-1.136-0.559-1.91-1.441-2.319-2.65c0.409,1.208,1.184,2.092,2.319,2.65C60.392,81.185,61.566,81.26,62.774,80.847"></path> <path id="Fill-124" fill="#C9C9C9" d="M73.78,70.531c-0.062,0.124-0.163,0.212-0.304,0.258 c-0.139,0.047-0.27,0.041-0.395-0.02c-0.125-0.061-0.211-0.162-0.259-0.301c-0.046-0.139-0.039-0.272,0.022-0.397 c0.061-0.124,0.162-0.209,0.301-0.258c0.139-0.047,0.272-0.039,0.396,0.021c0.123,0.062,0.21,0.161,0.256,0.301 C73.847,70.275,73.841,70.407,73.78,70.531 M67.291,84.577c-0.061,0.125-0.162,0.21-0.302,0.257 c-0.14,0.048-0.271,0.042-0.396-0.02c-0.126-0.062-0.211-0.161-0.258-0.301c-0.048-0.139-0.041-0.271,0.02-0.396 c0.064-0.125,0.164-0.21,0.303-0.257c0.14-0.048,0.271-0.041,0.396,0.021c0.123,0.062,0.209,0.162,0.257,0.301 S67.353,84.452,67.291,84.577 M66.151,86.889c-0.062,0.125-0.163,0.211-0.302,0.258c-0.139,0.049-0.271,0.04-0.396-0.021 c-0.124-0.061-0.21-0.16-0.258-0.3s-0.04-0.271,0.022-0.396c0.061-0.126,0.16-0.211,0.299-0.258 c0.141-0.047,0.271-0.042,0.396,0.021c0.125,0.061,0.211,0.162,0.258,0.302C66.219,86.632,66.213,86.764,66.151,86.889 M64.699,89.483c-0.14,0.049-0.271,0.04-0.396-0.021c-0.125-0.061-0.21-0.161-0.258-0.3c-0.047-0.14-0.041-0.271,0.021-0.396 c0.062-0.125,0.16-0.212,0.302-0.258c0.138-0.047,0.271-0.041,0.395,0.02c0.126,0.061,0.211,0.162,0.259,0.301 C65.067,88.967,65.06,89.1,65,89.225C64.937,89.35,64.838,89.434,64.699,89.483 M54.874,78.678 c-0.597-1.753-0.483-3.486,0.336-5.15c0.827-1.678,2.138-2.831,3.896-3.43c1.77-0.588,3.51-0.472,5.171,0.344 c1.661,0.817,2.813,2.124,3.427,3.886c0.597,1.755,0.479,3.494-0.349,5.173c-0.819,1.662-2.124,2.809-3.88,3.407 c-1.777,0.604-3.522,0.497-5.185-0.321S55.478,80.454,54.874,78.678 M68.404,81.846c0.048,0.139,0.041,0.271-0.021,0.395 c-0.062,0.125-0.161,0.211-0.301,0.259s-0.272,0.04-0.396-0.021c-0.124-0.062-0.21-0.162-0.257-0.3 c-0.049-0.141-0.041-0.272,0.02-0.396c0.062-0.125,0.162-0.212,0.303-0.259c0.139-0.047,0.271-0.04,0.395,0.021 C68.27,81.606,68.357,81.707,68.404,81.846 M69.521,79.521c0.047,0.139,0.041,0.272-0.021,0.397 c-0.062,0.125-0.162,0.209-0.301,0.258c-0.14,0.048-0.271,0.041-0.396-0.021c-0.125-0.062-0.211-0.162-0.258-0.301 s-0.04-0.271,0.021-0.396c0.061-0.124,0.162-0.211,0.303-0.258c0.138-0.047,0.27-0.041,0.395,0.021 C69.388,79.283,69.473,79.382,69.521,79.521 M70.615,77.186c0.047,0.139,0.04,0.271-0.022,0.396 c-0.062,0.125-0.161,0.21-0.301,0.259c-0.14,0.047-0.271,0.04-0.396-0.022c-0.124-0.061-0.21-0.161-0.257-0.3 c-0.048-0.141-0.041-0.271,0.021-0.395c0.061-0.125,0.161-0.212,0.301-0.26c0.14-0.046,0.271-0.041,0.395,0.021 C70.482,76.948,70.567,77.048,70.615,77.186 M71.709,74.851c0.045,0.138,0.039,0.271-0.022,0.397 c-0.061,0.124-0.161,0.208-0.301,0.257c-0.14,0.048-0.272,0.042-0.396-0.02c-0.126-0.061-0.21-0.163-0.257-0.302 c-0.048-0.139-0.041-0.271,0.02-0.395c0.062-0.125,0.162-0.212,0.303-0.258c0.139-0.047,0.271-0.042,0.395,0.02 C71.574,74.612,71.66,74.712,71.709,74.851 M72.733,72.889c-0.062,0.124-0.163,0.21-0.302,0.258 c-0.139,0.047-0.272,0.04-0.396-0.021c-0.125-0.062-0.211-0.162-0.258-0.301c-0.047-0.14-0.04-0.272,0.021-0.397 c0.061-0.125,0.161-0.211,0.301-0.258c0.14-0.047,0.272-0.041,0.396,0.02c0.124,0.062,0.209,0.163,0.258,0.302 C72.801,72.632,72.795,72.765,72.733,72.889 M73.945,68.901c-2.418-0.473-4.934-1.353-7.551-2.64 c-2.662-1.308-4.918-2.776-6.766-4.401c-0.501-0.439-0.965-0.891-1.396-1.353v0c-0.571,1.013-1.14,2.038-1.707,3.071 c-0.663,1.204-1.323,2.417-1.979,3.646c-0.668,1.241-1.333,2.498-1.998,3.765c-0.784,1.496-1.564,3.013-2.344,4.543 c-0.589,1.157-1.176,2.324-1.763,3.501c-0.265,0.533-0.531,1.061-0.795,1.598c0.407,0.416,0.841,0.824,1.282,1.228 c0.074,0.068,0.14,0.138,0.215,0.206c1.162,0.998,2.47,1.929,3.894,2.808c1.023,0.632,2.101,1.241,3.26,1.811 c1.173,0.576,2.324,1.062,3.463,1.488c1.402,0.526,2.779,0.942,4.129,1.24c0.129,0.028,0.26,0.068,0.389,0.095 c0.691,0.128,1.375,0.231,2.051,0.311l1.105-2.241c1.161-2.376,2.271-4.724,3.357-7.056c0.675-1.449,1.348-2.896,1.994-4.328 c0.365-0.81,0.721-1.615,1.078-2.42c0.25-0.566,0.502-1.132,0.748-1.696c0.422-0.97,0.844-1.938,1.254-2.899h0.001 c-0.53-0.049-1.069-0.129-1.616-0.226C74.149,68.935,74.048,68.92,73.945,68.901"></path> <path id="Fill-126" fill="#C9C9C9" d="M65.393,78.536c0.562-1.137,0.644-2.304,0.248-3.505 C66.037,76.233,65.953,77.4,65.393,78.536"></path> <path id="Fill-128" fill="#C9C9C9" d="M65.393,78.536c-0.147,0.296-0.316,0.564-0.504,0.812 C65.077,79.101,65.246,78.833,65.393,78.536"></path> <path id="Fill-130" fill="#C9C9C9" d="M53.667,109.216c0.138-0.048,0.271-0.041,0.396,0.021 c0.124,0.061,0.21,0.162,0.258,0.301c0.047,0.139,0.039,0.272-0.021,0.395c-0.062,0.126-0.162,0.212-0.302,0.26 s-0.271,0.039-0.396-0.021c-0.124-0.061-0.211-0.16-0.258-0.299c-0.047-0.141-0.039-0.272,0.021-0.398 C53.426,109.35,53.527,109.264,53.667,109.216 M48.42,118.563c0.062-0.125,0.162-0.211,0.301-0.259 c0.139-0.046,0.272-0.038,0.396,0.022c0.125,0.061,0.211,0.16,0.258,0.299c0.047,0.141,0.04,0.271-0.021,0.396 s-0.161,0.211-0.301,0.259c-0.139,0.048-0.271,0.04-0.395-0.021c-0.125-0.061-0.211-0.161-0.259-0.3 C48.352,118.819,48.36,118.688,48.42,118.563 M47.798,121.535c-0.14,0.048-0.272,0.041-0.396-0.021 c-0.125-0.062-0.21-0.161-0.257-0.301c-0.048-0.141-0.042-0.271,0.021-0.396c0.061-0.125,0.161-0.21,0.301-0.258 c0.14-0.048,0.271-0.042,0.395,0.021c0.125,0.062,0.211,0.161,0.259,0.302c0.046,0.139,0.04,0.271-0.021,0.394 C48.036,121.403,47.936,121.487,47.798,121.535 M50.635,116.779c-0.062,0.125-0.162,0.211-0.303,0.259 c-0.138,0.047-0.27,0.039-0.395-0.021c-0.124-0.062-0.211-0.162-0.258-0.3c-0.046-0.14-0.04-0.271,0.021-0.397 c0.061-0.123,0.161-0.209,0.301-0.258s0.272-0.04,0.396,0.021c0.125,0.061,0.211,0.16,0.257,0.301 C50.703,116.522,50.696,116.655,50.635,116.779 M51.577,114.748c-0.138,0.047-0.271,0.039-0.396-0.023 c-0.125-0.061-0.209-0.16-0.258-0.298c-0.048-0.142-0.041-0.273,0.021-0.397c0.061-0.125,0.162-0.211,0.302-0.258 c0.139-0.049,0.271-0.041,0.395,0.02c0.125,0.062,0.212,0.162,0.259,0.302s0.04,0.271-0.021,0.396 C51.818,114.614,51.717,114.7,51.577,114.748 M53.134,111.827c0.046,0.139,0.04,0.271-0.021,0.396 c-0.061,0.124-0.162,0.211-0.301,0.258c-0.139,0.049-0.272,0.041-0.396-0.021c-0.125-0.061-0.211-0.161-0.259-0.301 c-0.046-0.139-0.04-0.272,0.022-0.396c0.061-0.124,0.161-0.21,0.3-0.259c0.14-0.047,0.272-0.039,0.396,0.022 C53,111.587,53.087,111.688,53.134,111.827 M38.568,100.051l-0.85,1.959c-0.875,1.972-1.745,3.971-2.609,6.002 c-0.163,0.365-0.327,0.738-0.496,1.121c-0.964,2.311-1.934,4.648-2.907,7.016c0.627,0.638,1.317,1.248,2.058,1.836 l4.691-9.518l1.401,0.689l-4.821,9.781c0.67,0.467,1.383,0.915,2.133,1.348l4.191-8.5l0.35,0.172l-4.199,8.52 c0.539,0.302,1.09,0.598,1.668,0.882c0.193,0.095,0.383,0.181,0.576,0.271l4.219-8.559l0.7,0.344l-4.209,8.541 c1.19,0.527,2.36,0.959,3.51,1.303l4.791-9.721l1.05,0.517l-4.691,9.517c0.357,0.088,0.712,0.166,1.064,0.236 c-0.017-0.006-0.038-0.006-0.055-0.016c-0.126-0.061-0.211-0.16-0.258-0.3c-0.047-0.14-0.042-0.271,0.021-0.396 c0.061-0.125,0.163-0.211,0.302-0.258c0.14-0.048,0.271-0.041,0.395,0.021c0.125,0.061,0.211,0.16,0.258,0.301 c0.048,0.139,0.041,0.271-0.02,0.395c-0.062,0.125-0.163,0.211-0.302,0.258c-0.06,0.021-0.116,0.025-0.174,0.026 c0.521,0.099,1.039,0.185,1.55,0.245c0.98-1.691,1.937-3.361,2.881-5.023c0.293-0.515,0.589-1.032,0.878-1.544 c0.216-0.358,0.419-0.714,0.611-1.063c1.429-2.547,2.821-5.074,4.173-7.581c-0.43-0.06-0.867-0.144-1.302-0.222 c-0.229-0.04-0.45-0.068-0.68-0.115c-0.806-0.166-1.626-0.393-2.453-0.645c-1.676-0.512-3.393-1.186-5.155-2.053 c-2.073-1.019-3.911-2.139-5.52-3.359C40.324,101.709,39.399,100.901,38.568,100.051"></path> <path id="Fill-132" fill="#C9C9C9" d="M65.641,75.032c-0.418-1.192-1.196-2.068-2.333-2.627 C64.445,72.964,65.222,73.84,65.641,75.032"></path> <path id="Fill-134" fill="#C9C9C9" d="M63.308,72.404c-1.137-0.559-2.305-0.641-3.506-0.244 C61.004,71.765,62.172,71.845,63.308,72.404"></path> <path id="Fill-136" fill="#C9C9C9" d="M49.815,114.054l-1.05-0.517l-4.791,9.721c0.386,0.114,0.77,0.219,1.15,0.312 L49.815,114.054z"></path> <path id="Fill-138" fill="#C9C9C9" d="M39.856,109.157l-1.4-0.689l-4.691,9.518c0.409,0.325,0.828,0.644,1.271,0.953 L39.856,109.157z"></path> <path id="Fill-140" fill="#C9C9C9" d="M44.674,113.414l-0.7-0.344l-4.22,8.559c0.237,0.111,0.474,0.224,0.709,0.326 L44.674,113.414z"></path> <path id="Fill-142" fill="#C9C9C9" d="M41.709,111.956l-0.351-0.172l-4.19,8.501c0.111,0.064,0.228,0.127,0.341,0.191 L41.709,111.956z"></path> <path id="Fill-144" fill="#C9C9C9" d="M31.707,116.149c0.972-2.367,1.941-4.705,2.906-7.016 c0.169-0.383,0.333-0.756,0.495-1.12c-0.161,0.364-0.326,0.737-0.495,1.12C33.648,111.444,32.679,113.782,31.707,116.149"></path> <path id="Fill-146" fill="#C9C9C9" d="M47.647,80.632c0.265-0.537,0.53-1.065,0.796-1.598 C48.177,79.567,47.912,80.096,47.647,80.632"></path> <path id="Fill-148" fill="#C9C9C9" d="M58.234,60.508c-0.571,1.014-1.141,2.038-1.709,3.071 C57.094,62.546,57.663,61.521,58.234,60.508"></path> <path id="Fill-150" fill="#C9C9C9" d="M50.205,75.533c0.779-1.531,1.56-3.048,2.344-4.544 C51.765,72.485,50.984,74.002,50.205,75.533"></path> <polygon id="Fill-152" fill="#C9C9C9" points="58.234,60.507 58.234,60.507 58.234,60.508 "></polygon> <path id="Fill-156" fill="#C9C9C9" d="M41.339,102.479c-1.014-0.77-1.939-1.579-2.771-2.429 C39.399,100.901,40.324,101.709,41.339,102.479"></path> <path id="Fill-158" fill="#C9C9C9" d="M66.394,66.262c2.616,1.287,5.133,2.166,7.551,2.639 c0.104,0.02,0.205,0.035,0.307,0.053c-0.102-0.018-0.203-0.033-0.308-0.053C71.527,68.427,69.011,67.548,66.394,66.262 c-2.662-1.31-4.918-2.777-6.767-4.401C61.476,63.485,63.732,64.952,66.394,66.262"></path> <path id="Fill-160" fill="#C9C9C9" d="M54.465,108.535c0.23,0.047,0.453,0.075,0.68,0.115 c-0.227-0.04-0.449-0.068-0.678-0.115c-0.807-0.166-1.626-0.392-2.453-0.645C52.84,108.144,53.66,108.369,54.465,108.535"></path> <path id="Fill-162" fill="#C9C9C9" d="M63.89,89.414c-1.35-0.298-2.727-0.714-4.129-1.24 C61.164,88.702,62.541,89.118,63.89,89.414"></path> <path id="Fill-164" fill="#C9C9C9" d="M53.039,84.875c-1.424-0.878-2.733-1.81-3.895-2.809 c-0.075-0.068-0.141-0.138-0.215-0.206c0.074,0.068,0.14,0.139,0.215,0.206C50.306,83.065,51.615,83.997,53.039,84.875"></path> <polygon id="Fill-166" fill="#C9C9C9" points="66.331,89.821 66.331,89.821 67.435,87.578 "></polygon> <path id="Fill-168" fill="#C9C9C9" d="M74.613,72.078c0.424-0.969,0.844-1.937,1.254-2.899l0,0 C75.457,70.141,75.036,71.109,74.613,72.078"></path> <path id="Fill-170" fill="#C9C9C9" d="M72.787,76.195c-0.646,1.431-1.319,2.879-1.994,4.327 C71.468,79.074,72.14,77.626,72.787,76.195c0.365-0.81,0.721-1.615,1.078-2.42C73.508,74.579,73.152,75.385,72.787,76.195"></path> <path id="Fill-172" fill="#C9C9C9" d="M47.904,124.084L47.904,124.084c0.981-1.689,1.937-3.361,2.882-5.023 C49.841,120.723,48.885,122.395,47.904,124.084"></path> <path id="Fill-174" fill="#727372" d="M67.767,35.161c0.058-0.02,0.105-0.05,0.15-0.083c0.062-0.046,0.114-0.102,0.15-0.174 c0.062-0.125,0.068-0.257,0.021-0.396c-0.027-0.08-0.068-0.144-0.122-0.197c-0.04-0.04-0.081-0.077-0.136-0.104 c-0.034-0.016-0.069-0.018-0.104-0.027c-0.053-0.014-0.109-0.018-0.166-0.012c-0.041,0.004-0.083,0.004-0.126,0.02 c-0.024,0.006-0.042,0.017-0.062,0.027c-0.01,0.005-0.022,0.008-0.031,0.014c-0.094,0.052-0.162,0.124-0.207,0.216 l-0.03,0.059c-0.036,0.104-0.033,0.218,0.009,0.337c0.028,0.087,0.079,0.154,0.139,0.21c0.035,0.033,0.071,0.067,0.119,0.091 C67.498,35.202,67.629,35.21,67.767,35.161"></path> <path id="Fill-176" fill="#727372" d="M67.51,37.286c0.001,0.056,0.006,0.112,0.025,0.17c0.017,0.048,0.044,0.086,0.069,0.125 c0.049,0.074,0.107,0.136,0.189,0.176c0.086,0.042,0.178,0.05,0.271,0.04c0.041-0.005,0.081-0.004,0.123-0.019 c0.141-0.047,0.24-0.133,0.301-0.259c0.062-0.125,0.07-0.255,0.021-0.395c-0.016-0.049-0.043-0.087-0.069-0.128 c-0.05-0.072-0.107-0.134-0.188-0.172c-0.073-0.036-0.147-0.048-0.226-0.047c-0.057,0.001-0.113,0.006-0.17,0.027 c-0.14,0.046-0.24,0.132-0.302,0.257C67.521,37.133,67.51,37.208,67.51,37.286"></path> <path id="Fill-178" fill="#727372" d="M75.785,44.386c-0.018-0.055-0.048-0.099-0.078-0.141 c-0.047-0.066-0.104-0.124-0.18-0.16c-0.072-0.036-0.146-0.047-0.225-0.047c-0.055,0.001-0.113,0.007-0.171,0.026 c-0.14,0.048-0.239,0.133-0.302,0.258c-0.061,0.125-0.067,0.258-0.02,0.397c0.047,0.138,0.133,0.239,0.256,0.299 c0.125,0.062,0.258,0.069,0.396,0.021c0.139-0.047,0.24-0.134,0.301-0.258c0.008-0.014,0.006-0.029,0.012-0.042 C75.819,44.626,75.827,44.509,75.785,44.386"></path> <path id="Fill-180" fill="#727372" d="M77.888,46.139c0.076-0.043,0.139-0.099,0.184-0.173 c0.008-0.014,0.021-0.022,0.027-0.036c0.044-0.088,0.049-0.183,0.039-0.278c-0.005-0.04-0.004-0.077-0.018-0.117 c-0.016-0.049-0.044-0.086-0.069-0.126c-0.048-0.073-0.108-0.136-0.188-0.175c-0.066-0.033-0.135-0.048-0.205-0.05 c-0.062,0-0.127,0.007-0.191,0.03c-0.141,0.047-0.24,0.132-0.301,0.258c-0.062,0.124-0.069,0.257-0.021,0.396 c0.041,0.118,0.113,0.202,0.209,0.263c0.017,0.012,0.029,0.028,0.049,0.038c0.062,0.031,0.127,0.048,0.193,0.051 c0.003,0,0.008-0.001,0.012-0.001c0.062,0.001,0.127-0.007,0.191-0.029C77.834,46.177,77.858,46.156,77.888,46.139"></path> <path id="Fill-182" fill="#727372" d="M70.635,41.649c0.047,0.14,0.133,0.239,0.258,0.3s0.256,0.069,0.396,0.021 c0.068-0.024,0.129-0.057,0.179-0.1c0.05-0.042,0.091-0.095,0.121-0.158c0.026-0.054,0.04-0.11,0.046-0.168 c0.008-0.074,0.004-0.149-0.024-0.228c-0.022-0.068-0.056-0.127-0.099-0.177c0-0.001,0-0.002-0.002-0.002 c-0.041-0.051-0.094-0.091-0.156-0.121c-0.079-0.039-0.161-0.048-0.246-0.043c-0.049,0.002-0.1,0.005-0.15,0.023 c-0.14,0.046-0.24,0.134-0.302,0.258C70.594,41.378,70.586,41.51,70.635,41.649"></path> <path id="Fill-184" fill="#727372" d="M82.227,47.627c0.048,0.066,0.104,0.124,0.181,0.161c0.034,0.017,0.07,0.02,0.105,0.028 c0.034,0.009,0.066,0.021,0.101,0.021c0.062,0.002,0.124-0.006,0.188-0.029c0.066-0.022,0.123-0.054,0.171-0.094 c0.054-0.044,0.099-0.097,0.13-0.164c0.038-0.075,0.049-0.155,0.045-0.236c-0.001-0.052-0.004-0.105-0.023-0.159 c-0.019-0.057-0.049-0.103-0.08-0.147c-0.021-0.027-0.046-0.05-0.071-0.072c-0.032-0.03-0.063-0.061-0.106-0.082 c-0.034-0.017-0.071-0.02-0.107-0.028c-0.057-0.014-0.117-0.017-0.178-0.008c-0.037,0.005-0.072,0.003-0.109,0.016 c-0.023,0.008-0.039,0.023-0.059,0.033c-0.106,0.051-0.192,0.121-0.243,0.226c-0.038,0.077-0.048,0.158-0.044,0.241 c0.002,0.05,0.005,0.101,0.023,0.154C82.168,47.541,82.197,47.584,82.227,47.627"></path> <path id="Fill-186" fill="#727372" d="M73.576,42.98c-0.047-0.139-0.133-0.239-0.258-0.3 c-0.125-0.062-0.256-0.068-0.396-0.021c-0.139,0.047-0.239,0.134-0.301,0.258c-0.062,0.125-0.068,0.256-0.021,0.396 c0.048,0.139,0.133,0.24,0.257,0.3c0.125,0.062,0.258,0.069,0.396,0.021c0.033-0.011,0.059-0.033,0.088-0.049 c0.045-0.024,0.086-0.051,0.119-0.086c0.035-0.037,0.07-0.075,0.095-0.123s0.032-0.1,0.039-0.15 C73.607,43.146,73.605,43.065,73.576,42.98"></path> <path id="Fill-188" fill="#727372" d="M79.582,46.398c-0.061,0.124-0.069,0.255-0.021,0.395 c0.047,0.14,0.133,0.239,0.26,0.301c0.123,0.061,0.255,0.068,0.394,0.02c0.14-0.047,0.239-0.133,0.302-0.257 c0.062-0.125,0.069-0.256,0.021-0.396c-0.009-0.025-0.024-0.042-0.035-0.063c-0.051-0.103-0.119-0.188-0.222-0.238 c-0.013-0.006-0.027-0.005-0.04-0.01c-0.064-0.026-0.133-0.037-0.203-0.034c-0.051,0.002-0.102,0.005-0.154,0.024 C79.742,46.187,79.643,46.273,79.582,46.398"></path> <path id="Fill-190" fill="#727372" d="M69.799,39.889c0.018-0.024,0.043-0.045,0.057-0.074 c0.061-0.125,0.066-0.257,0.021-0.396c-0.047-0.139-0.134-0.239-0.26-0.3c-0.074-0.037-0.152-0.047-0.232-0.046 c-0.053,0.002-0.105,0.006-0.162,0.024c-0.069,0.024-0.129,0.058-0.18,0.101c-0.049,0.042-0.09,0.095-0.121,0.158 c-0.031,0.064-0.048,0.13-0.051,0.198c-0.003,0.063,0.006,0.129,0.029,0.197c0.047,0.14,0.133,0.24,0.258,0.301 c0.057,0.028,0.116,0.042,0.177,0.047c0.005,0,0.011,0.003,0.016,0.004c0.009,0,0.017-0.004,0.024-0.004 c0.059,0,0.118-0.006,0.179-0.027C69.66,40.036,69.738,39.971,69.799,39.889"></path> <path id="Fill-192" fill="#727372" d="M90.666,46.103c-0.048-0.139-0.133-0.239-0.258-0.301 c-0.125-0.061-0.256-0.068-0.396-0.02c-0.14,0.047-0.241,0.134-0.302,0.257c-0.031,0.063-0.049,0.127-0.051,0.193 c0,0.008,0.002,0.017,0.002,0.025c0,0.058,0.006,0.117,0.027,0.178c0.016,0.047,0.042,0.083,0.067,0.12 c0.012,0.019,0.019,0.042,0.034,0.059c0.041,0.051,0.094,0.091,0.156,0.121c0.074,0.037,0.15,0.048,0.229,0.046 c0.056-0.001,0.11-0.005,0.168-0.025c0.139-0.048,0.24-0.134,0.303-0.258C90.707,46.375,90.713,46.243,90.666,46.103"></path> <path id="Fill-194" fill="#727372" d="M88.31,47.585c0.062-0.124,0.068-0.257,0.021-0.395 c-0.049-0.14-0.134-0.241-0.258-0.302c-0.125-0.061-0.259-0.068-0.396-0.02c-0.139,0.047-0.24,0.134-0.302,0.257 c-0.03,0.061-0.046,0.124-0.05,0.187c0,0.002-0.001,0.003-0.001,0.005c-0.001,0.013,0.005,0.028,0.007,0.041 c0.001,0.053,0.006,0.107,0.023,0.162c0.047,0.141,0.133,0.241,0.257,0.302c0.126,0.061,0.257,0.068,0.397,0.02 C88.148,47.796,88.25,47.71,88.31,47.585"></path> <path id="Fill-196" fill="#727372" d="M85.761,47.811c0.018-0.035,0.02-0.072,0.029-0.109 c0.021-0.092,0.025-0.187-0.009-0.287c-0.048-0.14-0.134-0.239-0.258-0.3c-0.053-0.026-0.107-0.037-0.163-0.043 c-0.074-0.009-0.152-0.005-0.232,0.023c-0.051,0.016-0.089,0.044-0.13,0.071c-0.071,0.048-0.133,0.106-0.172,0.186 c-0.04,0.081-0.048,0.165-0.042,0.252c0.002,0.047,0.004,0.095,0.021,0.145c0.015,0.043,0.04,0.075,0.062,0.11 c0.029,0.048,0.067,0.09,0.112,0.125c0.027,0.021,0.05,0.048,0.084,0.064c0.036,0.019,0.074,0.021,0.111,0.03 c0.092,0.021,0.186,0.023,0.285-0.009C85.599,48.023,85.699,47.937,85.761,47.811"></path> <path id="Fill-198" fill="#727372" d="M33.765,117.985c-0.741-0.588-1.43-1.198-2.058-1.836 c-0.295-0.309-0.576-0.621-0.845-0.937l-1.507,3.058v0.001c0.794,1.043,1.74,2.018,2.823,2.933L33.765,117.985z"></path> <path id="Fill-200" fill="#727372" d="M37.168,120.285c-0.749-0.432-1.462-0.88-2.133-1.347l-1.6,3.245 c0.661,0.481,1.366,0.942,2.116,1.383L37.168,120.285z"></path> <path id="Fill-202" fill="#727372" d="M43.973,123.258c-1.15-0.343-2.32-0.774-3.51-1.301l-1.623,3.292 c1.201,0.524,2.376,0.94,3.531,1.261L43.973,123.258z"></path> <path id="Fill-204" fill="#727372" d="M49.128,124.191c-0.406-0.022-0.814-0.058-1.223-0.106 c-0.512-0.06-1.031-0.146-1.551-0.245c-0.056,0-0.111-0.013-0.163-0.031c-0.354-0.07-0.708-0.149-1.067-0.237l-1.59,3.229 c1.395,0.307,2.756,0.467,4.08,0.463L49.128,124.191z"></path> <path id="Fill-206" fill="#727372" d="M39.754,121.63c-0.192-0.09-0.384-0.176-0.576-0.271 c-0.578-0.284-1.13-0.58-1.668-0.883l-1.62,3.286c0.536,0.306,1.085,0.604,1.665,0.89c0.194,0.096,0.385,0.178,0.578,0.268 L39.754,121.63z"></path> <path id="Fill-208" fill="#727372" d="M50.64,124.205c-0.133,0.004-0.257,0.014-0.394,0.015 c-0.372,0.003-0.745-0.009-1.118-0.029l-1.513,3.071c0.008,0,0.018,0.001,0.028,0.001c0.48-0.003,0.923-0.034,1.35-0.079 L50.64,124.205z"></path> <path id="Fill-210" fill="#727372" d="M45.124,123.571c-0.381-0.094-0.765-0.197-1.151-0.312l-1.603,3.252 c0.39,0.108,0.777,0.203,1.163,0.287L45.124,123.571z"></path> <path id="Fill-212" fill="#727372" d="M35.035,118.938c-0.443-0.309-0.862-0.629-1.271-0.953l-1.585,3.219 c0.399,0.336,0.818,0.662,1.256,0.981L35.035,118.938z"></path> <path id="Fill-214" fill="#727372" d="M30.863,115.212c-0.244-0.287-0.48-0.575-0.703-0.87 c-0.083-0.108-0.152-0.213-0.229-0.32l-1.354,3.109c0.23,0.371,0.481,0.75,0.779,1.139L30.863,115.212z"></path> <path id="Fill-216" fill="#727372" d="M40.463,121.957c-0.235-0.104-0.472-0.217-0.708-0.327l-1.623,3.29 c0.237,0.11,0.474,0.227,0.709,0.328L40.463,121.957z"></path> <path id="Fill-218" fill="#727372" d="M37.51,120.477c-0.114-0.063-0.229-0.126-0.342-0.19l-1.617,3.279 c0.112,0.066,0.225,0.134,0.338,0.198L37.51,120.477z"></path> <path id="Fill-220" fill="#727372" d="M67.373,35.141c-0.048-0.023-0.084-0.057-0.119-0.09 c0.035,0.033,0.071,0.067,0.117,0.09H67.373z"></path> <path id="Fill-222" fill="#727372" d="M68.09,34.508c-0.025-0.08-0.069-0.143-0.122-0.197 C68.02,34.365,68.062,34.429,68.09,34.508"></path> <path id="Fill-224" fill="#727372" d="M68.068,34.904c-0.036,0.073-0.088,0.128-0.151,0.174 C67.98,35.033,68.033,34.977,68.068,34.904c0.062-0.125,0.068-0.257,0.021-0.396C68.136,34.647,68.13,34.779,68.068,34.904"></path> <path id="Fill-226" fill="#727372" d="M67.728,34.18c-0.053-0.014-0.109-0.018-0.166-0.012 C67.619,34.162,67.676,34.166,67.728,34.18"></path> <path id="Fill-228" fill="#727372" d="M82.413,46.865c-0.105,0.05-0.19,0.121-0.242,0.226 C82.222,46.986,82.307,46.916,82.413,46.865"></path> <path id="Fill-230" fill="#727372" d="M75.785,44.386c-0.018-0.054-0.048-0.098-0.078-0.141 C75.737,44.287,75.767,44.331,75.785,44.386c0.042,0.124,0.034,0.241-0.01,0.353C75.819,44.627,75.827,44.51,75.785,44.386"></path> <path id="Fill-232" fill="#727372" d="M72.857,43.614c0.125,0.062,0.257,0.069,0.396,0.021 c0.033-0.013,0.059-0.034,0.088-0.049c-0.029,0.016-0.055,0.037-0.088,0.048C73.114,43.681,72.982,43.675,72.857,43.614"></path> <path id="Fill-234" fill="#727372" d="M75.463,45.04c-0.139,0.047-0.271,0.041-0.396-0.021 C75.191,45.08,75.324,45.087,75.463,45.04c0.14-0.048,0.24-0.134,0.301-0.258v-0.001 C75.703,44.906,75.601,44.993,75.463,45.04"></path> <path id="Fill-236" fill="#727372" d="M73.462,43.498c0.035-0.036,0.07-0.073,0.093-0.122c0.025-0.048,0.033-0.1,0.041-0.151 c-0.008,0.051-0.016,0.102-0.041,0.15C73.531,43.424,73.497,43.462,73.462,43.498"></path> <path id="Fill-238" fill="#727372" d="M74.809,44.719c-0.048-0.139-0.041-0.272,0.021-0.397 c0.062-0.124,0.163-0.209,0.303-0.257c0.058-0.021,0.114-0.026,0.171-0.027c-0.057,0.001-0.113,0.006-0.172,0.025 c-0.14,0.048-0.241,0.134-0.303,0.258C74.767,44.446,74.761,44.579,74.809,44.719c0.048,0.139,0.133,0.239,0.257,0.3 C74.942,44.957,74.857,44.857,74.809,44.719"></path> <path id="Fill-240" fill="#727372" d="M77.144,45.867c-0.049-0.14-0.04-0.272,0.021-0.396c0.062-0.125,0.161-0.21,0.301-0.257 c0.065-0.022,0.129-0.03,0.19-0.029c-0.062-0.001-0.125,0.006-0.19,0.028c-0.14,0.048-0.239,0.134-0.302,0.259 C77.103,45.595,77.097,45.726,77.144,45.867c0.04,0.117,0.113,0.201,0.209,0.263C77.258,46.068,77.184,45.984,77.144,45.867"></path> <path id="Fill-242" fill="#727372" d="M77.888,46.139c-0.03,0.017-0.055,0.039-0.09,0.05c-0.064,0.022-0.13,0.03-0.191,0.029 c0.062,0.001,0.127-0.007,0.191-0.028C77.834,46.177,77.858,46.156,77.888,46.139"></path> <path id="Fill-244" fill="#727372" d="M78.138,45.652c-0.006-0.039-0.004-0.078-0.018-0.119 c-0.017-0.048-0.043-0.085-0.068-0.124c0.025,0.039,0.052,0.077,0.068,0.125C78.135,45.575,78.133,45.613,78.138,45.652"></path> <path id="Fill-246" fill="#727372" d="M78.099,45.93c-0.008,0.014-0.019,0.022-0.027,0.035 C78.081,45.953,78.092,45.945,78.099,45.93"></path> <path id="Fill-248" fill="#727372" d="M71.353,41.016c-0.002,0-0.002,0-0.002,0c-0.078-0.039-0.16-0.048-0.244-0.043 C71.192,40.969,71.274,40.978,71.353,41.016"></path> <path id="Fill-250" fill="#727372" d="M69.385,39.074c-0.052,0.001-0.107,0.005-0.162,0.024c-0.07,0.024-0.13,0.057-0.18,0.1 c0.051-0.043,0.11-0.076,0.18-0.1C69.279,39.08,69.333,39.076,69.385,39.074"></path> <path id="Fill-252" fill="#727372" d="M69.855,39.816c0.062-0.125,0.068-0.256,0.021-0.396 C69.923,39.558,69.916,39.691,69.855,39.816"></path> <path id="Fill-254" fill="#727372" d="M68.9,39.752c-0.023-0.068-0.031-0.133-0.029-0.197 C68.869,39.618,68.877,39.684,68.9,39.752c0.047,0.14,0.133,0.24,0.258,0.301C69.033,39.991,68.947,39.892,68.9,39.752"></path> <path id="Fill-256" fill="#727372" d="M69.35,40.104c-0.005,0-0.011-0.003-0.017-0.004 C69.34,40.101,69.345,40.104,69.35,40.104"></path> <path id="Fill-258" fill="#727372" d="M71.467,41.871c0.051-0.042,0.092-0.096,0.123-0.158 c0.027-0.054,0.038-0.111,0.045-0.168c-0.007,0.058-0.02,0.114-0.046,0.168C71.557,41.776,71.517,41.828,71.467,41.871"></path> <path id="Fill-260" fill="#727372" d="M67.556,37.06c-0.035,0.073-0.047,0.149-0.046,0.226 C67.51,37.209,67.521,37.133,67.556,37.06"></path> <path id="Fill-262" fill="#727372" d="M72.599,43.313c0.048,0.14,0.135,0.24,0.258,0.301 C72.732,43.553,72.648,43.452,72.599,43.313"></path> <path id="Fill-264" fill="#727372" d="M71.51,41.138c0.001,0,0.001,0.002,0.001,0.003 C71.511,41.14,71.511,41.138,71.51,41.138"></path> <path id="Fill-266" fill="#727372" d="M69.799,39.889c-0.061,0.082-0.139,0.147-0.245,0.184 c-0.061,0.021-0.12,0.027-0.179,0.027c0.059,0,0.118-0.006,0.18-0.027C69.661,40.037,69.738,39.971,69.799,39.889"></path> <path id="Fill-268" fill="#727372" d="M82.227,47.627c0.048,0.066,0.104,0.123,0.181,0.161 C82.332,47.75,82.275,47.693,82.227,47.627"></path> <path id="Fill-270" fill="#727372" d="M88.31,47.585c-0.061,0.125-0.162,0.21-0.301,0.257 C88.148,47.796,88.25,47.71,88.31,47.585c0.062-0.124,0.068-0.257,0.021-0.395C88.379,47.328,88.372,47.461,88.31,47.585"></path> <path id="Fill-272" fill="#727372" d="M84.98,47.984c0.027,0.021,0.051,0.048,0.084,0.064c0.035,0.018,0.074,0.021,0.111,0.03 c-0.037-0.009-0.075-0.012-0.111-0.03C85.031,48.033,85.008,48.005,84.98,47.984"></path> <path id="Fill-274" fill="#727372" d="M87.331,47.359c-0.001-0.014-0.007-0.028-0.007-0.041 C87.324,47.331,87.33,47.345,87.331,47.359"></path> <path id="Fill-276" fill="#727372" d="M89.947,46.737c-0.062-0.031-0.115-0.07-0.156-0.121 C89.832,46.666,89.885,46.706,89.947,46.737"></path> <path id="Fill-278" fill="#727372" d="M87.376,47.126c-0.029,0.061-0.046,0.123-0.05,0.187 C87.33,47.249,87.346,47.187,87.376,47.126z"></path> <path id="Fill-280" fill="#727372" d="M90.344,46.757c-0.057,0.02-0.113,0.024-0.167,0.025 C90.23,46.781,90.287,46.777,90.344,46.757c0.139-0.048,0.24-0.134,0.302-0.258C90.584,46.623,90.482,46.709,90.344,46.757"></path> <path id="Fill-282" fill="#727372" d="M89.689,46.436c0.017,0.047,0.043,0.083,0.067,0.121 C89.732,46.519,89.706,46.483,89.689,46.436z"></path> <path id="Fill-284" fill="#727372" d="M90.666,46.103c0.047,0.14,0.041,0.272-0.02,0.396 C90.707,46.374,90.714,46.241,90.666,46.103z"></path> <path id="Fill-286" fill="#727372" d="M89.663,46.258c0-0.008-0.004-0.017-0.004-0.025 C89.659,46.241,89.663,46.249,89.663,46.258"></path> <path id="Fill-288" fill="#727372" d="M82.513,47.816c0.033,0.008,0.066,0.02,0.1,0.021 C82.58,47.835,82.547,47.824,82.513,47.816"></path> <path id="Fill-290" fill="#727372" d="M82.76,46.825c-0.057-0.014-0.117-0.018-0.178-0.008 C82.642,46.808,82.703,46.81,82.76,46.825"></path> <path id="Fill-292" fill="#727372" d="M83.045,47.007c-0.02-0.027-0.045-0.051-0.07-0.072 C83,46.957,83.025,46.98,83.045,47.007"></path> <path id="Fill-294" fill="#727372" d="M82.171,47.091c-0.038,0.077-0.048,0.158-0.044,0.241 C82.123,47.249,82.133,47.168,82.171,47.091"></path> <path id="Fill-296" fill="#727372" d="M83.104,47.55c-0.032,0.066-0.077,0.119-0.13,0.164 C83.027,47.669,83.072,47.616,83.104,47.55c0.038-0.076,0.048-0.156,0.045-0.237C83.152,47.394,83.142,47.473,83.104,47.55"></path> <path id="Fill-298" fill="#727372" d="M80.502,46.399c-0.051-0.104-0.12-0.188-0.223-0.238 C80.382,46.211,80.451,46.295,80.502,46.399"></path> <path id="Fill-300" fill="#727372" d="M85.761,47.811c0.018-0.035,0.02-0.072,0.029-0.108 C85.781,47.739,85.779,47.776,85.761,47.811z"></path> <path id="Fill-302" fill="#727372" d="M84.784,47.603c0.003,0.047,0.005,0.095,0.021,0.145c0.016,0.042,0.04,0.075,0.063,0.11 c-0.022-0.035-0.048-0.068-0.062-0.11C84.79,47.699,84.787,47.652,84.784,47.603"></path> <path id="Fill-304" fill="#727372" d="M85.361,47.072c-0.074-0.009-0.152-0.005-0.232,0.022 c-0.051,0.017-0.09,0.045-0.129,0.072c0.04-0.027,0.078-0.055,0.129-0.071C85.209,47.068,85.287,47.063,85.361,47.072"></path> <path id="Fill-306" fill="#727372" d="M80.24,46.15c-0.065-0.026-0.133-0.037-0.203-0.034 C80.107,46.113,80.175,46.124,80.24,46.15"></path> <path id="Fill-308" fill="#727372" d="M77.402,46.167c0.062,0.031,0.126,0.048,0.192,0.051 C77.529,46.216,77.465,46.199,77.402,46.167"></path> <path id="Fill-310" fill="#727372" d="M68.255,36.824c0.08,0.039,0.138,0.102,0.188,0.173 C68.394,36.924,68.336,36.862,68.255,36.824c-0.072-0.037-0.148-0.048-0.226-0.047C68.106,36.776,68.181,36.787,68.255,36.824 "></path> <path id="Fill-312" fill="#727372" d="M67.344,34.228c0.009-0.005,0.021-0.009,0.031-0.014 C67.365,34.219,67.352,34.223,67.344,34.228"></path> <path id="Fill-314" fill="#727372" d="M67.795,37.757c-0.082-0.041-0.141-0.103-0.188-0.176 C67.654,37.655,67.713,37.718,67.795,37.757c0.086,0.043,0.179,0.05,0.271,0.039C67.972,37.807,67.881,37.8,67.795,37.757"></path> <path id="Fill-316" fill="#727372" d="M46.354,123.839c0.521,0.099,1.039,0.187,1.551,0.245h-0.001 C47.393,124.024,46.875,123.938,46.354,123.839"></path> <path id="Fill-318" fill="#727372" d="M31.707,116.149c0.627,0.638,1.316,1.248,2.058,1.836 C33.024,117.397,32.335,116.786,31.707,116.149"></path> <path id="Fill-320" fill="#727372" d="M45.124,123.571L45.124,123.571c0.358,0.088,0.713,0.167,1.067,0.237 c0-0.001-0.001-0.001-0.003-0.001C45.836,123.737,45.481,123.659,45.124,123.571"></path> <path id="Fill-322" fill="#727372" d="M40.464,121.955l-0.001,0.002c1.19,0.526,2.36,0.959,3.51,1.301h0 C42.823,122.914,41.654,122.483,40.464,121.955"></path> <path id="Fill-324" fill="#727372" d="M39.179,121.359c-0.579-0.284-1.13-0.58-1.669-0.882h0 C38.048,120.78,38.6,121.076,39.179,121.359c0.191,0.096,0.383,0.182,0.575,0.271v-0.001 C39.562,121.539,39.371,121.453,39.179,121.359"></path> <path id="Fill-326" fill="#727372" d="M35.035,118.938L35.035,118.938c0.67,0.468,1.384,0.916,2.133,1.348l0,0 C36.419,119.853,35.705,119.405,35.035,118.938"></path> <path id="Fill-328" fill="#727372" d="M43.974,123.258L43.974,123.258c0.386,0.115,0.769,0.219,1.15,0.312l0,0 C44.743,123.477,44.36,123.372,43.974,123.258"></path> <path id="Fill-330" fill="#727372" d="M33.765,117.985c0.408,0.324,0.827,0.645,1.271,0.953l0,0 C34.593,118.628,34.173,118.309,33.765,117.985"></path> <path id="Fill-332" fill="#727372" d="M39.754,121.629L39.754,121.629c0.236,0.112,0.473,0.224,0.708,0.327l0-0.001 C40.227,121.852,39.99,121.741,39.754,121.629"></path> <path id="Fill-334" fill="#727372" d="M37.169,120.285L37.169,120.285c0.111,0.065,0.227,0.127,0.341,0.191l0-0.001 C37.396,120.412,37.28,120.35,37.169,120.285"></path> <path id="Fill-336" fill="#F0D292" d="M38.569,100.051l0.012-0.024l-0.07-0.034C38.541,100.009,38.561,100.029,38.569,100.051 "></path> <path id="Fill-340" fill="#FDCD32" d="M76.635,62.737c-0.124-0.062-0.257-0.068-0.395-0.021 c-0.141,0.046-0.24,0.132-0.303,0.258c-0.062,0.124-0.068,0.257-0.021,0.395c0.047,0.14,0.135,0.239,0.258,0.301 c0.125,0.062,0.256,0.069,0.396,0.021c0.139-0.047,0.24-0.132,0.302-0.257c0.062-0.126,0.067-0.258,0.021-0.396 C76.844,62.898,76.759,62.798,76.635,62.737"></path> <path id="Fill-342" fill="#FDCD32" d="M77.273,60.323c-0.141,0.047-0.239,0.133-0.301,0.258 c-0.061,0.125-0.07,0.256-0.021,0.396c0.047,0.139,0.133,0.239,0.258,0.3s0.256,0.069,0.396,0.021 c0.14-0.047,0.239-0.133,0.301-0.257c0.062-0.125,0.069-0.258,0.022-0.396c-0.048-0.139-0.135-0.239-0.259-0.301 C77.544,60.282,77.412,60.275,77.273,60.323"></path> <path id="Fill-344" fill="#FDCD32" d="M80.633,53.095c-0.124-0.061-0.256-0.067-0.395-0.02 c-0.141,0.047-0.241,0.133-0.304,0.257c-0.061,0.125-0.067,0.258-0.021,0.396c0.049,0.139,0.134,0.24,0.258,0.302 c0.125,0.061,0.257,0.067,0.396,0.021c0.14-0.047,0.24-0.133,0.302-0.258c0.061-0.125,0.067-0.256,0.021-0.396 C80.844,53.257,80.757,53.156,80.633,53.095"></path> <path id="Fill-346" fill="#FDCD32" d="M74.858,67.811c-0.048-0.139-0.134-0.24-0.258-0.301 c-0.124-0.061-0.257-0.067-0.396-0.021c-0.139,0.047-0.24,0.134-0.301,0.258c-0.062,0.124-0.067,0.256-0.021,0.396 c0.048,0.139,0.134,0.24,0.259,0.301c0.123,0.062,0.256,0.067,0.395,0.021c0.14-0.048,0.24-0.133,0.303-0.259 C74.898,68.083,74.906,67.951,74.858,67.811"></path> <path id="Fill-348" fill="#FDCD32" d="M81.165,50.659c-0.14,0.048-0.239,0.134-0.3,0.258 c-0.061,0.125-0.068,0.256-0.023,0.397c0.049,0.139,0.136,0.239,0.26,0.3c0.124,0.061,0.257,0.068,0.396,0.021 c0.14-0.048,0.239-0.134,0.302-0.258c0.062-0.125,0.067-0.257,0.021-0.396c-0.047-0.139-0.135-0.24-0.259-0.302 C81.437,50.618,81.306,50.612,81.165,50.659"></path> <path id="Fill-350" fill="#FDCD32" d="M75.226,65.12c-0.138,0.047-0.239,0.134-0.301,0.258 c-0.061,0.125-0.067,0.257-0.021,0.396c0.047,0.14,0.134,0.24,0.258,0.302c0.124,0.061,0.256,0.068,0.396,0.019 c0.139-0.047,0.239-0.133,0.301-0.256c0.062-0.125,0.067-0.258,0.022-0.396c-0.049-0.14-0.135-0.24-0.26-0.302 C75.499,65.08,75.367,65.072,75.226,65.12"></path> <path id="Fill-352" fill="#FDCD32" d="M79.668,55.524c-0.124-0.062-0.256-0.07-0.395-0.021 c-0.14,0.047-0.24,0.133-0.303,0.258c-0.062,0.124-0.068,0.258-0.021,0.396c0.048,0.139,0.134,0.24,0.257,0.301 c0.125,0.061,0.258,0.067,0.396,0.02c0.14-0.047,0.241-0.133,0.303-0.257c0.061-0.125,0.066-0.257,0.019-0.397 C79.879,55.684,79.792,55.585,79.668,55.524"></path> <path id="Fill-354" fill="#FDCD32" d="M61.308,95.477c-0.124-0.061-0.256-0.068-0.396-0.021 c-0.14,0.047-0.241,0.134-0.302,0.257c-0.062,0.125-0.068,0.258-0.021,0.396c0.049,0.14,0.135,0.238,0.259,0.301 c0.124,0.061,0.257,0.07,0.396,0.021c0.141-0.049,0.24-0.135,0.301-0.258c0.062-0.125,0.069-0.258,0.021-0.396 C61.519,95.637,61.432,95.537,61.308,95.477"></path> <path id="Fill-356" fill="#FDCD32" d="M55.552,107.272c-0.047-0.141-0.134-0.24-0.258-0.301 c-0.124-0.062-0.256-0.068-0.396-0.021s-0.241,0.135-0.302,0.258c-0.062,0.125-0.068,0.257-0.02,0.396 c0.047,0.14,0.133,0.239,0.257,0.3c0.124,0.062,0.257,0.069,0.396,0.022c0.139-0.049,0.239-0.134,0.303-0.26 C55.594,107.543,55.6,107.41,55.552,107.272"></path> <path id="Fill-358" fill="#FDCD32" d="M56.121,104.649c-0.141,0.047-0.24,0.135-0.303,0.258 c-0.061,0.125-0.067,0.257-0.02,0.396c0.047,0.14,0.133,0.24,0.258,0.301c0.123,0.062,0.256,0.068,0.395,0.02 c0.141-0.047,0.241-0.133,0.303-0.257c0.061-0.124,0.068-0.257,0.02-0.396c-0.047-0.141-0.132-0.24-0.256-0.302 C56.391,104.608,56.26,104.6,56.121,104.649"></path> <path id="Fill-360" fill="#FDCD32" d="M63.869,91.164c-0.047-0.14-0.133-0.24-0.257-0.302 c-0.126-0.061-0.257-0.067-0.397-0.021c-0.139,0.049-0.238,0.135-0.301,0.259c-0.061,0.124-0.068,0.255-0.021,0.396 c0.049,0.14,0.135,0.239,0.259,0.301c0.124,0.062,0.258,0.068,0.396,0.021c0.139-0.049,0.24-0.134,0.303-0.259 C63.91,91.436,63.917,91.304,63.869,91.164"></path> <path id="Fill-362" fill="#FDCD32" d="M57.714,102.358c-0.124-0.062-0.255-0.07-0.396-0.021 c-0.139,0.047-0.239,0.135-0.302,0.258c-0.062,0.125-0.069,0.256-0.021,0.396c0.047,0.14,0.133,0.239,0.258,0.302 c0.126,0.061,0.257,0.068,0.396,0.02c0.14-0.047,0.24-0.133,0.301-0.256c0.061-0.126,0.068-0.258,0.021-0.397 C57.926,102.518,57.84,102.418,57.714,102.358"></path> <path id="Fill-364" fill="#FDCD32" d="M58.935,100.055c-0.124-0.061-0.256-0.067-0.396-0.02 c-0.139,0.047-0.238,0.133-0.302,0.258c-0.061,0.125-0.067,0.256-0.02,0.395c0.048,0.14,0.133,0.24,0.259,0.302 c0.124,0.062,0.256,0.067,0.395,0.021c0.14-0.047,0.24-0.133,0.301-0.257c0.062-0.126,0.068-0.258,0.021-0.397 C59.146,100.217,59.06,100.117,58.935,100.055"></path> <path id="Fill-366" fill="#FDCD32" d="M62.483,93.153c-0.124-0.062-0.256-0.068-0.396-0.021 c-0.14,0.047-0.24,0.133-0.303,0.258c-0.061,0.124-0.068,0.257-0.021,0.396c0.048,0.14,0.134,0.239,0.259,0.301 c0.124,0.062,0.257,0.069,0.396,0.021c0.139-0.048,0.239-0.133,0.3-0.257c0.062-0.126,0.069-0.258,0.021-0.396 C62.694,93.313,62.607,93.214,62.483,93.153"></path> <path id="Fill-368" fill="#FDCD32" d="M60.379,98.067c-0.047-0.139-0.131-0.24-0.256-0.301 c-0.125-0.062-0.258-0.068-0.396-0.021c-0.141,0.049-0.24,0.135-0.302,0.26c-0.061,0.124-0.069,0.256-0.021,0.396 c0.047,0.14,0.133,0.239,0.258,0.301c0.124,0.062,0.257,0.067,0.396,0.021c0.14-0.047,0.239-0.134,0.302-0.258 C60.42,98.338,60.427,98.207,60.379,98.067"></path> <path id="Fill-370" fill="#FDCD32" d="M78.26,57.907c-0.139,0.047-0.239,0.133-0.3,0.257 c-0.062,0.126-0.068,0.258-0.023,0.397c0.048,0.14,0.136,0.24,0.26,0.301c0.124,0.061,0.255,0.069,0.395,0.021 c0.141-0.046,0.24-0.133,0.301-0.258c0.062-0.125,0.07-0.257,0.022-0.395c-0.048-0.141-0.134-0.24-0.258-0.302 C78.533,57.867,78.4,57.859,78.26,57.907"></path> <path id="Fill-372" fill="#F0F0F0" d="M73.799,70.135c-0.047-0.14-0.133-0.239-0.256-0.3 c-0.125-0.061-0.258-0.069-0.396-0.022c-0.139,0.048-0.24,0.135-0.301,0.258c-0.062,0.125-0.068,0.257-0.021,0.396 s0.134,0.24,0.258,0.301c0.124,0.061,0.257,0.067,0.395,0.021c0.141-0.047,0.242-0.133,0.304-0.259 C73.842,70.407,73.847,70.275,73.799,70.135"></path> <path id="Fill-374" fill="#F0F0F0" d="M72.496,72.192c-0.123-0.061-0.256-0.067-0.396-0.02 c-0.139,0.046-0.24,0.133-0.301,0.257c-0.062,0.125-0.069,0.256-0.021,0.396c0.048,0.139,0.133,0.24,0.258,0.302 c0.125,0.061,0.257,0.067,0.396,0.021c0.139-0.049,0.24-0.134,0.301-0.259c0.062-0.125,0.068-0.258,0.021-0.396 C72.706,72.354,72.619,72.253,72.496,72.192"></path> <path id="Fill-376" fill="#F0F0F0" d="M71.053,74.531c-0.14,0.046-0.239,0.133-0.302,0.257 c-0.061,0.125-0.067,0.256-0.02,0.396c0.047,0.14,0.133,0.241,0.257,0.302c0.124,0.062,0.257,0.068,0.396,0.02 c0.14-0.047,0.239-0.132,0.3-0.257c0.062-0.125,0.068-0.258,0.023-0.396c-0.049-0.139-0.135-0.24-0.26-0.302 C71.325,74.489,71.193,74.483,71.053,74.531"></path> <path id="Fill-378" fill="#F0F0F0" d="M69.961,76.865c-0.14,0.047-0.24,0.134-0.301,0.258 c-0.062,0.125-0.069,0.255-0.021,0.396c0.047,0.139,0.133,0.24,0.257,0.3c0.126,0.062,0.257,0.069,0.396,0.021 c0.14-0.048,0.239-0.134,0.301-0.259c0.062-0.124,0.069-0.257,0.022-0.396c-0.048-0.138-0.133-0.239-0.26-0.301 C70.232,76.824,70.1,76.818,69.961,76.865"></path> <path id="Fill-380" fill="#F0F0F0" d="M68.868,79.201c-0.14,0.047-0.241,0.133-0.302,0.258 c-0.062,0.125-0.068,0.257-0.021,0.396c0.047,0.139,0.133,0.239,0.258,0.301c0.125,0.061,0.256,0.068,0.396,0.02 c0.139-0.047,0.239-0.133,0.301-0.257c0.062-0.125,0.068-0.258,0.021-0.396c-0.048-0.139-0.133-0.239-0.258-0.301 C69.138,79.16,69.007,79.153,68.868,79.201"></path> <path id="Fill-382" fill="#F0F0F0" d="M67.752,81.524c-0.141,0.048-0.24,0.134-0.302,0.259 c-0.061,0.125-0.069,0.256-0.021,0.397c0.048,0.138,0.134,0.239,0.257,0.299c0.125,0.062,0.258,0.069,0.396,0.021 c0.14-0.048,0.24-0.134,0.301-0.259c0.062-0.124,0.069-0.257,0.022-0.395c-0.048-0.139-0.134-0.24-0.259-0.302 C68.023,81.484,67.89,81.476,67.752,81.524"></path> <path id="Fill-384" fill="#F0F0F0" d="M67.31,84.181c-0.047-0.139-0.133-0.239-0.256-0.3 c-0.127-0.061-0.258-0.068-0.396-0.021s-0.239,0.133-0.302,0.258c-0.061,0.125-0.067,0.256-0.021,0.396 c0.047,0.14,0.133,0.24,0.258,0.301c0.124,0.062,0.256,0.068,0.396,0.021c0.14-0.047,0.241-0.132,0.303-0.258 C67.353,84.452,67.359,84.32,67.31,84.181"></path> <path id="Fill-386" fill="#F0F0F0" d="M66.172,86.494c-0.047-0.14-0.133-0.241-0.258-0.302 c-0.125-0.062-0.256-0.068-0.396-0.021c-0.139,0.047-0.238,0.133-0.299,0.257c-0.062,0.126-0.07,0.257-0.021,0.396 c0.047,0.141,0.133,0.24,0.257,0.301c0.124,0.062,0.257,0.07,0.396,0.021c0.139-0.047,0.24-0.133,0.303-0.259 C66.213,86.764,66.219,86.632,66.172,86.494"></path> <path id="Fill-388" fill="#F0F0F0" d="M65.02,88.828c-0.048-0.139-0.132-0.24-0.257-0.301s-0.258-0.066-0.396-0.021 c-0.141,0.048-0.239,0.134-0.301,0.259s-0.068,0.256-0.021,0.396c0.048,0.14,0.133,0.239,0.258,0.3 c0.124,0.062,0.258,0.069,0.396,0.021s0.238-0.133,0.302-0.259C65.061,89.1,65.068,88.967,65.02,88.828"></path> <path id="Fill-390" fill="#F0F0F0" d="M53.365,109.473c-0.062,0.125-0.068,0.258-0.021,0.398 c0.047,0.138,0.134,0.237,0.258,0.299s0.257,0.07,0.396,0.021c0.14-0.049,0.239-0.133,0.303-0.259 c0.06-0.124,0.067-0.257,0.021-0.396c-0.049-0.139-0.135-0.24-0.258-0.301c-0.125-0.061-0.258-0.068-0.396-0.021 C53.527,109.263,53.426,109.35,53.365,109.473"></path> <path id="Fill-392" fill="#F0F0F0" d="M52.479,111.504c-0.139,0.049-0.24,0.135-0.301,0.259s-0.069,0.258-0.022,0.396 c0.047,0.14,0.134,0.239,0.259,0.3c0.124,0.062,0.256,0.07,0.396,0.021c0.14-0.047,0.241-0.134,0.302-0.258 c0.062-0.125,0.067-0.258,0.021-0.396c-0.046-0.139-0.134-0.238-0.258-0.301C52.751,111.465,52.619,111.457,52.479,111.504"></path> <path id="Fill-394" fill="#F0F0F0" d="M51.901,114.093c-0.047-0.14-0.134-0.239-0.258-0.302 c-0.125-0.061-0.256-0.068-0.396-0.02c-0.141,0.047-0.242,0.134-0.302,0.258c-0.062,0.124-0.069,0.256-0.021,0.397 c0.047,0.138,0.133,0.237,0.257,0.298c0.125,0.062,0.258,0.07,0.396,0.023c0.14-0.049,0.241-0.135,0.303-0.26 C51.941,114.365,51.948,114.233,51.901,114.093"></path> <path id="Fill-396" fill="#F0F0F0" d="M50.397,116.082c-0.124-0.061-0.255-0.07-0.396-0.021 c-0.139,0.048-0.24,0.135-0.301,0.258c-0.062,0.125-0.068,0.258-0.021,0.396c0.047,0.139,0.134,0.238,0.258,0.301 c0.125,0.061,0.256,0.068,0.395,0.021c0.141-0.049,0.242-0.133,0.303-0.259c0.061-0.124,0.068-0.257,0.02-0.396 C50.609,116.243,50.522,116.143,50.397,116.082"></path> <path id="Fill-398" fill="#F0F0F0" d="M48.657,119.26c0.124,0.061,0.255,0.068,0.395,0.02c0.14-0.047,0.24-0.134,0.302-0.258 c0.061-0.124,0.069-0.256,0.021-0.396c-0.048-0.14-0.134-0.239-0.257-0.3c-0.125-0.061-0.257-0.069-0.396-0.021 s-0.239,0.133-0.302,0.258c-0.061,0.125-0.068,0.256-0.02,0.396C48.446,119.098,48.534,119.2,48.657,119.26"></path> <path id="Fill-400" fill="#F0F0F0" d="M48.119,120.882c-0.047-0.141-0.132-0.24-0.258-0.302 c-0.125-0.062-0.256-0.068-0.396-0.021c-0.141,0.048-0.241,0.134-0.302,0.258c-0.062,0.125-0.069,0.255-0.02,0.396 c0.046,0.14,0.132,0.239,0.256,0.301c0.125,0.062,0.257,0.068,0.396,0.021c0.139-0.048,0.238-0.132,0.301-0.259 C48.159,121.153,48.166,121.02,48.119,120.882"></path> <path id="Fill-402" fill="#F0F0F0" d="M46.529,123.813c0.14-0.047,0.239-0.133,0.302-0.258 c0.061-0.124,0.068-0.257,0.021-0.395c-0.047-0.141-0.134-0.24-0.258-0.301c-0.125-0.062-0.255-0.069-0.395-0.021 c-0.14,0.046-0.242,0.133-0.302,0.257c-0.062,0.125-0.068,0.256-0.021,0.396c0.046,0.14,0.132,0.239,0.258,0.301 c0.017,0.009,0.038,0.009,0.055,0.015c0.056,0.012,0.112,0.022,0.167,0.032C46.411,123.838,46.469,123.833,46.529,123.813"></path> <path id="Fill-404" fill="#F0F0F0" d="M46.354,123.839l-0.163-0.03C46.244,123.827,46.299,123.839,46.354,123.839"></path> <path id="Fill-406" fill="#F0F0F0" d="M46.188,123.807c0.002,0,0.002,0,0.003,0.001l0.163,0.031 C46.3,123.828,46.244,123.819,46.188,123.807"></path> <path id="Fill-408" fill="#9FA0A0" d="M3.258,132.539l3.465-7.031c0.343-0.696,0.716-1.379,1.104-2.055 c0.178-0.309,0.36-0.614,0.546-0.918c2.023-3.288,4.604-6.326,7.742-9.115l-0.708-0.924 c-4.062,3.611-7.195,7.639-9.388,12.085l-3.466,7.031l-1.749,3.55l0.704,0.927l0.211-0.429L3.258,132.539z"></path> <path id="Fill-410" fill="#9FA0A0" d="M18.611,110.869c-0.379,0.422-0.748,0.875-1.106,1.359 c1.786-1.471,3.729-2.871,5.841-4.197c0.014-0.008,0.026-0.014,0.04-0.023c0.469-0.293,0.963-0.586,1.472-0.876 c0.479-0.282,0.958-0.567,1.437-0.83C23.378,106.841,20.816,108.359,18.611,110.869"></path> <path id="Fill-412" fill="#9FA0A0" d="M17.505,112.229c0.358-0.484,0.727-0.938,1.106-1.359 c2.205-2.511,4.767-4.028,7.683-4.567c1.011-0.558,2.018-1.063,3.024-1.536c0.175-0.494,0.346-0.996,0.521-1.487 c-2.387,1.041-4.786,2.315-7.197,3.826c-2.676,1.679-5.085,3.478-7.237,5.391l0.709,0.924 C16.566,113.018,17.03,112.621,17.505,112.229"></path> <path id="Fill-414" fill="#9FA0A0" d="M34.926,102.554L34.926,102.554l-0.704-0.927c-1.457,0.462-2.917,1.013-4.382,1.651 c-0.175,0.491-0.347,0.993-0.521,1.487c1.436-0.675,2.868-1.283,4.293-1.785C34.055,102.831,34.491,102.689,34.926,102.554"></path> <path id="Fill-416" fill="#727372" d="M27.917,115.889c-0.624-1.43-0.702-2.717-0.216-3.859l0.104-0.21 c0.138-0.279,0.304-0.536,0.496-0.771l0,0c-0.015-0.048-0.031-0.093-0.047-0.141c-0.277-0.928-0.332-1.797-0.166-2.605 c0.015-0.069,0.033-0.129,0.056-0.175c0.094-0.265,0.185-0.528,0.275-0.793c0.143-0.415,0.289-0.821,0.433-1.233 c-0.496-0.014-0.994-0.005-1.498,0.041c-0.319,0.033-0.631,0.086-0.941,0.142c-0.531,0.278-1.051,0.561-1.555,0.848 c-0.49,0.289-0.981,0.567-1.472,0.876c-0.013,0.009-0.026,0.017-0.04,0.023c-2.112,1.326-4.056,2.727-5.842,4.197 c-0.371,0.5-0.73,1.033-1.077,1.599l-0.313-0.408c-3.138,2.79-5.72,5.827-7.742,9.116c-0.187,0.303-0.368,0.609-0.545,0.917 c-0.389,0.676-0.761,1.358-1.104,2.056l-3.466,7.031l-1.539,3.121l-0.211,0.428l2.76-0.004c0.747-1.24,1.574-2.43,2.483-3.568 c2.9-3.684,6.666-6.985,11.299-9.911c2.904-1.811,5.8-3.248,8.687-4.321L27.917,115.889z"></path> <path id="Fill-418" fill="#727372" d="M29.766,113.79c0.053,0.077,0.109,0.153,0.165,0.23 C29.875,113.944,29.819,113.868,29.766,113.79"></path> <path id="Fill-420" fill="#727372" d="M28.316,117.729l0.26-0.598c-0.263-0.426-0.483-0.84-0.659-1.242l-1.181,2.395 C27.264,118.088,27.79,117.901,28.316,117.729"></path> <path id="Fill-422" fill="#727372" d="M26.413,106.285c0.311-0.055,0.622-0.108,0.94-0.142 c0.504-0.046,1.002-0.055,1.498-0.042c0.143-0.412,0.287-0.822,0.431-1.231C28.316,105.317,27.351,105.791,26.413,106.285"></path> <path id="Fill-424" fill="#727372" d="M16.428,113.828c0.347-0.566,0.706-1.1,1.076-1.599c-0.475,0.39-0.938,0.788-1.39,1.189 L16.428,113.828z"></path> <path id="Fill-426" fill="#727372" d="M29.3,113.083l3.134-6.358c-1.167-0.385-2.362-0.594-3.583-0.623 c-0.144,0.412-0.289,0.818-0.432,1.233c-0.092,0.265-0.183,0.528-0.275,0.792c-0.023,0.048-0.042,0.105-0.056,0.176 c-0.167,0.809-0.111,1.678,0.166,2.606c0.015,0.046,0.032,0.093,0.046,0.14h0.001C28.521,111.696,28.863,112.376,29.3,113.083 "></path> <path id="Fill-428" fill="#727372" d="M33.019,106.932c-0.194-0.074-0.389-0.144-0.585-0.207l-3.134,6.358 c0.144,0.232,0.298,0.468,0.465,0.707c0.054,0.077,0.109,0.153,0.165,0.23L33.019,106.932z"></path> <path id="Fill-430" fill="#727372" d="M32.434,106.725l0.483-0.98l0.51,0.25l1.498-3.441 c-1.661,0.586-3.646,1.393-5.643,2.316c-0.144,0.409-0.288,0.819-0.431,1.231C30.073,106.131,31.267,106.339,32.434,106.725"></path> <path id="Fill-432" fill="#727372" d="M33.427,105.994l-0.509-0.25l-0.483,0.98c0.196,0.064,0.391,0.133,0.585,0.207 L33.427,105.994z"></path> <path id="Fill-434" fill="#727372" d="M28.301,111.049c-0.191,0.233-0.358,0.491-0.495,0.771l-0.103,0.21 c-0.487,1.143-0.409,2.43,0.214,3.859l1.384-2.805C28.863,112.377,28.521,111.696,28.301,111.049"></path> <path id="Fill-436" fill="#727372" d="M29.93,114.022c-0.056-0.078-0.111-0.154-0.165-0.231 c-0.167-0.239-0.323-0.474-0.466-0.707l-1.383,2.806c0.175,0.402,0.396,0.816,0.659,1.242L29.93,114.022z"></path> <path id="Fill-438" fill="#727372" d="M29.3,113.084L29.3,113.084c-0.437-0.708-0.779-1.389-0.999-2.035L28.3,111.05 C28.521,111.696,28.863,112.377,29.3,113.084"></path> <path id="Fill-440" fill="#727372" d="M29.3,113.084c0.144,0.232,0.298,0.467,0.465,0.705 C29.598,113.551,29.445,113.316,29.3,113.084L29.3,113.084z"></path> <path id="Fill-442" fill="#727372" d="M7.827,123.452c-0.389,0.676-0.761,1.359-1.104,2.056 C7.066,124.812,7.438,124.128,7.827,123.452"></path> <path id="Fill-444" fill="#727372" d="M1.719,135.66l-0.211,0.428L1.719,135.66z"></path> <path id="Fill-446" fill="#727372" d="M24.858,107.132c0.504-0.287,1.024-0.569,1.555-0.848 c-0.039,0.007-0.08,0.011-0.118,0.017C25.817,106.566,25.337,106.849,24.858,107.132"></path> <path id="Fill-448" fill="#727372" d="M8.373,122.535c2.023-3.289,4.604-6.326,7.742-9.116 C12.976,116.209,10.396,119.246,8.373,122.535"></path> <path id="Fill-450" fill="#727372" d="M17.505,112.229L17.505,112.229c1.786-1.471,3.729-2.871,5.842-4.197 c0.013-0.008,0.026-0.015,0.04-0.023c-0.014,0.01-0.027,0.016-0.04,0.023C21.235,109.358,19.291,110.758,17.505,112.229"></path> <path id="Fill-452" fill="#727372" d="M29.282,104.869l0.036-0.104c-1.006,0.473-2.013,0.979-3.023,1.536 c0.038-0.007,0.079-0.012,0.118-0.019C27.351,105.792,28.316,105.317,29.282,104.869"></path> <path id="Fill-454" fill="#727372" d="M16.115,113.419c0.452-0.401,0.915-0.8,1.39-1.189v-0.001 C17.03,112.619,16.567,113.018,16.115,113.419"></path> <path id="Fill-456" fill="#727372" d="M34.926,102.554c-0.434,0.135-0.871,0.277-1.314,0.427 c-1.425,0.502-2.857,1.11-4.293,1.785l-0.036,0.104C31.28,103.946,33.264,103.139,34.926,102.554"></path> <path id="Fill-458" fill="#727372" d="M55.676,149.582l-3.463,7.029l-1.75,3.551l1.165-0.008l5.215-10.58 c2.192-4.447,3.477-9.385,3.865-14.802l-1.164,0.003C59.154,140.195,57.87,145.133,55.676,149.582"></path> <path id="Fill-460" fill="#727372" d="M59.407,125.765c0.237,2.48,0.311,4.873,0.231,7.184 c0.166-0.579,0.301-1.147,0.405-1.705c0.647-3.278,0.288-6.234-1.063-8.872c0.08,0.523,0.145,1.059,0.213,1.596 C59.277,124.58,59.353,125.184,59.407,125.765"></path> <path id="Fill-462" fill="#727372" d="M60.572,125.757c-0.271-2.833-0.744-5.493-1.375-8.019 c-0.278,0.434-0.566,0.867-0.85,1.301c0.241,1.084,0.457,2.191,0.632,3.331c1.353,2.639,1.712,5.595,1.064,8.873 c-0.104,0.558-0.239,1.127-0.405,1.705c-0.02,0.615-0.053,1.224-0.096,1.826l1.164-0.001 C60.913,131.903,60.872,128.9,60.572,125.757"></path> <path id="Fill-464" fill="#727372" d="M56.693,113.258l0.005,0.015c0.155,0.421,0.3,0.847,0.433,1.274 c0.479,1.438,0.873,2.943,1.218,4.491c0.282-0.433,0.571-0.867,0.85-1.299c-0.387-1.548-0.818-3.058-1.341-4.489 L56.693,113.258z"></path> <path id="Fill-466" fill="#9FA0A0" d="M59.638,132.951c0.08-2.311,0.006-4.704-0.23-7.186 c-0.059-0.61-0.141-1.202-0.215-1.798c-0.078-0.556-0.166-1.121-0.266-1.689c-0.146-0.281-0.295-0.562-0.465-0.837 c-0.273-0.431-0.572-0.833-0.888-1.222c-0.304,0.463-0.599,0.922-0.905,1.387c-0.046,0.092-0.115,0.193-0.207,0.303 c-0.547,0.756-1.32,1.323-2.318,1.704c-0.047,0.014-0.098,0.038-0.153,0.07c-0.067,0.294-0.169,0.583-0.308,0.864 l-0.092,0.186c-0.617,1.095-1.692,1.826-3.208,2.211l-1.189,2.41c0.907,2.938,1.546,6.092,1.88,9.492 c0.504,5.451,0.18,10.447-0.976,14.986c-0.348,1.415-0.787,2.795-1.315,4.141l1.678,2.189l1.75-3.551l3.464-7.03 c2.193-4.449,3.479-9.387,3.867-14.807l-0.515,0.001C59.265,134.157,59.469,133.547,59.638,132.951"></path> <path id="Fill-468" fill="#9FA0A0" d="M50.383,126.944c-0.428,0.108-0.892,0.188-1.39,0.24l-0.311,0.561 c0.186,0.524,0.345,1.07,0.512,1.61L50.383,126.944z"></path> <path id="Fill-470" fill="#9FA0A0" d="M59.028,134.776h0.515c0.043-0.603,0.075-1.211,0.096-1.825 C59.469,133.548,59.265,134.157,59.028,134.776"></path> <path id="Fill-472" fill="#9FA0A0" d="M58.298,119.117c-0.24,0.367-0.479,0.735-0.723,1.104 c0.315,0.388,0.614,0.79,0.888,1.221c0.17,0.274,0.318,0.556,0.466,0.837C58.746,121.227,58.533,120.162,58.298,119.117"></path> <path id="Fill-474" fill="#9FA0A0" d="M54.902,117.774l-3.133,6.358c0.829-0.084,1.577-0.229,2.223-0.449 c0.055-0.032,0.105-0.057,0.152-0.07c0.998-0.38,1.771-0.947,2.318-1.704c0.094-0.109,0.162-0.211,0.207-0.303 c0.307-0.464,0.603-0.923,0.906-1.387C56.808,119.276,55.917,118.46,54.902,117.774"></path> <path id="Fill-476" fill="#9FA0A0" d="M50.64,124.205c0.393-0.012,0.769-0.036,1.128-0.073l3.134-6.358 c-0.169-0.115-0.343-0.229-0.52-0.336L50.64,124.205z"></path> <path id="Fill-478" fill="#9FA0A0" d="M56.697,113.272c-0.001-0.004-0.002-0.01-0.004-0.014l-1.816,3.285l0.509,0.25 l-0.482,0.98c1.015,0.687,1.905,1.502,2.672,2.445c0.243-0.367,0.482-0.734,0.723-1.103 C57.818,116.987,57.252,114.94,56.697,113.272"></path> <path id="Fill-480" fill="#9FA0A0" d="M54.902,117.774l0.484-0.98l-0.51-0.25l-0.494,0.895 C54.559,117.545,54.733,117.659,54.902,117.774"></path> <path id="Fill-482" fill="#9FA0A0" d="M51.768,124.133l-1.385,2.811c1.517-0.385,2.591-1.117,3.208-2.211l0.092-0.186 c0.139-0.281,0.241-0.569,0.309-0.865C53.345,123.903,52.597,124.047,51.768,124.133"></path> <path id="Fill-484" fill="#9FA0A0" d="M50.64,124.205l-1.647,2.979c0.5-0.052,0.962-0.133,1.391-0.24l1.385-2.812 C51.409,124.169,51.033,124.194,50.64,124.205"></path> <path id="Fill-486" fill="#9FA0A0" d="M59.193,123.967c-0.067-0.535-0.133-1.072-0.215-1.596 c-0.015-0.032-0.035-0.062-0.051-0.094C59.027,122.847,59.115,123.41,59.193,123.967"></path> <path id="Fill-488" fill="#9FA0A0" d="M58.927,122.278c0.018,0.031,0.035,0.061,0.051,0.093 c-0.174-1.14-0.389-2.247-0.631-3.331c-0.017,0.025-0.033,0.051-0.051,0.077C58.534,120.162,58.746,121.227,58.927,122.278"></path> <path id="Fill-490" fill="#9FA0A0" d="M56.697,113.272c0.555,1.668,1.121,3.715,1.601,5.845 c0.017-0.026,0.034-0.052,0.051-0.077c-0.345-1.549-0.739-3.056-1.218-4.492C56.998,114.118,56.853,113.694,56.697,113.272"></path> <path id="Fill-492" fill="#979797" d="M56.936,77.975c-0.403-1.185-0.325-2.345,0.235-3.482 c0.562-1.137,1.438-1.914,2.631-2.333c1.201-0.398,2.371-0.315,3.506,0.243c1.137,0.56,1.915,1.435,2.333,2.627 c0.395,1.201,0.313,2.369-0.249,3.506c-0.145,0.296-0.315,0.564-0.503,0.812c-0.535,0.699-1.239,1.201-2.115,1.499 c-1.208,0.412-2.382,0.338-3.519-0.222C58.12,80.068,57.345,79.184,56.936,77.975 M63.14,81.922 c1.505-0.511,2.578-1.454,3.281-2.88c0.709-1.442,0.807-2.873,0.297-4.374c-0.525-1.513-1.476-2.589-2.903-3.291 c-1.427-0.703-2.86-0.798-4.378-0.293c-1.506,0.513-2.582,1.462-3.293,2.903c-0.702,1.426-0.796,2.851-0.283,4.354 c0.518,1.527,1.464,2.611,2.89,3.312C60.176,82.354,61.611,82.442,63.14,81.922"></path> <path id="Fill-494" fill="#727372" d="M59.256,80.626c1.139,0.559,2.311,0.632,3.519,0.222c0.878-0.299,1.58-0.801,2.115-1.5 c0.188-0.246,0.356-0.515,0.504-0.812c0.56-1.136,0.643-2.304,0.248-3.505c-0.419-1.191-1.196-2.067-2.333-2.627 c-1.135-0.558-2.305-0.639-3.506-0.244c-1.193,0.419-2.07,1.197-2.631,2.333c-0.561,1.138-0.639,2.298-0.235,3.482 C57.345,79.183,58.12,80.066,59.256,80.626"></path> <path id="Fill-496" fill="#727372" d="M57.172,74.493c-0.561,1.137-0.639,2.297-0.235,3.482 C56.533,76.791,56.611,75.631,57.172,74.493"></path> <path id="Fill-498" fill="#727372" d="M62.774,80.847c0.876-0.297,1.58-0.8,2.115-1.499 C64.354,80.046,63.652,80.549,62.774,80.847"></path> <path id="Fill-500" fill="#010101" d="M55.367,78.51c-0.555-1.625-0.45-3.21,0.311-4.752c0.766-1.556,1.964-2.612,3.592-3.167 c1.644-0.546,3.235-0.44,4.777,0.317c1.541,0.759,2.596,1.954,3.163,3.588c0.554,1.626,0.446,3.218-0.323,4.775 c-0.759,1.542-1.952,2.59-3.58,3.143c-1.648,0.562-3.246,0.464-4.787-0.293C56.978,81.363,55.927,80.16,55.367,78.51 M63.474,82.908c1.756-0.598,3.061-1.745,3.881-3.407c0.827-1.679,0.944-3.417,0.349-5.172 c-0.614-1.762-1.767-3.068-3.427-3.886c-1.662-0.816-3.402-0.933-5.172-0.344c-1.758,0.599-3.068,1.751-3.895,3.43 c-0.82,1.664-0.934,3.397-0.338,5.15c0.605,1.776,1.754,3.092,3.416,3.909C59.953,83.405,61.697,83.513,63.474,82.908"></path> <path id="Fill-502" fill="#010101" d="M55.86,78.342c-0.512-1.503-0.419-2.927,0.285-4.354c0.71-1.441,1.786-2.39,3.292-2.903 c1.518-0.505,2.951-0.41,4.379,0.292c1.427,0.702,2.376,1.779,2.902,3.292c0.51,1.5,0.413,2.932-0.297,4.373 c-0.703,1.427-1.775,2.369-3.281,2.881c-1.529,0.52-2.965,0.432-4.391-0.27C57.325,80.952,56.379,79.868,55.86,78.342 M63.306,82.415c1.627-0.553,2.82-1.602,3.581-3.144c0.768-1.557,0.875-3.148,0.321-4.775 c-0.566-1.634-1.622-2.829-3.162-3.588c-1.543-0.757-3.134-0.864-4.777-0.317c-1.627,0.555-2.825,1.61-3.593,3.167 c-0.759,1.542-0.863,3.126-0.311,4.752c0.562,1.649,1.612,2.853,3.153,3.611C60.06,82.878,61.658,82.976,63.306,82.415"></path> </g> </g> </g> </g> </g> </g> </svg> 